Space-Mono-Regular-Italic_QUADRATIC.ufo
<glyph name="exclam" format="1">
  <advance width="612"/>
  <unicode hex="0021"/>
  <outline>
    <contour>
      <point x="422" y="700" type="line"/>
      <point x="311" y="186" type="line"/>
      <point x="231" y="186" type="line"/>
      <point x="342" y="700" type="line"/>
    </contour>
    <contour>
      <point x="175" y="56" type="qcurve"/>
      <point x="175" y="85"/>
      <point x="216" y="126"/>
      <point x="245" y="126" type="qcurve"/>
      <point x="274" y="126"/>
      <point x="315" y="85"/>
      <point x="315" y="56" type="qcurve"/>
      <point x="315" y="27"/>
      <point x="274" y="-14"/>
      <point x="245" y="-14" type="qcurve"/>
      <point x="216" y="-14"/>
      <point x="175" y="27"/>
    </contour>
  </outline>
</glyph>
<glyph name="percent" format="1">
  <advance width="612"/>
  <unicode hex="0025"/>
  <outline>
    <contour>
      <point x="352" y="579" type="qcurve"/>
      <point x="352" y="545"/>
      <point x="328" y="482"/>
      <point x="283" y="434"/>
      <point x="218" y="406"/>
      <point x="178" y="406" type="qcurve"/>
      <point x="152" y="406"/>
      <point x="106" y="423"/>
      <point x="72" y="454"/>
      <point x="52" y="500"/>
      <point x="52" y="530" type="qcurve"/>
      <point x="52" y="568"/>
      <point x="77" y="633"/>
      <point x="122" y="680"/>
      <point x="184" y="706"/>
      <point x="222" y="706" type="qcurve"/>
      <point x="281" y="706"/>
      <point x="352" y="639"/>
    </contour>
    <contour>
      <point x="180" y="460" type="qcurve"/>
      <point x="205" y="460"/>
      <point x="246" y="478"/>
      <point x="276" y="508"/>
      <point x="292" y="547"/>
      <point x="292" y="568" type="qcurve"/>
      <point x="292" y="604"/>
      <point x="256" y="652"/>
      <point x="219" y="652" type="qcurve"/>
      <point x="195" y="652"/>
      <point x="156" y="634"/>
      <point x="127" y="603"/>
      <point x="112" y="562"/>
      <point x="112" y="539" type="qcurve"/>
      <point x="112" y="497"/>
      <point x="150" y="460"/>
    </contour>
    <contour>
      <point x="561" y="168" type="qcurve"/>
      <point x="561" y="134"/>
      <point x="537" y="71"/>
      <point x="492" y="23"/>
      <point x="427" y="-5"/>
      <point x="387" y="-5" type="qcurve"/>
      <point x="361" y="-5"/>
      <point x="315" y="12"/>
      <point x="281" y="43"/>
      <point x="261" y="89"/>
      <point x="261" y="119" type="qcurve"/>
      <point x="261" y="157"/>
      <point x="286" y="222"/>
      <point x="331" y="269"/>
      <point x="393" y="295"/>
      <point x="431" y="295" type="qcurve"/>
      <point x="490" y="295"/>
      <point x="561" y="228"/>
    </contour>
    <contour>
      <point x="389" y="49" type="qcurve"/>
      <point x="414" y="49"/>
      <point x="455" y="67"/>
      <point x="485" y="97"/>
      <point x="501" y="136"/>
      <point x="501" y="157" type="qcurve"/>
      <point x="501" y="193"/>
      <point x="465" y="241"/>
      <point x="428" y="241" type="qcurve"/>
      <point x="404" y="241"/>
      <point x="365" y="223"/>
      <point x="336" y="192"/>
      <point x="321" y="151"/>
      <point x="321" y="128" type="qcurve"/>
      <point x="321" y="86"/>
      <point x="359" y="49"/>
    </contour>
    <component base="fraction"/>
  </outline>
</glyph>
<glyph name="quotesingle" format="1">
  <advance width="612"/>
  <unicode hex="0027"/>
  <outline>
    <contour>
      <point x="292" y="644" type="qcurve"/>
      <point x="292" y="673"/>
      <point x="333" y="714"/>
      <point x="362" y="714" type="qcurve"/>
      <point x="391" y="714"/>
      <point x="432" y="673"/>
      <point x="432" y="644" type="qcurve"/>
      <point x="432" y="619"/>
      <point x="400" y="580"/>
      <point x="376" y="575" type="qcurve"/>
      <point x="353" y="468" type="line"/>
      <point x="300" y="479" type="line"/>
      <point x="324" y="585" type="line"/>
      <point x="310" y="595"/>
      <point x="292" y="626"/>
    </contour>
  </outline>
</glyph>
<glyph name="parenleft" format="1">
  <advance width="612"/>
  <unicode hex="0028"/>
  <outline>
    <contour>
      <point x="413" y="-82" type="line"/>
      <point x="413" y="-156" type="line"/>
      <point x="361" y="-156" type="line"/>
      <point x="301" y="-156"/>
      <point x="198" y="-117"/>
      <point x="121" y="-44"/>
      <point x="78" y="64"/>
      <point x="78" y="133" type="qcurve"/>
      <point x="78" y="180"/>
      <point x="90" y="236" type="qcurve"/>
      <point x="145" y="494" type="line"/>
      <point x="166" y="592"/>
      <point x="243" y="730"/>
      <point x="352" y="817"/>
      <point x="491" y="856"/>
      <point x="574" y="856" type="qcurve"/>
      <point x="612" y="856" type="line"/>
      <point x="612" y="782" type="line"/>
      <point x="566" y="782" type="line"/>
      <point x="504" y="782"/>
      <point x="393" y="752"/>
      <point x="303" y="680"/>
      <point x="237" y="561"/>
      <point x="218" y="472" type="qcurve"/>
      <point x="167" y="228" type="line"/>
      <point x="157" y="182"/>
      <point x="157" y="139" type="qcurve"/>
      <point x="157" y="83"/>
      <point x="190" y="1"/>
      <point x="249" y="-55"/>
      <point x="329" y="-82"/>
      <point x="377" y="-82" type="qcurve"/>
    </contour>
  </outline>
</glyph>
<glyph name="parenright" format="1">
  <advance width="612"/>
  <unicode hex="0029"/>
  <outline>
    <contour>
      <point x="199" y="782" type="line"/>
      <point x="199" y="856" type="line"/>
      <point x="251" y="856" type="line"/>
      <point x="311" y="856"/>
      <point x="414" y="817"/>
      <point x="491" y="744"/>
      <point x="534" y="636"/>
      <point x="534" y="567" type="qcurve"/>
      <point x="534" y="519"/>
      <point x="522" y="464" type="qcurve"/>
      <point x="467" y="206" type="line"/>
      <point x="446" y="108"/>
      <point x="369" y="-30"/>
      <point x="260" y="-117"/>
      <point x="121" y="-156"/>
      <point x="38" y="-156" type="qcurve"/>
      <point x="0" y="-156" type="line"/>
      <point x="0" y="-82" type="line"/>
      <point x="46" y="-82" type="line"/>
      <point x="108" y="-82"/>
      <point x="218" y="-52"/>
      <point x="308" y="20"/>
      <point x="375" y="139"/>
      <point x="394" y="228" type="qcurve"/>
      <point x="445" y="472" type="line"/>
      <point x="455" y="518"/>
      <point x="455" y="561" type="qcurve"/>
      <point x="455" y="616"/>
      <point x="422" y="699"/>
      <point x="363" y="755"/>
      <point x="283" y="782"/>
      <point x="235" y="782" type="qcurve"/>
    </contour>
  </outline>
</glyph>
<glyph name="comma" format="1">
  <advance width="612"/>
  <unicode hex="002C"/>
  <outline>
    <contour>
      <point x="192" y="56" type="qcurve"/>
      <point x="192" y="85"/>
      <point x="233" y="126"/>
      <point x="262" y="126" type="qcurve"/>
      <point x="291" y="126"/>
      <point x="332" y="85"/>
      <point x="332" y="56" type="qcurve"/>
      <point x="332" y="49"/>
      <point x="331" y="44" type="qcurve"/>
      <point x="313" y="-42" type="line"/>
      <point x="305" y="-80"/>
      <point x="259" y="-120"/>
      <point x="220" y="-120" type="qcurve"/>
      <point x="168" y="-120" type="line"/>
      <point x="168" y="-66" type="line"/>
      <point x="227" y="-66" type="line"/>
      <point x="255" y="-66"/>
      <point x="261" y="-36" type="qcurve"/>
      <point x="266" y="-14" type="line"/>
      <point x="262" y="-14" type="line"/>
      <point x="233" y="-14"/>
      <point x="192" y="27"/>
    </contour>
  </outline>
</glyph>
<glyph name="period" format="1">
  <advance width="612"/>
  <unicode hex="002E"/>
  <outline>
    <contour>
      <point x="186" y="56" type="qcurve"/>
      <point x="186" y="85"/>
      <point x="227" y="126"/>
      <point x="256" y="126" type="qcurve"/>
      <point x="285" y="126"/>
      <point x="326" y="85"/>
      <point x="326" y="56" type="qcurve"/>
      <point x="326" y="27"/>
      <point x="285" y="-14"/>
      <point x="256" y="-14" type="qcurve"/>
      <point x="227" y="-14"/>
      <point x="186" y="27"/>
    </contour>
  </outline>
</glyph>
<glyph name="two" format="1">
  <advance width="612"/>
  <unicode hex="0032"/>
  <outline>
    <contour>
      <point x="489" y="78" type="line"/>
      <point x="489" y="0" type="line"/>
      <point x="0" y="0" type="line"/>
      <point x="24" y="120" type="line"/>
      <point x="34" y="169"/>
      <point x="80" y="240"/>
      <point x="150" y="291"/>
      <point x="242" y="325"/>
      <point x="298" y="336" type="qcurve"/>
      <point x="337" y="343"/>
      <point x="410" y="371"/>
      <point x="467" y="416"/>
      <point x="502" y="480"/>
      <point x="502" y="524" type="qcurve"/>
      <point x="502" y="547"/>
      <point x="487" y="588"/>
      <point x="456" y="618"/>
      <point x="406" y="636"/>
      <point x="372" y="636" type="qcurve"/>
      <point x="295" y="636"/>
      <point x="192" y="542"/>
      <point x="175" y="464" type="qcurve"/>
      <point x="166" y="420" type="line"/>
      <point x="81" y="420" type="line"/>
      <point x="91" y="470" type="line"/>
      <point x="101" y="521"/>
      <point x="147" y="610"/>
      <point x="219" y="676"/>
      <point x="318" y="714"/>
      <point x="382" y="714" type="qcurve"/>
      <point x="431" y="714"/>
      <point x="509" y="685"/>
      <point x="561" y="636"/>
      <point x="589" y="572"/>
      <point x="589" y="538" type="qcurve"/>
      <point x="589" y="421"/>
      <point x="449" y="288"/>
      <point x="325" y="264" type="qcurve"/>
      <point x="275" y="254"/>
      <point x="201" y="228"/>
      <point x="148" y="192"/>
      <point x="115" y="142"/>
      <point x="107" y="108" type="qcurve"/>
      <point x="100" y="78" type="line"/>
    </contour>
  </outline>
</glyph>
<glyph name="four" format="1">
  <advance width="612"/>
  <unicode hex="0034"/>
  <outline>
    <contour>
      <point x="375" y="700" type="line"/>
      <point x="548" y="700" type="line"/>
      <point x="444" y="210" type="line"/>
      <point x="535" y="210" type="line"/>
      <point x="535" y="132" type="line"/>
      <point x="427" y="132" type="line"/>
      <point x="399" y="0" type="line"/>
      <point x="315" y="0" type="line"/>
      <point x="343" y="132" type="line"/>
      <point x="19" y="132" type="line"/>
      <point x="19" y="264" type="line"/>
    </contour>
    <contour>
      <point x="83" y="222" type="line"/>
      <point x="83" y="210" type="line"/>
      <point x="360" y="210" type="line"/>
      <point x="456" y="664" type="line"/>
      <point x="444" y="664" type="line"/>
    </contour>
  </outline>
</glyph>
<glyph name="five" format="1">
  <advance width="612"/>
  <unicode hex="0035"/>
  <outline>
    <contour>
      <point x="73" y="330" type="line"/>
      <point x="151" y="700" type="line"/>
      <point x="573" y="700" type="line"/>
      <point x="573" y="622" type="line"/>
      <point x="217" y="622" type="line"/>
      <point x="164" y="372" type="line"/>
      <point x="176" y="372" type="line"/>
      <point x="188" y="392"/>
      <point x="222" y="429"/>
      <point x="267" y="457"/>
      <point x="326" y="474"/>
      <point x="364" y="474" type="qcurve"/>
      <point x="403" y="474"/>
      <point x="470" y="448"/>
      <point x="520" y="401"/>
      <point x="548" y="337"/>
      <point x="548" y="300" type="qcurve"/>
      <point x="548" y="233"/>
      <point x="505" y="118"/>
      <point x="425" y="34"/>
      <point x="313" y="-14"/>
      <point x="244" y="-14" type="qcurve"/>
      <point x="192" y="-14"/>
      <point x="113" y="14"/>
      <point x="59" y="63"/>
      <point x="32" y="130"/>
      <point x="32" y="170" type="qcurve"/>
      <point x="32" y="195"/>
      <point x="38" y="224" type="qcurve"/>
      <point x="44" y="252" type="line"/>
      <point x="128" y="252" type="line"/>
      <point x="123" y="230" type="line"/>
      <point x="120" y="215"/>
      <point x="116" y="189"/>
      <point x="116" y="177" type="qcurve"/>
      <point x="116" y="117"/>
      <point x="192" y="64"/>
      <point x="256" y="64" type="qcurve"/>
      <point x="301" y="64"/>
      <point x="376" y="102"/>
      <point x="431" y="164"/>
      <point x="461" y="243"/>
      <point x="461" y="283" type="qcurve"/>
      <point x="461" y="332"/>
      <point x="400" y="396"/>
      <point x="344" y="396" type="qcurve"/>
      <point x="322" y="396"/>
      <point x="286" y="384"/>
      <point x="258" y="365"/>
      <point x="238" y="341"/>
      <point x="232" y="330" type="qcurve"/>
    </contour>
  </outline>
</glyph>
<glyph name="six" format="1">
  <advance width="612"/>
  <unicode hex="0036"/>
  <outline>
    <contour>
      <point x="486" y="496" type="line"/>
      <point x="490" y="515"/>
      <point x="490" y="535" type="qcurve"/>
      <point x="490" y="586"/>
      <point x="425" y="640"/>
      <point x="365" y="640" type="qcurve"/>
      <point x="331" y="640"/>
      <point x="269" y="616"/>
      <point x="219" y="571"/>
      <point x="182" y="509"/>
      <point x="174" y="472" type="qcurve"/>
      <point x="153" y="374" type="line"/>
      <point x="165" y="374" type="line"/>
      <point x="194" y="415"/>
      <point x="287" y="462"/>
      <point x="344" y="462" type="qcurve"/>
      <point x="383" y="462"/>
      <point x="451" y="438"/>
      <point x="502" y="393"/>
      <point x="531" y="328"/>
      <point x="531" y="288" type="qcurve"/>
      <point x="531" y="224"/>
      <point x="492" y="114"/>
      <point x="417" y="33"/>
      <point x="306" y="-14"/>
      <point x="234" y="-14" type="qcurve"/>
      <point x="189" y="-14"/>
      <point x="115" y="14"/>
      <point x="62" y="64"/>
      <point x="32" y="133"/>
      <point x="32" y="174" type="qcurve"/>
      <point x="32" y="186"/>
      <point x="35" y="209"/>
      <point x="37" y="222" type="qcurve"/>
      <point x="90" y="472" type="line"/>
      <point x="103" y="533"/>
      <point x="157" y="624"/>
      <point x="232" y="684"/>
      <point x="325" y="714"/>
      <point x="378" y="714" type="qcurve"/>
      <point x="422" y="714"/>
      <point x="495" y="689"/>
      <point x="547" y="643"/>
      <point x="575" y="580"/>
      <point x="575" y="543" type="qcurve"/>
      <point x="575" y="532"/>
      <point x="573" y="508"/>
      <point x="570" y="496" type="qcurve"/>
    </contour>
    <contour>
      <point x="246" y="60" type="qcurve"/>
      <point x="288" y="60"/>
      <point x="361" y="92"/>
      <point x="414" y="149"/>
      <point x="445" y="224"/>
      <point x="445" y="268" type="qcurve"/>
      <point x="445" y="325"/>
      <point x="379" y="388"/>
      <point x="316" y="388" type="qcurve"/>
      <point x="275" y="388"/>
      <point x="203" y="355"/>
      <point x="148" y="299"/>
      <point x="116" y="224"/>
      <point x="116" y="182" type="qcurve"/>
      <point x="116" y="123"/>
      <point x="185" y="60"/>
    </contour>
  </outline>
</glyph>
<glyph name="seven" format="1">
  <advance width="612"/>
  <unicode hex="0037"/>
  <outline>
    <contour>
      <point x="119" y="700" type="line"/>
      <point x="604" y="700" type="line"/>
      <point x="604" y="562" type="line"/>
      <point x="199" y="132" type="line"/>
      <point x="170" y="101"/>
      <point x="138" y="55"/>
      <point x="133" y="26" type="qcurve"/>
      <point x="128" y="0" type="line"/>
      <point x="37" y="0" type="line"/>
      <point x="43" y="36" type="line"/>
      <point x="49" y="72"/>
      <point x="92" y="135"/>
      <point x="134" y="180" type="qcurve"/>
      <point x="538" y="610" type="line"/>
      <point x="538" y="622" type="line"/>
      <point x="119" y="622" type="line"/>
    </contour>
  </outline>
</glyph>
<glyph name="at" format="1">
  <advance width="612"/>
  <unicode hex="0040"/>
  <outline>
    <contour>
      <point x="105" y="510" type="line"/>
      <point x="105" y="582" type="line"/>
      <point x="411" y="582" type="line"/>
      <point x="453" y="582"/>
      <point x="517" y="560"/>
      <point x="560" y="521"/>
      <point x="582" y="466"/>
      <point x="582" y="434" type="qcurve"/>
      <point x="582" y="415"/>
      <point x="577" y="390" type="qcurve"/>
      <point x="511" y="78" type="line"/>
      <point x="503" y="42"/>
      <point x="453" y="0"/>
      <point x="417" y="0" type="qcurve"/>
      <point x="337" y="0" type="line"/>
      <point x="305" y="0"/>
      <point x="278" y="29"/>
      <point x="278" y="50" type="qcurve"/>
      <point x="278" y="56"/>
      <point x="280" y="66" type="qcurve"/>
      <point x="268" y="66" type="line"/>
      <point x="251" y="28"/>
      <point x="183" y="-14"/>
      <point x="135" y="-14" type="qcurve"/>
      <point x="74" y="-14"/>
      <point x="4" y="72"/>
      <point x="4" y="141" type="qcurve"/>
      <point x="4" y="194"/>
      <point x="32" y="300"/>
      <point x="88" y="385"/>
      <point x="173" y="438"/>
      <point x="229" y="438" type="qcurve"/>
      <point x="274" y="438"/>
      <point x="321" y="402"/>
      <point x="327" y="370" type="qcurve"/>
      <point x="339" y="370" type="line"/>
      <point x="350" y="424" type="line"/>
      <point x="428" y="424" type="line"/>
      <point x="360" y="102" type="line"/>
      <point x="359" y="97"/>
      <point x="359" y="93"/>
      <point x="359" y="91" type="qcurve"/>
      <point x="359" y="72"/>
      <point x="380" y="72" type="qcurve"/>
      <point x="404" y="72" type="line"/>
      <point x="432" y="72"/>
      <point x="438" y="102" type="qcurve"/>
      <point x="498" y="386" type="line"/>
      <point x="503" y="409"/>
      <point x="503" y="425" type="qcurve"/>
      <point x="503" y="465"/>
      <point x="455" y="510"/>
      <point x="401" y="510" type="qcurve"/>
    </contour>
    <contour>
      <point x="166" y="60" type="qcurve"/>
      <point x="207" y="60"/>
      <point x="263" y="102"/>
      <point x="298" y="166"/>
      <point x="313" y="242"/>
      <point x="313" y="276" type="qcurve"/>
      <point x="313" y="314"/>
      <point x="277" y="364"/>
      <point x="231" y="364" type="qcurve"/>
      <point x="195" y="364"/>
      <point x="140" y="324"/>
      <point x="103" y="263"/>
      <point x="84" y="190"/>
      <point x="84" y="156" type="qcurve"/>
      <point x="84" y="112"/>
      <point x="125" y="60"/>
    </contour>
  </outline>
</glyph>
<glyph name="A" format="1">
  <advance width="612"/>
  <unicode hex="0041"/>
  <outline>
    <contour>
      <point x="419" y="174" type="line"/>
      <point x="138" y="174" type="line"/>
      <point x="53" y="0" type="line"/>
      <point x="-42" y="0" type="line"/>
      <point x="305" y="700" type="line"/>
      <point x="465" y="700" type="line"/>
      <point x="515" y="0" type="line"/>
      <point x="430" y="0" type="line"/>
    </contour>
    <contour>
      <point x="176" y="252" type="line"/>
      <point x="414" y="252" type="line"/>
      <point x="388" y="663" type="line"/>
      <point x="376" y="663" type="line"/>
    </contour>
  </outline>
</glyph>
<glyph name="D" format="1">
  <advance width="612"/>
  <unicode hex="0044"/>
  <outline>
    <contour>
      <point x="115" y="700" type="line"/>
      <point x="358" y="700" type="line"/>
      <point x="464" y="700"/>
      <point x="572" y="605"/>
      <point x="572" y="515" type="qcurve"/>
      <point x="572" y="496"/>
      <point x="567" y="456"/>
      <point x="562" y="434" type="qcurve"/>
      <point x="524" y="260" type="line"/>
      <point x="509" y="189"/>
      <point x="465" y="90"/>
      <point x="397" y="28"/>
      <point x="298" y="0"/>
      <point x="227" y="0" type="qcurve"/>
      <point x="0" y="0" type="line"/>
      <point x="0" y="78" type="line"/>
      <point x="66" y="78" type="line"/>
      <point x="181" y="622" type="line"/>
      <point x="115" y="622" type="line"/>
    </contour>
    <contour>
      <point x="226" y="78" type="line"/>
      <point x="272" y="78"/>
      <point x="343" y="96"/>
      <point x="395" y="139"/>
      <point x="431" y="211"/>
      <point x="442" y="266" type="qcurve"/>
      <point x="477" y="434" type="line"/>
      <point x="482" y="460"/>
      <point x="486" y="494"/>
      <point x="486" y="510" type="qcurve"/>
      <point x="486" y="574"/>
      <point x="414" y="622"/>
      <point x="341" y="622" type="qcurve"/>
      <point x="265" y="622" type="line"/>
      <point x="150" y="78" type="line"/>
    </contour>
  </outline>
</glyph>
<glyph name="F" format="1">
  <advance width="612"/>
  <unicode hex="0046"/>
  <outline>
    <contour>
      <point x="174" y="700" type="line"/>
      <point x="575" y="700" type="line"/>
      <point x="575" y="622" type="line"/>
      <point x="241" y="622" type="line"/>
      <point x="192" y="390" type="line"/>
      <point x="503" y="390" type="line"/>
      <point x="503" y="312" type="line"/>
      <point x="175" y="312" type="line"/>
      <point x="109" y="0" type="line"/>
      <point x="25" y="0" type="line"/>
    </contour>
  </outline>
</glyph>
<glyph name="G" format="1">
  <advance width="612"/>
  <unicode hex="0047"/>
  <outline>
    <contour>
      <point x="242" y="336" type="line"/>
      <point x="548" y="336" type="line"/>
      <point x="476" y="0" type="line"/>
      <point x="396" y="0" type="line"/>
      <point x="416" y="84" type="line"/>
      <point x="404" y="84" type="line"/>
      <point x="378" y="40"/>
      <point x="284" y="-14"/>
      <point x="223" y="-14" type="qcurve"/>
      <point x="181" y="-14"/>
      <point x="111" y="11"/>
      <point x="60" y="61"/>
      <point x="32" y="135"/>
      <point x="32" y="183" type="qcurve"/>
      <point x="32" y="203"/>
      <point x="36" y="245"/>
      <point x="42" y="272" type="qcurve"/>
      <point x="75" y="428" type="line"/>
      <point x="104" y="568"/>
      <point x="258" y="714"/>
      <point x="380" y="714" type="qcurve"/>
      <point x="428" y="714"/>
      <point x="503" y="685"/>
      <point x="554" y="633"/>
      <point x="581" y="562"/>
      <point x="581" y="520" type="qcurve"/>
      <point x="581" y="488"/>
      <point x="574" y="460" type="qcurve"/>
      <point x="571" y="448" type="line"/>
      <point x="487" y="448" type="line"/>
      <point x="490" y="460" type="line"/>
      <point x="497" y="488"/>
      <point x="497" y="516" type="qcurve"/>
      <point x="497" y="569"/>
      <point x="434" y="638"/>
      <point x="366" y="638" type="qcurve"/>
      <point x="325" y="638"/>
      <point x="258" y="606"/>
      <point x="205" y="549"/>
      <point x="168" y="470"/>
      <point x="158" y="422" type="qcurve"/>
      <point x="127" y="278" type="line"/>
      <point x="118" y="233"/>
      <point x="118" y="198" type="qcurve"/>
      <point x="118" y="132"/>
      <point x="180" y="62"/>
      <point x="245" y="62" type="qcurve"/>
      <point x="321" y="62"/>
      <point x="423" y="156"/>
      <point x="443" y="234" type="qcurve"/>
      <point x="449" y="258" type="line"/>
      <point x="242" y="258" type="line"/>
    </contour>
  </outline>
</glyph>
<glyph name="H" format="1">
  <advance width="612"/>
  <unicode hex="0048"/>
  <outline>
    <contour>
      <point x="156" y="700" type="line"/>
      <point x="242" y="700" type="line"/>
      <point x="176" y="390" type="line"/>
      <point x="452" y="390" type="line"/>
      <point x="518" y="700" type="line"/>
      <point x="604" y="700" type="line"/>
      <point x="455" y="0" type="line"/>
      <point x="369" y="0" type="line"/>
      <point x="435" y="312" type="line"/>
      <point x="159" y="312" type="line"/>
      <point x="93" y="0" type="line"/>
      <point x="8" y="0" type="line"/>
    </contour>
  </outline>
</glyph>
<glyph name="J" format="1">
  <advance width="612"/>
  <unicode hex="004A"/>
  <outline>
    <contour>
      <point x="622" y="622" type="line"/>
      <point x="556" y="622" type="line"/>
      <point x="467" y="206" type="line"/>
      <point x="456" y="154"/>
      <point x="417" y="73"/>
      <point x="356" y="16"/>
      <point x="272" y="-14"/>
      <point x="216" y="-14" type="qcurve"/>
      <point x="128" y="-14"/>
      <point x="30" y="78"/>
      <point x="30" y="155" type="qcurve"/>
      <point x="30" y="181"/>
      <point x="36" y="210" type="qcurve"/>
      <point x="48" y="264" type="line"/>
      <point x="132" y="264" type="line"/>
      <point x="120" y="210" type="line"/>
      <point x="114" y="183"/>
      <point x="114" y="160" type="qcurve"/>
      <point x="114" y="64"/>
      <point x="227" y="64" type="qcurve"/>
      <point x="297" y="64"/>
      <point x="370" y="145"/>
      <point x="384" y="210" type="qcurve"/>
      <point x="472" y="622" type="line"/>
      <point x="394" y="622" type="line"/>
      <point x="394" y="700" type="line"/>
      <point x="622" y="700" type="line"/>
    </contour>
  </outline>
</glyph>
<glyph name="P" format="1">
  <advance width="612"/>
  <unicode hex="0050"/>
  <outline>
    <contour>
      <point x="157" y="288" type="line"/>
      <point x="96" y="0" type="line"/>
      <point x="12" y="0" type="line"/>
      <point x="161" y="700" type="line"/>
      <point x="389" y="700" type="line"/>
      <point x="434" y="700"/>
      <point x="505" y="675"/>
      <point x="554" y="631"/>
      <point x="581" y="569"/>
      <point x="581" y="533" type="qcurve"/>
      <point x="581" y="481"/>
      <point x="545" y="391"/>
      <point x="476" y="325"/>
      <point x="378" y="288"/>
      <point x="317" y="288" type="qcurve"/>
    </contour>
    <contour>
      <point x="174" y="366" type="line"/>
      <point x="324" y="366" type="line"/>
      <point x="361" y="366"/>
      <point x="424" y="387"/>
      <point x="469" y="426"/>
      <point x="495" y="483"/>
      <point x="495" y="518" type="qcurve"/>
      <point x="495" y="571"/>
      <point x="434" y="622"/>
      <point x="377" y="622" type="qcurve"/>
      <point x="228" y="622" type="line"/>
    </contour>
  </outline>
</glyph>
<glyph name="S" format="1">
  <advance width="612"/>
  <unicode hex="0053"/>
  <outline>
    <contour>
      <point x="497" y="488" type="line"/>
      <point x="501" y="508"/>
      <point x="501" y="522" type="qcurve"/>
      <point x="501" y="551"/>
      <point x="479" y="594"/>
      <point x="440" y="622"/>
      <point x="389" y="636"/>
      <point x="360" y="636" type="qcurve"/>
      <point x="327" y="636"/>
      <point x="263" y="620"/>
      <point x="213" y="588"/>
      <point x="182" y="543"/>
      <point x="182" y="513" type="qcurve"/>
      <point x="182" y="484"/>
      <point x="205" y="445"/>
      <point x="249" y="418"/>
      <point x="312" y="401"/>
      <point x="353" y="394" type="qcurve"/>
      <point x="445" y="379"/>
      <point x="531" y="290"/>
      <point x="531" y="217" type="qcurve"/>
      <point x="531" y="161"/>
      <point x="488" y="75"/>
      <point x="412" y="16"/>
      <point x="309" y="-14"/>
      <point x="249" y="-14" type="qcurve"/>
      <point x="192" y="-14"/>
      <point x="105" y="15"/>
      <point x="48" y="67"/>
      <point x="19" y="138"/>
      <point x="19" y="181" type="qcurve"/>
      <point x="19" y="210"/>
      <point x="25" y="242" type="qcurve"/>
      <point x="31" y="272" type="line"/>
      <point x="115" y="272" type="line"/>
      <point x="110" y="248" type="line"/>
      <point x="104" y="218"/>
      <point x="104" y="193" type="qcurve"/>
      <point x="104" y="127"/>
      <point x="184" y="64"/>
      <point x="259" y="64" type="qcurve"/>
      <point x="295" y="64"/>
      <point x="362" y="84"/>
      <point x="413" y="121"/>
      <point x="444" y="174"/>
      <point x="444" y="207" type="qcurve"/>
      <point x="444" y="235"/>
      <point x="427" y="274"/>
      <point x="389" y="301"/>
      <point x="328" y="319"/>
      <point x="285" y="326" type="qcurve"/>
      <point x="243" y="333"/>
      <point x="174" y="359"/>
      <point x="124" y="401"/>
      <point x="96" y="460"/>
      <point x="96" y="500" type="qcurve"/>
      <point x="96" y="551"/>
      <point x="138" y="631"/>
      <point x="211" y="685"/>
      <point x="310" y="714"/>
      <point x="367" y="714" type="qcurve"/>
      <point x="419" y="714"/>
      <point x="501" y="686"/>
      <point x="557" y="638"/>
      <point x="587" y="574"/>
      <point x="587" y="538" type="qcurve"/>
      <point x="587" y="528"/>
      <point x="585" y="508"/>
      <point x="583" y="498" type="qcurve"/>
      <point x="575" y="462" type="line"/>
      <point x="491" y="462" type="line"/>
    </contour>
  </outline>
</glyph>
<glyph name="V" format="1">
  <advance width="612"/>
  <unicode hex="0056"/>
  <outline>
    <contour>
      <point x="102" y="700" type="line"/>
      <point x="186" y="700" type="line"/>
      <point x="216" y="36" type="line"/>
      <point x="228" y="36" type="line"/>
      <point x="540" y="700" type="line"/>
      <point x="635" y="700" type="line"/>
      <point x="300" y="0" type="line"/>
      <point x="139" y="0" type="line"/>
    </contour>
  </outline>
</glyph>
<glyph name="W" format="1">
  <advance width="612"/>
  <unicode hex="0057"/>
  <outline>
    <contour>
      <point x="450" y="0" type="line"/>
      <point x="296" y="0" type="line"/>
      <point x="377" y="664" type="line"/>
      <point x="365" y="664" type="line"/>
      <point x="166" y="0" type="line"/>
      <point x="12" y="0" type="line"/>
      <point x="95" y="700" type="line"/>
      <point x="171" y="700" type="line"/>
      <point x="92" y="36" type="line"/>
      <point x="104" y="36" type="line"/>
      <point x="300" y="700" type="line"/>
      <point x="456" y="700" type="line"/>
      <point x="372" y="36" type="line"/>
      <point x="384" y="36" type="line"/>
      <point x="586" y="700" type="line"/>
      <point x="664" y="700" type="line"/>
    </contour>
  </outline>
</glyph>
<glyph name="backslash" format="1">
  <advance width="612"/>
  <unicode hex="005C"/>
  <outline>
    <contour>
      <point x="397" y="-97" type="line"/>
      <point x="324" y="-106" type="line"/>
      <point x="220" y="797" type="line"/>
      <point x="292" y="806" type="line"/>
    </contour>
  </outline>
</glyph>
<glyph name="grave" format="1">
  <advance width="612"/>
  <unicode hex="0060"/>
  <outline>
    <contour>
      <point x="376" y="688" type="line"/>
      <point x="417" y="570" type="line"/>
      <point x="351" y="570" type="line"/>
      <point x="292" y="688" type="line"/>
    </contour>
  </outline>
</glyph>
<glyph name="a" format="1">
  <advance width="612"/>
  <unicode hex="0061"/>
  <outline>
    <contour>
      <point x="347" y="78" type="line"/>
      <point x="316" y="25"/>
      <point x="231" y="-14"/>
      <point x="184" y="-14" type="qcurve"/>
      <point x="144" y="-14"/>
      <point x="80" y="15"/>
      <point x="36" y="67"/>
      <point x="12" y="140"/>
      <point x="12" y="184" type="qcurve"/>
      <point x="12" y="247"/>
      <point x="48" y="365"/>
      <point x="117" y="455"/>
      <point x="219" y="510"/>
      <point x="286" y="510" type="qcurve"/>
      <point x="337" y="510"/>
      <point x="409" y="463"/>
      <point x="420" y="418" type="qcurve"/>
      <point x="432" y="418" type="line"/>
      <point x="448" y="496" type="line"/>
      <point x="526" y="496" type="line"/>
      <point x="438" y="84" type="line"/>
      <point x="436" y="75"/>
      <point x="444" y="66"/>
      <point x="451" y="66" type="qcurve"/>
      <point x="458" y="66"/>
      <point x="465" y="71" type="qcurve"/>
      <point x="501" y="97" type="line"/>
      <point x="543" y="38" type="line"/>
      <point x="498" y="4" type="line"/>
      <point x="487" y="-4"/>
      <point x="454" y="-14"/>
      <point x="437" y="-14" type="qcurve"/>
      <point x="422" y="-14"/>
      <point x="394" y="-6"/>
      <point x="371" y="11"/>
      <point x="357" y="38"/>
      <point x="357" y="58" type="qcurve"/>
      <point x="357" y="63"/>
      <point x="358" y="73"/>
      <point x="359" y="78" type="qcurve"/>
    </contour>
    <contour>
      <point x="208" y="60" type="qcurve"/>
      <point x="248" y="60"/>
      <point x="319" y="97"/>
      <point x="372" y="161"/>
      <point x="402" y="248"/>
      <point x="402" y="299" type="qcurve"/>
      <point x="402" y="361"/>
      <point x="346" y="436"/>
      <point x="287" y="436" type="qcurve"/>
      <point x="240" y="436"/>
      <point x="169" y="396"/>
      <point x="119" y="329"/>
      <point x="94" y="241"/>
      <point x="94" y="194" type="qcurve"/>
      <point x="94" y="128"/>
      <point x="152" y="60"/>
    </contour>
  </outline>
</glyph>
<glyph name="c" format="1">
  <advance width="612"/>
  <unicode hex="0063"/>
  <outline>
    <contour>
      <point x="510" y="170" type="line"/>
      <point x="497" y="132"/>
      <point x="451" y="65"/>
      <point x="382" y="15"/>
      <point x="291" y="-14"/>
      <point x="234" y="-14" type="qcurve"/>
      <point x="187" y="-14"/>
      <point x="110" y="15"/>
      <point x="56" y="69"/>
      <point x="26" y="145"/>
      <point x="26" y="192" type="qcurve"/>
      <point x="26" y="257"/>
      <point x="71" y="373"/>
      <point x="153" y="460"/>
      <point x="269" y="510"/>
      <point x="340" y="510" type="qcurve"/>
      <point x="386" y="510"/>
      <point x="460" y="484"/>
      <point x="512" y="437"/>
      <point x="540" y="372"/>
      <point x="540" y="333" type="qcurve"/>
      <point x="540" y="331"/>
      <point x="540" y="326"/>
      <point x="539" y="318" type="qcurve"/>
      <point x="459" y="306" type="line"/>
      <point x="460" y="312"/>
      <point x="460" y="318"/>
      <point x="460" y="322" type="qcurve"/>
      <point x="460" y="346"/>
      <point x="445" y="387"/>
      <point x="412" y="418"/>
      <point x="361" y="436"/>
      <point x="326" y="436" type="qcurve"/>
      <point x="279" y="436"/>
      <point x="200" y="398"/>
      <point x="141" y="333"/>
      <point x="108" y="247"/>
      <point x="108" y="200" type="qcurve"/>
      <point x="108" y="129"/>
      <point x="184" y="60"/>
      <point x="250" y="60" type="qcurve"/>
      <point x="290" y="60"/>
      <point x="352" y="83"/>
      <point x="398" y="120"/>
      <point x="428" y="168"/>
      <point x="436" y="194" type="qcurve"/>
    </contour>
  </outline>
</glyph>
<glyph name="e" format="1">
  <advance width="612"/>
  <unicode hex="0065"/>
  <outline>
    <contour>
      <point x="112" y="224" type="line"/>
      <point x="110" y="216"/>
      <point x="108" y="196"/>
      <point x="108" y="185" type="qcurve"/>
      <point x="108" y="130"/>
      <point x="172" y="59"/>
      <point x="242" y="59" type="qcurve"/>
      <point x="277" y="59"/>
      <point x="332" y="75"/>
      <point x="372" y="104"/>
      <point x="401" y="141"/>
      <point x="411" y="162" type="qcurve"/>
      <point x="475" y="126" type="line"/>
      <point x="461" y="97"/>
      <point x="419" y="46"/>
      <point x="361" y="8"/>
      <point x="285" y="-14"/>
      <point x="236" y="-14" type="qcurve"/>
      <point x="191" y="-14"/>
      <point x="116" y="13"/>
      <point x="62" y="64"/>
      <point x="32" y="138"/>
      <point x="32" y="185" type="qcurve"/>
      <point x="32" y="248"/>
      <point x="72" y="365"/>
      <point x="148" y="455"/>
      <point x="260" y="510"/>
      <point x="331" y="510" type="qcurve"/>
      <point x="381" y="510"/>
      <point x="455" y="479"/>
      <point x="503" y="426"/>
      <point x="527" y="359"/>
      <point x="527" y="323" type="qcurve"/>
      <point x="527" y="296"/>
      <point x="521" y="271" type="qcurve"/>
      <point x="510" y="224" type="line"/>
    </contour>
    <contour>
      <point x="321" y="436" type="qcurve"/>
      <point x="286" y="436"/>
      <point x="225" y="415"/>
      <point x="175" y="377"/>
      <point x="139" y="326"/>
      <point x="129" y="296" type="qcurve"/>
      <point x="447" y="296" type="line"/>
      <point x="450" y="312"/>
      <point x="450" y="326" type="qcurve"/>
      <point x="450" y="380"/>
      <point x="376" y="436"/>
    </contour>
  </outline>
</glyph>
<glyph name="f" format="1">
  <advance width="612"/>
  <unicode hex="0066"/>
  <outline>
    <contour>
      <point x="526" y="496" type="line"/>
      <point x="526" y="424" type="line"/>
      <point x="337" y="424" type="line"/>
      <point x="217" y="-138" type="line"/>
      <point x="209" y="-176"/>
      <point x="162" y="-212"/>
      <point x="134" y="-212" type="qcurve"/>
      <point x="102" y="-212"/>
      <point x="63" y="-186"/>
      <point x="49" y="-164" type="qcurve"/>
      <point x="5" y="-93" type="line"/>
      <point x="66" y="-54" type="line"/>
      <point x="108" y="-121" type="line"/>
      <point x="115" y="-133"/>
      <point x="126" y="-133" type="qcurve"/>
      <point x="134" y="-133"/>
      <point x="141" y="-124"/>
      <point x="143" y="-118" type="qcurve"/>
      <point x="259" y="424" type="line"/>
      <point x="106" y="424" type="line"/>
      <point x="106" y="496" type="line"/>
      <point x="275" y="496" type="line"/>
      <point x="301" y="622" type="line"/>
      <point x="309" y="656"/>
      <point x="361" y="700"/>
      <point x="395" y="700" type="qcurve"/>
      <point x="574" y="700" type="line"/>
      <point x="574" y="628" type="line"/>
      <point x="408" y="628" type="line"/>
      <point x="380" y="628"/>
      <point x="374" y="598" type="qcurve"/>
      <point x="353" y="496" type="line"/>
    </contour>
  </outline>
</glyph>
<glyph name="n" format="1">
  <advance width="612"/>
  <unicode hex="006E"/>
  <outline>
    <contour>
      <point x="413" y="298" type="line"/>
      <point x="416" y="312"/>
      <point x="418" y="331"/>
      <point x="418" y="341" type="qcurve"/>
      <point x="418" y="389"/>
      <point x="361" y="436"/>
      <point x="310" y="436" type="qcurve"/>
      <point x="242" y="436"/>
      <point x="156" y="339"/>
      <point x="140" y="264" type="qcurve"/>
      <point x="84" y="0" type="line"/>
      <point x="6" y="0" type="line"/>
      <point x="112" y="496" type="line"/>
      <point x="190" y="496" type="line"/>
      <point x="175" y="424" type="line"/>
      <point x="187" y="424" type="line"/>
      <point x="212" y="469"/>
      <point x="293" y="510"/>
      <point x="338" y="510" type="qcurve"/>
      <point x="370" y="510"/>
      <point x="428" y="489"/>
      <point x="471" y="449"/>
      <point x="496" y="391"/>
      <point x="496" y="353" type="qcurve"/>
      <point x="496" y="328"/>
      <point x="490" y="300" type="qcurve"/>
      <point x="442" y="78" type="line"/>
      <point x="440" y="70"/>
      <point x="448" y="62"/>
      <point x="454" y="62" type="qcurve"/>
      <point x="460" y="62"/>
      <point x="465" y="66" type="qcurve"/>
      <point x="507" y="97" type="line"/>
      <point x="549" y="38" type="line"/>
      <point x="510" y="9" type="line"/>
      <point x="480" y="-14"/>
      <point x="443" y="-14" type="qcurve"/>
      <point x="428" y="-14"/>
      <point x="400" y="-7"/>
      <point x="378" y="10"/>
      <point x="364" y="38"/>
      <point x="364" y="59" type="qcurve"/>
      <point x="364" y="72"/>
      <point x="368" y="91" type="qcurve"/>
    </contour>
  </outline>
</glyph>
<glyph name="o" format="1">
  <advance width="612"/>
  <unicode hex="006F"/>
  <outline>
    <contour>
      <point x="329" y="510" type="qcurve"/>
      <point x="372" y="510"/>
      <point x="446" y="480"/>
      <point x="500" y="426"/>
      <point x="531" y="351"/>
      <point x="531" y="306" type="qcurve"/>
      <point x="531" y="244"/>
      <point x="490" y="129"/>
      <point x="411" y="40"/>
      <point x="296" y="-14"/>
      <point x="223" y="-14" type="qcurve"/>
      <point x="181" y="-14"/>
      <point x="107" y="15"/>
      <point x="52" y="67"/>
      <point x="20" y="142"/>
      <point x="20" y="188" type="qcurve"/>
      <point x="20" y="260"/>
      <point x="69" y="379"/>
      <point x="154" y="463"/>
      <point x="266" y="510"/>
    </contour>
    <contour>
      <point x="240" y="60" type="qcurve"/>
      <point x="286" y="60"/>
      <point x="364" y="101"/>
      <point x="420" y="168"/>
      <point x="451" y="254"/>
      <point x="451" y="300" type="qcurve"/>
      <point x="451" y="359"/>
      <point x="378" y="436"/>
      <point x="312" y="436" type="qcurve"/>
      <point x="269" y="436"/>
      <point x="193" y="398"/>
      <point x="136" y="332"/>
      <point x="102" y="245"/>
      <point x="102" y="196" type="qcurve"/>
      <point x="102" y="136"/>
      <point x="174" y="60"/>
    </contour>
  </outline>
</glyph>
<glyph name="p" format="1">
  <advance width="612"/>
  <unicode hex="0070"/>
  <outline>
    <contour>
      <point x="77" y="-200" type="line"/>
      <point x="0" y="-200" type="line"/>
      <point x="131" y="421" type="line"/>
      <point x="133" y="432"/>
      <point x="125" y="441"/>
      <point x="117" y="441" type="qcurve"/>
      <point x="112" y="441"/>
      <point x="108" y="438" type="qcurve"/>
      <point x="53" y="400" type="line"/>
      <point x="13" y="459" type="line"/>
      <point x="60" y="491" type="line"/>
      <point x="88" y="510"/>
      <point x="121" y="510" type="qcurve"/>
      <point x="161" y="510"/>
      <point x="208" y="466"/>
      <point x="208" y="424" type="qcurve"/>
      <point x="208" y="418" type="line"/>
      <point x="220" y="418" type="line"/>
      <point x="250" y="463"/>
      <point x="335" y="510"/>
      <point x="394" y="510" type="qcurve"/>
      <point x="435" y="510"/>
      <point x="504" y="481"/>
      <point x="553" y="430"/>
      <point x="581" y="359"/>
      <point x="581" y="318" type="qcurve"/>
      <point x="581" y="252"/>
      <point x="546" y="132"/>
      <point x="476" y="40"/>
      <point x="372" y="-14"/>
      <point x="302" y="-14" type="qcurve"/>
      <point x="246" y="-14"/>
      <point x="165" y="37"/>
      <point x="148" y="76" type="qcurve"/>
      <point x="136" y="76" type="line"/>
    </contour>
    <contour>
      <point x="292" y="60" type="qcurve"/>
      <point x="341" y="60"/>
      <point x="418" y="100"/>
      <point x="471" y="167"/>
      <point x="498" y="255"/>
      <point x="498" y="302" type="qcurve"/>
      <point x="498" y="368"/>
      <point x="429" y="436"/>
      <point x="372" y="436" type="qcurve"/>
      <point x="326" y="436"/>
      <point x="251" y="394"/>
      <point x="197" y="326"/>
      <point x="167" y="240"/>
      <point x="167" y="195" type="qcurve"/>
      <point x="167" y="131"/>
      <point x="233" y="60"/>
    </contour>
  </outline>
</glyph>
<glyph name="q" format="1">
  <advance width="612"/>
  <unicode hex="0071"/>
  <outline>
    <contour>
      <point x="391" y="70" type="line"/>
      <point x="379" y="70" type="line"/>
      <point x="350" y="28"/>
      <point x="263" y="-14"/>
      <point x="211" y="-14" type="qcurve"/>
      <point x="168" y="-14"/>
      <point x="97" y="15"/>
      <point x="47" y="67"/>
      <point x="20" y="141"/>
      <point x="20" y="186" type="qcurve"/>
      <point x="20" y="255"/>
      <point x="61" y="373"/>
      <point x="136" y="460"/>
      <point x="241" y="510"/>
      <point x="304" y="510" type="qcurve"/>
      <point x="363" y="510"/>
      <point x="440" y="459"/>
      <point x="452" y="418" type="qcurve"/>
      <point x="464" y="418" type="line"/>
      <point x="481" y="496" type="line"/>
      <point x="559" y="496" type="line"/>
      <point x="430" y="-111" type="line"/>
      <point x="427" y="-123"/>
      <point x="438" y="-137"/>
      <point x="447" y="-137" type="qcurve"/>
      <point x="454" y="-137"/>
      <point x="462" y="-132" type="qcurve"/>
      <point x="514" y="-97" type="line"/>
      <point x="554" y="-156" type="line"/>
      <point x="502" y="-191" type="line"/>
      <point x="470" y="-212"/>
      <point x="436" y="-212" type="qcurve"/>
      <point x="402" y="-212"/>
      <point x="352" y="-170"/>
      <point x="352" y="-128" type="qcurve"/>
      <point x="352" y="-115"/>
      <point x="355" y="-98" type="qcurve"/>
    </contour>
    <contour>
      <point x="228" y="60" type="qcurve"/>
      <point x="274" y="60"/>
      <point x="350" y="101"/>
      <point x="405" y="168"/>
      <point x="435" y="254"/>
      <point x="435" y="298" type="qcurve"/>
      <point x="435" y="360"/>
      <point x="365" y="436"/>
      <point x="306" y="436" type="qcurve"/>
      <point x="259" y="436"/>
      <point x="183" y="396"/>
      <point x="130" y="329"/>
      <point x="101" y="241"/>
      <point x="101" y="194" type="qcurve"/>
      <point x="101" y="132"/>
      <point x="166" y="60"/>
    </contour>
  </outline>
</glyph>
<glyph name="r" format="1">
  <advance width="612"/>
  <unicode hex="0072"/>
  <outline>
    <contour>
      <point x="194" y="410" type="line"/>
      <point x="197" y="422"/>
      <point x="185" y="435"/>
      <point x="176" y="435" type="qcurve"/>
      <point x="168" y="435"/>
      <point x="161" y="430" type="qcurve"/>
      <point x="70" y="368" type="line"/>
      <point x="30" y="427" type="line"/>
      <point x="119" y="487" type="line"/>
      <point x="153" y="510"/>
      <point x="188" y="510" type="qcurve"/>
      <point x="219" y="510"/>
      <point x="265" y="475"/>
      <point x="268" y="436" type="qcurve"/>
      <point x="280" y="436" type="line"/>
      <point x="309" y="477"/>
      <point x="381" y="510"/>
      <point x="420" y="510" type="qcurve"/>
      <point x="492" y="510"/>
      <point x="574" y="427"/>
      <point x="574" y="359" type="qcurve"/>
      <point x="574" y="333"/>
      <point x="568" y="306" type="qcurve"/>
      <point x="483" y="300" type="line"/>
      <point x="488" y="325"/>
      <point x="488" y="342" type="qcurve"/>
      <point x="488" y="390"/>
      <point x="435" y="436"/>
      <point x="393" y="436" type="qcurve"/>
      <point x="363" y="436"/>
      <point x="314" y="413"/>
      <point x="278" y="374"/>
      <point x="253" y="322"/>
      <point x="247" y="294" type="qcurve"/>
      <point x="200" y="72" type="line"/>
      <point x="318" y="72" type="line"/>
      <point x="318" y="0" type="line"/>
      <point x="0" y="0" type="line"/>
      <point x="0" y="72" type="line"/>
      <point x="122" y="72" type="line"/>
    </contour>
  </outline>
</glyph>
<glyph name="y" format="1">
  <advance width="612"/>
  <unicode hex="0079"/>
  <outline>
    <contour>
      <point x="190" y="210" type="line"/>
      <point x="183" y="179"/>
      <point x="183" y="152" type="qcurve"/>
      <point x="183" y="60"/>
      <point x="282" y="60" type="qcurve"/>
      <point x="351" y="60"/>
      <point x="449" y="157"/>
      <point x="466" y="238" type="qcurve"/>
      <point x="520" y="496" type="line"/>
      <point x="598" y="496" type="line"/>
      <point x="467" y="-122" type="line"/>
      <point x="460" y="-156"/>
      <point x="408" y="-200"/>
      <point x="374" y="-200" type="qcurve"/>
      <point x="103" y="-200" type="line"/>
      <point x="103" y="-128" type="line"/>
      <point x="361" y="-128" type="line"/>
      <point x="388" y="-128"/>
      <point x="394" y="-98" type="qcurve"/>
      <point x="432" y="78" type="line"/>
      <point x="420" y="78" type="line"/>
      <point x="390" y="33"/>
      <point x="307" y="-14"/>
      <point x="250" y="-14" type="qcurve"/>
      <point x="183" y="-14"/>
      <point x="103" y="66"/>
      <point x="103" y="139" type="qcurve"/>
      <point x="103" y="169"/>
      <point x="110" y="200" type="qcurve"/>
      <point x="155" y="414" type="line"/>
      <point x="157" y="424"/>
      <point x="148" y="435"/>
      <point x="141" y="435" type="qcurve"/>
      <point x="135" y="435"/>
      <point x="128" y="430" type="qcurve"/>
      <point x="77" y="395" type="line"/>
      <point x="37" y="454" type="line"/>
      <point x="89" y="489" type="line"/>
      <point x="120" y="510"/>
      <point x="152" y="510" type="qcurve"/>
      <point x="185" y="510"/>
      <point x="233" y="466"/>
      <point x="233" y="427" type="qcurve"/>
      <point x="233" y="421"/>
      <point x="232" y="410"/>
      <point x="230" y="401" type="qcurve"/>
    </contour>
  </outline>
</glyph>
<glyph name="z" format="1">
  <advance width="612"/>
  <unicode hex="007A"/>
  <outline>
    <contour>
      <point x="485" y="72" type="line"/>
      <point x="485" y="0" type="line"/>
      <point x="64" y="0" type="line"/>
      <point x="64" y="130" type="line"/>
      <point x="472" y="412" type="line"/>
      <point x="472" y="424" type="line"/>
      <point x="134" y="424" type="line"/>
      <point x="134" y="496" type="line"/>
      <point x="538" y="496" type="line"/>
      <point x="538" y="370" type="line"/>
      <point x="130" y="84" type="line"/>
      <point x="130" y="72" type="line"/>
    </contour>
  </outline>
</glyph>
<glyph name="braceright" format="1">
  <advance width="612"/>
  <unicode hex="007D"/>
  <outline>
    <contour>
      <point x="239" y="-78" type="line"/>
      <point x="231" y="-116"/>
      <point x="185" y="-156"/>
      <point x="145" y="-156" type="qcurve"/>
      <point x="63" y="-156" type="line"/>
      <point x="63" y="-84" type="line"/>
      <point x="132" y="-84" type="line"/>
      <point x="160" y="-84"/>
      <point x="166" y="-54" type="qcurve"/>
      <point x="236" y="266" type="line"/>
      <point x="244" y="302"/>
      <point x="292" y="344"/>
      <point x="330" y="344" type="qcurve"/>
      <point x="345" y="344" type="line"/>
      <point x="345" y="356" type="line"/>
      <point x="333" y="356" type="line"/>
      <point x="306" y="356"/>
      <point x="272" y="388"/>
      <point x="272" y="417" type="qcurve"/>
      <point x="272" y="422"/>
      <point x="272" y="430"/>
      <point x="274" y="438" type="qcurve"/>
      <point x="343" y="755" type="line"/>
      <point x="344" y="760"/>
      <point x="344" y="764" type="qcurve"/>
      <point x="344" y="784"/>
      <point x="319" y="784" type="qcurve"/>
      <point x="254" y="784" type="line"/>
      <point x="254" y="856" type="line"/>
      <point x="340" y="856" type="line"/>
      <point x="376" y="856"/>
      <point x="424" y="821"/>
      <point x="424" y="783" type="qcurve"/>
      <point x="424" y="775"/>
      <point x="423" y="762"/>
      <point x="421" y="754" type="qcurve"/>
      <point x="351" y="433" type="line"/>
      <point x="350" y="428"/>
      <point x="350" y="423" type="qcurve"/>
      <point x="350" y="404"/>
      <point x="372" y="404" type="qcurve"/>
      <point x="411" y="404" type="line"/>
      <point x="411" y="296" type="line"/>
      <point x="347" y="296" type="line"/>
      <point x="320" y="296"/>
      <point x="314" y="267" type="qcurve"/>
    </contour>
  </outline>
</glyph>
<glyph name="sterling" format="1">
  <advance width="612"/>
  <unicode hex="00A3"/>
  <outline>
    <contour>
      <point x="240" y="366" type="line"/>
      <point x="315" y="366" type="line"/>
      <point x="315" y="294" type="line"/>
      <point x="225" y="294" type="line"/>
      <point x="200" y="174" type="line"/>
      <point x="426" y="174" type="line"/>
      <point x="426" y="102" type="line"/>
      <point x="62" y="102" type="line"/>
      <point x="62" y="174" type="line"/>
      <point x="122" y="174" type="line"/>
      <point x="147" y="294" type="line"/>
      <point x="103" y="294" type="line"/>
      <point x="103" y="366" type="line"/>
      <point x="162" y="366" type="line"/>
      <point x="178" y="440" type="line"/>
      <point x="197" y="529"/>
      <point x="298" y="612"/>
      <point x="373" y="612" type="qcurve"/>
      <point x="404" y="612"/>
      <point x="455" y="593"/>
      <point x="492" y="557"/>
      <point x="512" y="508"/>
      <point x="512" y="478" type="qcurve"/>
      <point x="512" y="469"/>
      <point x="510" y="450"/>
      <point x="508" y="440" type="qcurve"/>
      <point x="503" y="416" type="line"/>
      <point x="427" y="416" type="line"/>
      <point x="432" y="440" type="line"/>
      <point x="435" y="455"/>
      <point x="435" y="468" type="qcurve"/>
      <point x="435" y="505"/>
      <point x="393" y="540"/>
      <point x="361" y="540" type="qcurve"/>
      <point x="323" y="540"/>
      <point x="267" y="494"/>
      <point x="256" y="440" type="qcurve"/>
    </contour>
  </outline>
</glyph>
<glyph name="currency" format="1">
  <advance width="612"/>
  <unicode hex="00A4"/>
  <outline>
    <contour>
      <point x="3" y="151" type="line"/>
      <point x="70" y="208" type="line"/>
      <point x="49" y="250"/>
      <point x="49" y="304" type="qcurve"/>
      <point x="49" y="364"/>
      <point x="91" y="467"/>
      <point x="129" y="507" type="qcurve"/>
      <point x="89" y="557" type="line"/>
      <point x="154" y="610" type="line"/>
      <point x="194" y="558" type="line"/>
      <point x="229" y="578"/>
      <point x="307" y="600"/>
      <point x="350" y="600" type="qcurve"/>
      <point x="392" y="600"/>
      <point x="463" y="575"/>
      <point x="490" y="552" type="qcurve"/>
      <point x="560" y="610" type="line"/>
      <point x="609" y="549" type="line"/>
      <point x="540" y="490" type="line"/>
      <point x="550" y="470"/>
      <point x="561" y="424"/>
      <point x="561" y="398" type="qcurve"/>
      <point x="561" y="336"/>
      <point x="520" y="231"/>
      <point x="483" y="191" type="qcurve"/>
      <point x="522" y="143" type="line"/>
      <point x="457" y="90" type="line"/>
      <point x="417" y="140" type="line"/>
      <point x="348" y="100"/>
      <point x="259" y="100" type="qcurve"/>
      <point x="173" y="100"/>
      <point x="119" y="145" type="qcurve"/>
      <point x="52" y="90" type="line"/>
    </contour>
    <contour>
      <point x="341" y="522" type="qcurve"/>
      <point x="298" y="522"/>
      <point x="221" y="488"/>
      <point x="163" y="431"/>
      <point x="129" y="355"/>
      <point x="129" y="312" type="qcurve"/>
      <point x="129" y="250"/>
      <point x="205" y="178"/>
      <point x="268" y="178" type="qcurve"/>
      <point x="311" y="178"/>
      <point x="388" y="210"/>
      <point x="447" y="267"/>
      <point x="481" y="342"/>
      <point x="481" y="386" type="qcurve"/>
      <point x="481" y="445"/>
      <point x="407" y="522"/>
    </contour>
  </outline>
</glyph>
<glyph name="brokenbar" format="1">
  <advance width="612"/>
  <unicode hex="00A6"/>
  <outline>
    <contour>
      <point x="336" y="314" type="line"/>
      <point x="232" y="-156" type="line"/>
      <point x="158" y="-156" type="line"/>
      <point x="262" y="314" type="line"/>
    </contour>
    <contour>
      <point x="278" y="386" type="line"/>
      <point x="382" y="856" type="line"/>
      <point x="456" y="856" type="line"/>
      <point x="352" y="386" type="line"/>
    </contour>
  </outline>
</glyph>
<glyph name="dieresis" format="1">
  <advance width="612"/>
  <unicode hex="00A8"/>
  <outline>
    <contour>
      <point x="136" y="644" type="qcurve"/>
      <point x="136" y="673"/>
      <point x="177" y="714"/>
      <point x="206" y="714" type="qcurve"/>
      <point x="235" y="714"/>
      <point x="276" y="673"/>
      <point x="276" y="644" type="qcurve"/>
      <point x="276" y="615"/>
      <point x="235" y="574"/>
      <point x="206" y="574" type="qcurve"/>
      <point x="177" y="574"/>
      <point x="136" y="615"/>
    </contour>
    <contour>
      <point x="336" y="644" type="qcurve"/>
      <point x="336" y="673"/>
      <point x="377" y="714"/>
      <point x="406" y="714" type="qcurve"/>
      <point x="435" y="714"/>
      <point x="476" y="673"/>
      <point x="476" y="644" type="qcurve"/>
      <point x="476" y="615"/>
      <point x="435" y="574"/>
      <point x="406" y="574" type="qcurve"/>
      <point x="377" y="574"/>
      <point x="336" y="615"/>
    </contour>
  </outline>
</glyph>
<glyph name="copyright" format="1">
  <advance width="612"/>
  <unicode hex="00A9"/>
  <outline>
    <contour>
      <point x="58" y="556" type="qcurve"/>
      <point x="58" y="607"/>
      <point x="97" y="698"/>
      <point x="164" y="765"/>
      <point x="255" y="804"/>
      <point x="306" y="804" type="qcurve"/>
      <point x="357" y="804"/>
      <point x="448" y="765"/>
      <point x="515" y="698"/>
      <point x="554" y="607"/>
      <point x="554" y="556" type="qcurve"/>
      <point x="554" y="505"/>
      <point x="515" y="414"/>
      <point x="448" y="347"/>
      <point x="357" y="308"/>
      <point x="306" y="308" type="qcurve"/>
      <point x="255" y="308"/>
      <point x="164" y="347"/>
      <point x="97" y="414"/>
      <point x="58" y="505"/>
    </contour>
    <contour>
      <point x="106" y="556" type="qcurve"/>
      <point x="106" y="514"/>
      <point x="137" y="441"/>
      <point x="191" y="387"/>
      <point x="264" y="356"/>
      <point x="306" y="356" type="qcurve"/>
      <point x="348" y="356"/>
      <point x="421" y="387"/>
      <point x="475" y="441"/>
      <point x="506" y="514"/>
      <point x="506" y="556" type="qcurve"/>
      <point x="506" y="598"/>
      <point x="475" y="671"/>
      <point x="421" y="725"/>
      <point x="348" y="756"/>
      <point x="306" y="756" type="qcurve"/>
      <point x="264" y="756"/>
      <point x="191" y="725"/>
      <point x="137" y="671"/>
      <point x="106" y="598"/>
    </contour>
    <contour>
      <point x="306" y="454" type="qcurve"/>
      <point x="329" y="454"/>
      <point x="355" y="483"/>
      <point x="355" y="505" type="qcurve"/>
      <point x="355" y="523" type="line"/>
      <point x="409" y="523" type="line"/>
      <point x="409" y="511" type="line"/>
      <point x="409" y="465"/>
      <point x="357" y="406"/>
      <point x="306" y="406" type="qcurve"/>
      <point x="256" y="406"/>
      <point x="201" y="465"/>
      <point x="201" y="511" type="qcurve"/>
      <point x="201" y="601" type="line"/>
      <point x="201" y="647"/>
      <point x="257" y="706"/>
      <point x="306" y="706" type="qcurve"/>
      <point x="357" y="706"/>
      <point x="409" y="647"/>
      <point x="409" y="601" type="qcurve"/>
      <point x="409" y="589" type="line"/>
      <point x="355" y="589" type="line"/>
      <point x="355" y="607" type="line"/>
      <point x="355" y="629"/>
      <point x="329" y="658"/>
      <point x="306" y="658" type="qcurve"/>
      <point x="283" y="658"/>
      <point x="255" y="629"/>
      <point x="255" y="607" type="qcurve"/>
      <point x="255" y="505" type="line"/>
      <point x="255" y="483"/>
      <point x="283" y="454"/>
    </contour>
  </outline>
</glyph>
<glyph name="ordfeminine" format="1">
  <advance width="612"/>
  <unicode hex="00AA"/>
  <outline>
    <contour>
      <point x="384" y="452" type="line"/>
      <point x="359" y="406"/>
      <point x="291" y="406" type="qcurve"/>
      <point x="246" y="406"/>
      <point x="186" y="463"/>
      <point x="186" y="520" type="qcurve"/>
      <point x="186" y="554"/>
      <point x="206" y="621"/>
      <point x="247" y="674"/>
      <point x="309" y="706"/>
      <point x="352" y="706" type="qcurve"/>
      <point x="385" y="706"/>
      <point x="422" y="684"/>
      <point x="430" y="666" type="qcurve"/>
      <point x="436" y="666" type="line"/>
      <point x="443" y="698" type="line"/>
      <point x="509" y="698" type="line"/>
      <point x="464" y="489" type="line"/>
      <point x="461" y="472"/>
      <point x="477" y="472" type="qcurve"/>
      <point x="492" y="472" type="line"/>
      <point x="492" y="412" type="line"/>
      <point x="431" y="412" type="line"/>
      <point x="413" y="412"/>
      <point x="390" y="429"/>
      <point x="390" y="446" type="qcurve"/>
      <point x="390" y="452" type="line"/>
    </contour>
    <contour>
      <point x="315" y="466" type="qcurve"/>
      <point x="337" y="466"/>
      <point x="375" y="486"/>
      <point x="401" y="519"/>
      <point x="416" y="561"/>
      <point x="416" y="584" type="qcurve"/>
      <point x="416" y="615"/>
      <point x="383" y="646"/>
      <point x="354" y="646" type="qcurve"/>
      <point x="331" y="646"/>
      <point x="294" y="627"/>
      <point x="268" y="594"/>
      <point x="254" y="551"/>
      <point x="254" y="528" type="qcurve"/>
      <point x="254" y="501"/>
      <point x="284" y="466"/>
    </contour>
  </outline>
</glyph>
<glyph name="macron" format="1">
  <advance width="612"/>
  <unicode hex="00AF"/>
  <outline>
    <contour>
      <point x="447" y="570" type="line"/>
      <point x="165" y="570" type="line"/>
      <point x="165" y="636" type="line"/>
      <point x="447" y="636" type="line"/>
    </contour>
  </outline>
</glyph>
<glyph name="degree" format="1">
  <advance width="612"/>
  <unicode hex="00B0"/>
  <outline>
    <contour>
      <point x="210" y="569" type="qcurve"/>
      <point x="210" y="599"/>
      <point x="233" y="652"/>
      <point x="272" y="691"/>
      <point x="325" y="714"/>
      <point x="355" y="714" type="qcurve"/>
      <point x="385" y="714"/>
      <point x="438" y="691"/>
      <point x="477" y="652"/>
      <point x="500" y="599"/>
      <point x="500" y="569" type="qcurve"/>
      <point x="500" y="539"/>
      <point x="477" y="486"/>
      <point x="438" y="447"/>
      <point x="385" y="424"/>
      <point x="355" y="424" type="qcurve"/>
      <point x="325" y="424"/>
      <point x="272" y="447"/>
      <point x="233" y="486"/>
      <point x="210" y="539"/>
    </contour>
    <contour>
      <point x="282" y="569" type="qcurve"/>
      <point x="282" y="539"/>
      <point x="325" y="496"/>
      <point x="355" y="496" type="qcurve"/>
      <point x="385" y="496"/>
      <point x="428" y="539"/>
      <point x="428" y="569" type="qcurve"/>
      <point x="428" y="599"/>
      <point x="385" y="642"/>
      <point x="355" y="642" type="qcurve"/>
      <point x="325" y="642"/>
      <point x="282" y="599"/>
    </contour>
  </outline>
</glyph>
<glyph name="threesuperior" format="1">
  <advance width="612"/>
  <unicode hex="00B3"/>
  <outline>
    <contour>
      <point x="283" y="542" type="line"/>
      <point x="283" y="616" type="line"/>
      <point x="378" y="646" type="line"/>
      <point x="378" y="652" type="line"/>
      <point x="235" y="652" type="line"/>
      <point x="235" y="700" type="line"/>
      <point x="420" y="700" type="line"/>
      <point x="420" y="618" type="line"/>
      <point x="325" y="588" type="line"/>
      <point x="325" y="582" type="line"/>
      <point x="333" y="582" type="line"/>
      <point x="359" y="582"/>
      <point x="400" y="549"/>
      <point x="400" y="514" type="qcurve"/>
      <point x="400" y="466"/>
      <point x="337" y="406"/>
      <point x="281" y="406" type="qcurve"/>
      <point x="236" y="406"/>
      <point x="192" y="453"/>
      <point x="192" y="484" type="qcurve"/>
      <point x="192" y="489"/>
      <point x="193" y="497"/>
      <point x="194" y="502" type="qcurve"/>
      <point x="197" y="518" type="line"/>
      <point x="251" y="518" type="line"/>
      <point x="248" y="504" type="line"/>
      <point x="247" y="499"/>
      <point x="247" y="494"/>
      <point x="247" y="491" type="qcurve"/>
      <point x="247" y="474"/>
      <point x="267" y="454"/>
      <point x="287" y="454" type="qcurve"/>
      <point x="311" y="454"/>
      <point x="344" y="484"/>
      <point x="344" y="509" type="qcurve"/>
      <point x="344" y="526"/>
      <point x="324" y="542"/>
      <point x="307" y="542" type="qcurve"/>
    </contour>
  </outline>
</glyph>
<glyph name="paragraph" format="1">
  <advance width="612"/>
  <unicode hex="00B6"/>
  <outline>
    <contour>
      <point x="278" y="424" type="line"/>
      <point x="255" y="427"/>
      <point x="212" y="446"/>
      <point x="180" y="479"/>
      <point x="161" y="525"/>
      <point x="161" y="554" type="qcurve"/>
      <point x="161" y="590"/>
      <point x="188" y="649"/>
      <point x="237" y="691"/>
      <point x="306" y="714"/>
      <point x="347" y="714" type="qcurve"/>
      <point x="519" y="714" type="line"/>
      <point x="519" y="708" type="line"/>
      <point x="413" y="218" type="line"/>
      <point x="341" y="218" type="line"/>
      <point x="433" y="642" type="line"/>
      <point x="397" y="642" type="line"/>
      <point x="305" y="218" type="line"/>
      <point x="233" y="218" type="line"/>
    </contour>
    <contour>
      <point x="325" y="642" type="line"/>
      <point x="286" y="641"/>
      <point x="235" y="594"/>
      <point x="235" y="558" type="qcurve"/>
      <point x="235" y="529"/>
      <point x="267" y="498"/>
      <point x="293" y="496" type="qcurve"/>
    </contour>
  </outline>
</glyph>
<glyph name="periodcentered" format="1">
  <advance width="612"/>
  <unicode hex="00B7"/>
  <outline>
    <contour>
      <point x="236" y="350" type="qcurve"/>
      <point x="236" y="379"/>
      <point x="277" y="420"/>
      <point x="306" y="420" type="qcurve"/>
      <point x="335" y="420"/>
      <point x="376" y="379"/>
      <point x="376" y="350" type="qcurve"/>
      <point x="376" y="321"/>
      <point x="335" y="280"/>
      <point x="306" y="280" type="qcurve"/>
      <point x="277" y="280"/>
      <point x="236" y="321"/>
    </contour>
  </outline>
</glyph>
<glyph name="cedilla" format="1">
  <advance width="612"/>
  <unicode hex="00B8"/>
  <outline>
    <contour>
      <point x="298" y="0" type="line"/>
      <point x="274" y="-68" type="line"/>
      <point x="280" y="-68" type="line"/>
      <point x="297" y="-36"/>
      <point x="334" y="-36" type="qcurve"/>
      <point x="367" y="-36"/>
      <point x="402" y="-80"/>
      <point x="402" y="-110" type="qcurve"/>
      <point x="402" y="-155"/>
      <point x="351" y="-212"/>
      <point x="298" y="-212" type="qcurve"/>
      <point x="257" y="-212"/>
      <point x="209" y="-173"/>
      <point x="204" y="-142" type="qcurve"/>
      <point x="254" y="-125" type="line"/>
      <point x="256" y="-141"/>
      <point x="277" y="-164"/>
      <point x="300" y="-164" type="qcurve"/>
      <point x="323" y="-164"/>
      <point x="348" y="-139"/>
      <point x="348" y="-118" type="qcurve"/>
      <point x="348" y="-100"/>
      <point x="329" y="-84"/>
      <point x="316" y="-84" type="qcurve"/>
      <point x="305" y="-84"/>
      <point x="293" y="-92"/>
      <point x="289" y="-98" type="qcurve"/>
      <point x="214" y="-98" type="line"/>
      <point x="214" y="-86" type="line"/>
      <point x="244" y="0" type="line"/>
    </contour>
  </outline>
</glyph>
<glyph name="ordmasculine" format="1">
  <advance width="612"/>
  <unicode hex="00BA"/>
  <outline>
    <contour>
      <point x="204" y="522" type="qcurve"/>
      <point x="204" y="559"/>
      <point x="227" y="626"/>
      <point x="272" y="677"/>
      <point x="338" y="706"/>
      <point x="380" y="706" type="qcurve"/>
      <point x="433" y="706"/>
      <point x="502" y="642"/>
      <point x="502" y="586" type="qcurve"/>
      <point x="502" y="551"/>
      <point x="480" y="486"/>
      <point x="435" y="436"/>
      <point x="368" y="406"/>
      <point x="324" y="406" type="qcurve"/>
      <point x="273" y="406"/>
      <point x="204" y="466"/>
    </contour>
    <contour>
      <point x="332" y="466" type="qcurve"/>
      <point x="377" y="466"/>
      <point x="434" y="531"/>
      <point x="434" y="582" type="qcurve"/>
      <point x="434" y="611"/>
      <point x="402" y="646"/>
      <point x="372" y="646" type="qcurve"/>
      <point x="348" y="646"/>
      <point x="310" y="627"/>
      <point x="284" y="595"/>
      <point x="270" y="553"/>
      <point x="270" y="530" type="qcurve"/>
      <point x="270" y="501"/>
      <point x="302" y="466"/>
    </contour>
  </outline>
</glyph>
<glyph name="onequarter" format="1">
  <advance width="612"/>
  <unicode hex="00BC"/>
  <outline>
    <contour>
      <point x="421" y="288" type="line"/>
      <point x="522" y="288" type="line"/>
      <point x="483" y="102" type="line"/>
      <point x="523" y="102" type="line"/>
      <point x="523" y="54" type="line"/>
      <point x="472" y="54" type="line"/>
      <point x="461" y="0" type="line"/>
      <point x="407" y="0" type="line"/>
      <point x="418" y="54" type="line"/>
      <point x="295" y="54" type="line"/>
      <point x="295" y="114" type="line"/>
    </contour>
    <contour>
      <point x="348" y="108" type="line"/>
      <point x="348" y="102" type="line"/>
      <point x="429" y="102" type="line"/>
      <point x="462" y="258" type="line"/>
      <point x="456" y="258" type="line"/>
    </contour>
    <component base="fraction" xOffset="10"/>
    <component base="onesuperior" xOffset="-129"/>
  </outline>
</glyph>
<glyph name="threequarters" format="1">
  <advance width="612"/>
  <unicode hex="00BE"/>
  <outline>
    <contour>
      <point x="443" y="288" type="line"/>
      <point x="544" y="288" type="line"/>
      <point x="505" y="102" type="line"/>
      <point x="545" y="102" type="line"/>
      <point x="545" y="54" type="line"/>
      <point x="494" y="54" type="line"/>
      <point x="483" y="0" type="line"/>
      <point x="429" y="0" type="line"/>
      <point x="440" y="54" type="line"/>
      <point x="317" y="54" type="line"/>
      <point x="317" y="114" type="line"/>
    </contour>
    <contour>
      <point x="370" y="108" type="line"/>
      <point x="370" y="102" type="line"/>
      <point x="451" y="102" type="line"/>
      <point x="484" y="258" type="line"/>
      <point x="478" y="258" type="line"/>
    </contour>
    <component base="threesuperior" xOffset="-122"/>
    <component base="fraction" xOffset="10"/>
  </outline>
</glyph>
<glyph name="questiondown" format="1">
  <advance width="612"/>
  <unicode hex="00BF"/>
  <outline>
    <contour>
      <point x="231" y="136" type="line"/>
      <point x="200" y="136"/>
      <point x="150" y="111"/>
      <point x="115" y="69"/>
      <point x="96" y="13"/>
      <point x="96" y="-17" type="qcurve"/>
      <point x="96" y="-66"/>
      <point x="162" y="-134"/>
      <point x="225" y="-134" type="qcurve"/>
      <point x="293" y="-134"/>
      <point x="386" y="-49"/>
      <point x="402" y="26" type="qcurve"/>
      <point x="411" y="68" type="line"/>
      <point x="495" y="68" type="line"/>
      <point x="485" y="20" type="line"/>
      <point x="462" y="-87"/>
      <point x="325" y="-212"/>
      <point x="215" y="-212" type="qcurve"/>
      <point x="168" y="-212"/>
      <point x="92" y="-183"/>
      <point x="38" y="-133"/>
      <point x="9" y="-65"/>
      <point x="9" y="-25" type="qcurve"/>
      <point x="9" y="18"/>
      <point x="39" y="102"/>
      <point x="97" y="170"/>
      <point x="182" y="212"/>
      <point x="237" y="212" type="qcurve"/>
      <point x="249" y="212" type="line"/>
      <point x="279" y="212"/>
      <point x="285" y="242" type="qcurve"/>
      <point x="300" y="316" type="line"/>
      <point x="380" y="316" type="line"/>
      <point x="360" y="222" type="line"/>
      <point x="352" y="181"/>
      <point x="299" y="136"/>
      <point x="255" y="136" type="qcurve"/>
    </contour>
    <contour>
      <point x="435" y="446" type="qcurve"/>
      <point x="435" y="417"/>
      <point x="394" y="376"/>
      <point x="365" y="376" type="qcurve"/>
      <point x="336" y="376"/>
      <point x="295" y="417"/>
      <point x="295" y="446" type="qcurve"/>
      <point x="295" y="475"/>
      <point x="336" y="516"/>
      <point x="365" y="516" type="qcurve"/>
      <point x="394" y="516"/>
      <point x="435" y="475"/>
    </contour>
  </outline>
</glyph>
<glyph name="AE" format="1">
  <advance width="612"/>
  <unicode hex="00C6"/>
  <outline>
    <contour>
      <point x="276" y="174" type="line"/>
      <point x="132" y="174" type="line"/>
      <point x="44" y="0" type="line"/>
      <point x="-48" y="0" type="line"/>
      <point x="312" y="700" type="line"/>
      <point x="599" y="700" type="line"/>
      <point x="599" y="622" type="line"/>
      <point x="455" y="622" type="line"/>
      <point x="406" y="390" type="line"/>
      <point x="527" y="390" type="line"/>
      <point x="527" y="312" type="line"/>
      <point x="389" y="312" type="line"/>
      <point x="340" y="78" type="line"/>
      <point x="473" y="78" type="line"/>
      <point x="473" y="0" type="line"/>
      <point x="239" y="0" type="line"/>
    </contour>
    <contour>
      <point x="172" y="252" type="line"/>
      <point x="293" y="252" type="line"/>
      <point x="371" y="622" type="line"/>
      <point x="359" y="622" type="line"/>
    </contour>
  </outline>
</glyph>
<glyph name="Ccedilla" format="1">
  <advance width="612"/>
  <unicode hex="00C7"/>
  <outline>
    <contour>
      <point x="248" y="64" type="qcurve"/>
      <point x="291" y="64"/>
      <point x="356" y="90"/>
      <point x="402" y="136"/>
      <point x="433" y="201"/>
      <point x="443" y="240" type="qcurve"/>
      <point x="446" y="252" type="line"/>
      <point x="530" y="252" type="line"/>
      <point x="527" y="240" type="line"/>
      <point x="513" y="183"/>
      <point x="470" y="90"/>
      <point x="405" y="24"/>
      <point x="314" y="-13"/>
      <point x="252" y="-14" type="qcurve"/>
      <point x="233" y="-68" type="line"/>
      <point x="239" y="-68" type="line"/>
      <point x="256" y="-36"/>
      <point x="293" y="-36" type="qcurve"/>
      <point x="326" y="-36"/>
      <point x="361" y="-80"/>
      <point x="361" y="-110" type="qcurve"/>
      <point x="361" y="-155"/>
      <point x="310" y="-212"/>
      <point x="257" y="-212" type="qcurve"/>
      <point x="216" y="-212"/>
      <point x="168" y="-173"/>
      <point x="163" y="-142" type="qcurve"/>
      <point x="213" y="-125" type="line"/>
      <point x="215" y="-141"/>
      <point x="236" y="-164"/>
      <point x="259" y="-164" type="qcurve"/>
      <point x="282" y="-164"/>
      <point x="307" y="-139"/>
      <point x="307" y="-118" type="qcurve"/>
      <point x="307" y="-100"/>
      <point x="288" y="-84"/>
      <point x="275" y="-84" type="qcurve"/>
      <point x="264" y="-84"/>
      <point x="252" y="-92"/>
      <point x="248" y="-98" type="qcurve"/>
      <point x="173" y="-98" type="line"/>
      <point x="173" y="-86" type="line"/>
      <point x="199" y="-12" type="line"/>
      <point x="122" y="-1"/>
      <point x="38" y="100"/>
      <point x="38" y="178" type="qcurve"/>
      <point x="38" y="199"/>
      <point x="43" y="246"/>
      <point x="48" y="272" type="qcurve"/>
      <point x="81" y="428" type="line"/>
      <point x="111" y="570"/>
      <point x="260" y="714"/>
      <point x="382" y="714" type="qcurve"/>
      <point x="430" y="714"/>
      <point x="505" y="686"/>
      <point x="556" y="637"/>
      <point x="583" y="568"/>
      <point x="583" y="528" type="qcurve"/>
      <point x="583" y="496"/>
      <point x="574" y="460" type="qcurve"/>
      <point x="571" y="448" type="line"/>
      <point x="487" y="448" type="line"/>
      <point x="490" y="460" type="line"/>
      <point x="495" y="479"/>
      <point x="498" y="508"/>
      <point x="498" y="522" type="qcurve"/>
      <point x="498" y="575"/>
      <point x="437" y="638"/>
      <point x="369" y="638" type="qcurve"/>
      <point x="329" y="638"/>
      <point x="263" y="606"/>
      <point x="211" y="549"/>
      <point x="174" y="470"/>
      <point x="164" y="422" type="qcurve"/>
      <point x="133" y="278" type="line"/>
      <point x="128" y="255"/>
      <point x="123" y="215"/>
      <point x="123" y="197" type="qcurve"/>
      <point x="123" y="130"/>
      <point x="183" y="64"/>
    </contour>
  </outline>
</glyph>
<glyph name="Oslash" format="1">
  <advance width="612"/>
  <unicode hex="00D8"/>
  <outline>
    <contour>
      <point x="77" y="428" type="line"/>
      <point x="106" y="568"/>
      <point x="253" y="714"/>
      <point x="377" y="714" type="qcurve"/>
      <point x="420" y="714"/>
      <point x="457" y="701" type="qcurve"/>
      <point x="497" y="774" type="line"/>
      <point x="557" y="740" type="line"/>
      <point x="517" y="666" type="line"/>
      <point x="577" y="611"/>
      <point x="577" y="505" type="qcurve"/>
      <point x="577" y="485"/>
      <point x="572" y="440"/>
      <point x="567" y="417" type="qcurve"/>
      <point x="536" y="272" type="line"/>
      <point x="507" y="132"/>
      <point x="360" y="-14"/>
      <point x="236" y="-14" type="qcurve"/>
      <point x="192" y="-14"/>
      <point x="156" y="-2" type="qcurve"/>
      <point x="111" y="-86" type="line"/>
      <point x="51" y="-51" type="line"/>
      <point x="96" y="33" type="line"/>
      <point x="36" y="88"/>
      <point x="36" y="195" type="qcurve"/>
      <point x="36" y="215"/>
      <point x="41" y="260"/>
      <point x="46" y="283" type="qcurve"/>
    </contour>
    <contour>
      <point x="120" y="202" type="qcurve"/>
      <point x="120" y="148"/>
      <point x="140" y="115" type="qcurve"/>
      <point x="418" y="629" type="line"/>
      <point x="395" y="638"/>
      <point x="365" y="638" type="qcurve"/>
      <point x="282" y="638"/>
      <point x="181" y="520"/>
      <point x="160" y="422" type="qcurve"/>
      <point x="128" y="272" type="line"/>
      <point x="120" y="232"/>
    </contour>
    <contour>
      <point x="248" y="62" type="qcurve"/>
      <point x="289" y="62"/>
      <point x="356" y="93"/>
      <point x="407" y="150"/>
      <point x="442" y="229"/>
      <point x="453" y="278" type="qcurve"/>
      <point x="485" y="428" type="line"/>
      <point x="493" y="468"/>
      <point x="493" y="498" type="qcurve"/>
      <point x="493" y="549"/>
      <point x="473" y="584" type="qcurve"/>
      <point x="195" y="70" type="line"/>
      <point x="219" y="62"/>
    </contour>
  </outline>
</glyph>
<glyph name="Thorn" format="1">
  <advance width="612"/>
  <unicode hex="00DE"/>
  <outline>
    <contour>
      <point x="128" y="150" type="line"/>
      <point x="96" y="0" type="line"/>
      <point x="12" y="0" type="line"/>
      <point x="161" y="700" type="line"/>
      <point x="245" y="700" type="line"/>
      <point x="216" y="562" type="line"/>
      <point x="360" y="562" type="line"/>
      <point x="405" y="562"/>
      <point x="476" y="537"/>
      <point x="525" y="493"/>
      <point x="552" y="431"/>
      <point x="552" y="395" type="qcurve"/>
      <point x="552" y="343"/>
      <point x="516" y="253"/>
      <point x="447" y="187"/>
      <point x="349" y="150"/>
      <point x="288" y="150" type="qcurve"/>
    </contour>
    <contour>
      <point x="145" y="228" type="line"/>
      <point x="295" y="228" type="line"/>
      <point x="332" y="228"/>
      <point x="395" y="249"/>
      <point x="440" y="288"/>
      <point x="466" y="345"/>
      <point x="466" y="380" type="qcurve"/>
      <point x="466" y="433"/>
      <point x="405" y="484"/>
      <point x="348" y="484" type="qcurve"/>
      <point x="199" y="484" type="line"/>
    </contour>
  </outline>
</glyph>
<glyph name="germandbls" format="1">
  <advance width="612"/>
  <unicode hex="00DF"/>
  <outline>
    <contour>
      <point x="349" y="355" type="line"/>
      <point x="362" y="355" type="line"/>
      <point x="398" y="355"/>
      <point x="460" y="333"/>
      <point x="507" y="292"/>
      <point x="534" y="231"/>
      <point x="534" y="192" type="qcurve"/>
      <point x="534" y="149"/>
      <point x="507" y="74"/>
      <point x="456" y="18"/>
      <point x="381" y="-14"/>
      <point x="333" y="-14" type="qcurve"/>
      <point x="291" y="-14"/>
      <point x="229" y="9"/>
      <point x="190" y="47"/>
      <point x="171" y="95"/>
      <point x="171" y="120" type="qcurve"/>
      <point x="171" y="127"/>
      <point x="171" y="140"/>
      <point x="173" y="146" type="qcurve"/>
      <point x="249" y="154" type="line"/>
      <point x="248" y="149"/>
      <point x="248" y="142"/>
      <point x="248" y="138" type="qcurve"/>
      <point x="248" y="102"/>
      <point x="293" y="58"/>
      <point x="339" y="58" type="qcurve"/>
      <point x="361" y="58"/>
      <point x="403" y="73"/>
      <point x="435" y="104"/>
      <point x="454" y="150"/>
      <point x="454" y="182" type="qcurve"/>
      <point x="454" y="239"/>
      <point x="383" y="283"/>
      <point x="328" y="283" type="qcurve"/>
      <point x="274" y="283" type="line"/>
      <point x="274" y="430" type="line"/>
      <point x="323" y="430" type="line"/>
      <point x="383" y="430"/>
      <point x="462" y="497"/>
      <point x="462" y="556" type="qcurve"/>
      <point x="462" y="598"/>
      <point x="407" y="642"/>
      <point x="363" y="642" type="qcurve"/>
      <point x="307" y="642"/>
      <point x="229" y="577"/>
      <point x="213" y="502" type="qcurve"/>
      <point x="106" y="0" type="line"/>
      <point x="28" y="0" type="line"/>
      <point x="118" y="424" type="line"/>
      <point x="58" y="424" type="line"/>
      <point x="58" y="496" type="line"/>
      <point x="134" y="496" type="line"/>
      <point x="137" y="510" type="line"/>
      <point x="160" y="618"/>
      <point x="282" y="714"/>
      <point x="369" y="714" type="qcurve"/>
      <point x="406" y="714"/>
      <point x="469" y="693"/>
      <point x="515" y="653"/>
      <point x="542" y="594"/>
      <point x="542" y="556" type="qcurve"/>
      <point x="542" y="519"/>
      <point x="515" y="454"/>
      <point x="466" y="404"/>
      <point x="394" y="371"/>
      <point x="349" y="367" type="qcurve"/>
    </contour>
  </outline>
</glyph>
<glyph name="eth" format="1">
  <advance width="612"/>
  <unicode hex="00F0"/>
  <outline>
    <contour>
      <point x="319" y="618" type="line"/>
      <point x="277" y="633"/>
      <point x="225" y="639" type="qcurve"/>
      <point x="240" y="714" type="line"/>
      <point x="272" y="710"/>
      <point x="328" y="696"/>
      <point x="354" y="686" type="qcurve"/>
      <point x="373" y="722" type="line"/>
      <point x="435" y="691" type="line"/>
      <point x="416" y="654" type="line"/>
      <point x="480" y="612"/>
      <point x="545" y="475"/>
      <point x="545" y="376" type="qcurve"/>
      <point x="545" y="304"/>
      <point x="509" y="165"/>
      <point x="431" y="54"/>
      <point x="311" y="-14"/>
      <point x="227" y="-14" type="qcurve"/>
      <point x="183" y="-14"/>
      <point x="108" y="14"/>
      <point x="52" y="68"/>
      <point x="20" y="147"/>
      <point x="20" y="199" type="qcurve"/>
      <point x="20" y="261"/>
      <point x="63" y="374"/>
      <point x="141" y="459"/>
      <point x="250" y="510"/>
      <point x="315" y="510" type="qcurve"/>
      <point x="372" y="510"/>
      <point x="438" y="466"/>
      <point x="451" y="436" type="qcurve"/>
      <point x="463" y="436" type="line"/>
      <point x="459" y="487"/>
      <point x="416" y="562"/>
      <point x="381" y="586" type="qcurve"/>
      <point x="361" y="547" type="line"/>
      <point x="298" y="578" type="line"/>
    </contour>
    <contour>
      <point x="237" y="60" type="qcurve"/>
      <point x="283" y="60"/>
      <point x="361" y="101"/>
      <point x="419" y="166"/>
      <point x="452" y="248"/>
      <point x="452" y="289" type="qcurve"/>
      <point x="452" y="359"/>
      <point x="377" y="436"/>
      <point x="317" y="436" type="qcurve"/>
      <point x="270" y="436"/>
      <point x="192" y="396"/>
      <point x="134" y="330"/>
      <point x="102" y="245"/>
      <point x="102" y="200" type="qcurve"/>
      <point x="102" y="134"/>
      <point x="174" y="60"/>
    </contour>
  </outline>
</glyph>
<glyph name="divide" format="1">
  <advance width="612"/>
  <unicode hex="00F7"/>
  <outline>
    <contour>
      <point x="97" y="386" type="line"/>
      <point x="515" y="386" type="line"/>
      <point x="515" y="314" type="line"/>
      <point x="97" y="314" type="line"/>
    </contour>
    <contour>
      <point x="199" y="184" type="qcurve"/>
      <point x="199" y="213"/>
      <point x="240" y="254"/>
      <point x="269" y="254" type="qcurve"/>
      <point x="298" y="254"/>
      <point x="339" y="213"/>
      <point x="339" y="184" type="qcurve"/>
      <point x="339" y="155"/>
      <point x="298" y="114"/>
      <point x="269" y="114" type="qcurve"/>
      <point x="240" y="114"/>
      <point x="199" y="155"/>
    </contour>
    <contour>
      <point x="273" y="516" type="qcurve"/>
      <point x="273" y="545"/>
      <point x="314" y="586"/>
      <point x="343" y="586" type="qcurve"/>
      <point x="372" y="586"/>
      <point x="413" y="545"/>
      <point x="413" y="516" type="qcurve"/>
      <point x="413" y="487"/>
      <point x="372" y="446"/>
      <point x="343" y="446" type="qcurve"/>
      <point x="314" y="446"/>
      <point x="273" y="487"/>
    </contour>
  </outline>
</glyph>
<glyph name="thorn" format="1">
  <advance width="612"/>
  <unicode hex="00FE"/>
  <outline>
    <contour>
      <point x="23" y="-200" type="line"/>
      <point x="-54" y="-200" type="line"/>
      <point x="139" y="714" type="line"/>
      <point x="217" y="714" type="line"/>
      <point x="154" y="418" type="line"/>
      <point x="166" y="418" type="line"/>
      <point x="201" y="466"/>
      <point x="300" y="510"/>
      <point x="354" y="510" type="qcurve"/>
      <point x="392" y="510"/>
      <point x="460" y="484"/>
      <point x="510" y="434"/>
      <point x="539" y="362"/>
      <point x="539" y="316" type="qcurve"/>
      <point x="539" y="252"/>
      <point x="502" y="133"/>
      <point x="429" y="41"/>
      <point x="318" y="-14"/>
      <point x="244" y="-14" type="qcurve"/>
      <point x="220" y="-14"/>
      <point x="174" y="-2"/>
      <point x="134" y="21"/>
      <point x="103" y="54"/>
      <point x="94" y="76" type="qcurve"/>
      <point x="82" y="76" type="line"/>
    </contour>
    <contour>
      <point x="247" y="60" type="qcurve"/>
      <point x="294" y="60"/>
      <point x="371" y="100"/>
      <point x="426" y="165"/>
      <point x="456" y="248"/>
      <point x="456" y="291" type="qcurve"/>
      <point x="456" y="360"/>
      <point x="382" y="436"/>
      <point x="318" y="436" type="qcurve"/>
      <point x="275" y="436"/>
      <point x="200" y="396"/>
      <point x="144" y="329"/>
      <point x="112" y="242"/>
      <point x="112" y="195" type="qcurve"/>
      <point x="112" y="129"/>
      <point x="188" y="60"/>
    </contour>
  </outline>
</glyph>
<glyph name="dcaron" format="1">
  <advance width="612"/>
  <unicode hex="010F"/>
  <outline>
    <contour>
      <point x="363" y="84" type="line"/>
      <point x="360" y="66"/>
      <point x="376" y="66" type="qcurve"/>
      <point x="382" y="66"/>
      <point x="389" y="71" type="qcurve"/>
      <point x="425" y="97" type="line"/>
      <point x="468" y="38" type="line"/>
      <point x="423" y="4" type="line"/>
      <point x="412" y="-4"/>
      <point x="379" y="-14"/>
      <point x="362" y="-14" type="qcurve"/>
      <point x="332" y="-14"/>
      <point x="282" y="19"/>
      <point x="282" y="58" type="qcurve"/>
      <point x="282" y="64" type="line"/>
      <point x="270" y="64" type="line"/>
      <point x="254" y="29"/>
      <point x="185" y="-14"/>
      <point x="143" y="-14" type="qcurve"/>
      <point x="76" y="-14"/>
      <point x="-8" y="75"/>
      <point x="-8" y="172" type="qcurve"/>
      <point x="-8" y="226"/>
      <point x="22" y="346"/>
      <point x="84" y="445"/>
      <point x="180" y="510"/>
      <point x="245" y="510" type="qcurve"/>
      <point x="290" y="510"/>
      <point x="341" y="471"/>
      <point x="349" y="442" type="qcurve"/>
      <point x="361" y="442" type="line"/>
      <point x="418" y="714" type="line"/>
      <point x="496" y="714" type="line"/>
    </contour>
    <contour>
      <point x="166" y="60" type="qcurve"/>
      <point x="210" y="60"/>
      <point x="272" y="113"/>
      <point x="312" y="191"/>
      <point x="330" y="278"/>
      <point x="330" y="313" type="qcurve"/>
      <point x="330" y="436"/>
      <point x="241" y="436" type="qcurve"/>
      <point x="196" y="436"/>
      <point x="132" y="385"/>
      <point x="91" y="308"/>
      <point x="73" y="219"/>
      <point x="73" y="181" type="qcurve"/>
      <point x="73" y="121"/>
      <point x="121" y="60"/>
    </contour>
    <component base="quoteright" xOffset="218" yOffset="-14"/>
  </outline>
</glyph>
<glyph name="eogonek" format="1">
  <advance width="612"/>
  <unicode hex="0119"/>
  <outline>
    <contour>
      <point x="112" y="224" type="line"/>
      <point x="110" y="216"/>
      <point x="108" y="196"/>
      <point x="108" y="185" type="qcurve"/>
      <point x="108" y="130"/>
      <point x="172" y="59"/>
      <point x="242" y="59" type="qcurve"/>
      <point x="277" y="59"/>
      <point x="332" y="75"/>
      <point x="372" y="104"/>
      <point x="401" y="141"/>
      <point x="411" y="162" type="qcurve"/>
      <point x="475" y="126" type="line"/>
      <point x="466" y="108"/>
      <point x="449" y="81"/>
      <point x="428" y="57"/>
      <point x="401" y="34"/>
      <point x="382" y="22" type="qcurve"/>
      <point x="247" y="-67" type="line"/>
      <point x="233" y="-77"/>
      <point x="242" y="-98"/>
      <point x="253" y="-98" type="qcurve"/>
      <point x="340" y="-98" type="line"/>
      <point x="340" y="-164" type="line"/>
      <point x="233" y="-164" type="line"/>
      <point x="207" y="-164"/>
      <point x="174" y="-135"/>
      <point x="164" y="-93"/>
      <point x="183" y="-45"/>
      <point x="210" y="-25" type="qcurve"/>
      <point x="225" y="-14" type="line"/>
      <point x="184" y="-13"/>
      <point x="113" y="15"/>
      <point x="61" y="66"/>
      <point x="32" y="139"/>
      <point x="32" y="185" type="qcurve"/>
      <point x="32" y="248"/>
      <point x="72" y="365"/>
      <point x="148" y="455"/>
      <point x="260" y="510"/>
      <point x="331" y="510" type="qcurve"/>
      <point x="381" y="510"/>
      <point x="455" y="479"/>
      <point x="503" y="426"/>
      <point x="527" y="359"/>
      <point x="527" y="323" type="qcurve"/>
      <point x="527" y="296"/>
      <point x="521" y="271" type="qcurve"/>
      <point x="510" y="224" type="line"/>
    </contour>
    <contour>
      <point x="321" y="436" type="qcurve"/>
      <point x="286" y="436"/>
      <point x="225" y="415"/>
      <point x="175" y="377"/>
      <point x="139" y="326"/>
      <point x="129" y="296" type="qcurve"/>
      <point x="447" y="296" type="line"/>
      <point x="450" y="312"/>
      <point x="450" y="326" type="qcurve"/>
      <point x="450" y="380"/>
      <point x="376" y="436"/>
    </contour>
  </outline>
</glyph>
<glyph name="dotlessi" format="1">
  <advance width="612"/>
  <unicode hex="0131"/>
  <outline>
    <contour>
      <point x="287" y="409" type="line"/>
      <point x="289" y="419"/>
      <point x="280" y="434"/>
      <point x="269" y="434" type="qcurve"/>
      <point x="261" y="434"/>
      <point x="254" y="430" type="qcurve"/>
      <point x="137" y="350" type="line"/>
      <point x="97" y="409" type="line"/>
      <point x="215" y="489" type="line"/>
      <point x="246" y="510"/>
      <point x="282" y="510" type="qcurve"/>
      <point x="316" y="510"/>
      <point x="366" y="470"/>
      <point x="366" y="428" type="qcurve"/>
      <point x="366" y="412"/>
      <point x="362" y="396" type="qcurve"/>
      <point x="288" y="87" type="line"/>
      <point x="285" y="75"/>
      <point x="296" y="61"/>
      <point x="305" y="61" type="qcurve"/>
      <point x="312" y="61"/>
      <point x="320" y="66" type="qcurve"/>
      <point x="435" y="144" type="line"/>
      <point x="475" y="85" type="line"/>
      <point x="360" y="7" type="line"/>
      <point x="328" y="-14"/>
      <point x="293" y="-14" type="qcurve"/>
      <point x="259" y="-14"/>
      <point x="209" y="26"/>
      <point x="209" y="68" type="qcurve"/>
      <point x="209" y="84"/>
      <point x="213" y="100" type="qcurve"/>
    </contour>
  </outline>
</glyph>
<glyph name="IJ" format="1">
  <advance width="612"/>
  <unicode hex="0132"/>
  <outline>
    <contour>
      <point x="149" y="700" type="line"/>
      <point x="233" y="700" type="line"/>
      <point x="157" y="342" type="line"/>
      <point x="73" y="342" type="line"/>
    </contour>
    <contour>
      <point x="630" y="622" type="line"/>
      <point x="564" y="622" type="line"/>
      <point x="475" y="206" type="line"/>
      <point x="464" y="154"/>
      <point x="425" y="73"/>
      <point x="364" y="16"/>
      <point x="280" y="-14"/>
      <point x="224" y="-14" type="qcurve"/>
      <point x="136" y="-14"/>
      <point x="38" y="78"/>
      <point x="38" y="155" type="qcurve"/>
      <point x="38" y="181"/>
      <point x="44" y="210" type="qcurve"/>
      <point x="56" y="264" type="line"/>
      <point x="140" y="264" type="line"/>
      <point x="128" y="210" type="line"/>
      <point x="122" y="183"/>
      <point x="122" y="160" type="qcurve"/>
      <point x="122" y="64"/>
      <point x="235" y="64" type="qcurve"/>
      <point x="305" y="64"/>
      <point x="378" y="145"/>
      <point x="392" y="210" type="qcurve"/>
      <point x="480" y="622" type="line"/>
      <point x="402" y="622" type="line"/>
      <point x="402" y="700" type="line"/>
      <point x="630" y="700" type="line"/>
    </contour>
  </outline>
</glyph>
<glyph name="jcircumflex" format="1">
  <advance width="612"/>
  <unicode hex="0135"/>
  <outline>
    <contour>
      <point x="316" y="-122" type="line"/>
      <point x="309" y="-156"/>
      <point x="257" y="-200"/>
      <point x="223" y="-200" type="qcurve"/>
      <point x="0" y="-200" type="line"/>
      <point x="0" y="-128" type="line"/>
      <point x="210" y="-128" type="line"/>
      <point x="237" y="-128"/>
      <point x="243" y="-98" type="qcurve"/>
      <point x="352" y="412" type="line"/>
      <point x="354" y="423"/>
      <point x="344" y="434"/>
      <point x="337" y="434" type="qcurve"/>
      <point x="331" y="434"/>
      <point x="325" y="430" type="qcurve"/>
      <point x="208" y="350" type="line"/>
      <point x="168" y="409" type="line"/>
      <point x="286" y="489" type="line"/>
      <point x="317" y="510"/>
      <point x="349" y="510" type="qcurve"/>
      <point x="382" y="510"/>
      <point x="430" y="465"/>
      <point x="430" y="427" type="qcurve"/>
      <point x="430" y="416"/>
      <point x="427" y="401" type="qcurve"/>
    </contour>
    <component base="circumflex" xOffset="31"/>
  </outline>
</glyph>
<glyph name="kgreenlandic" format="1">
  <advance width="612"/>
  <unicode hex="0138"/>
  <outline>
    <contour>
      <point x="233" y="496" type="line"/>
      <point x="190" y="290" type="line"/>
      <point x="202" y="290" type="line"/>
      <point x="450" y="508" type="line"/>
      <point x="498" y="457" type="line"/>
      <point x="277" y="263" type="line"/>
      <point x="277" y="245" type="line"/>
      <point x="406" y="69" type="line"/>
      <point x="412" y="62"/>
      <point x="419" y="62" type="qcurve"/>
      <point x="425" y="62"/>
      <point x="432" y="67" type="qcurve"/>
      <point x="480" y="102" type="line"/>
      <point x="522" y="43" type="line"/>
      <point x="477" y="9" type="line"/>
      <point x="463" y="-2"/>
      <point x="433" y="-14"/>
      <point x="416" y="-14" type="qcurve"/>
      <point x="396" y="-14"/>
      <point x="359" y="6"/>
      <point x="342" y="29" type="qcurve"/>
      <point x="204" y="218" type="line"/>
      <point x="174" y="218" type="line"/>
      <point x="128" y="0" type="line"/>
      <point x="50" y="0" type="line"/>
      <point x="155" y="496" type="line"/>
    </contour>
  </outline>
</glyph>
<glyph name="Lslash" format="1">
  <advance width="612"/>
  <unicode hex="0141"/>
  <outline>
    <contour>
      <point x="96" y="283" type="line"/>
      <point x="32" y="266" type="line"/>
      <point x="12" y="340" type="line"/>
      <point x="114" y="367" type="line"/>
      <point x="185" y="700" type="line"/>
      <point x="269" y="700" type="line"/>
      <point x="203" y="390" type="line"/>
      <point x="284" y="412" type="line"/>
      <point x="304" y="340" type="line"/>
      <point x="185" y="307" type="line"/>
      <point x="137" y="78" type="line"/>
      <point x="497" y="78" type="line"/>
      <point x="497" y="0" type="line"/>
      <point x="36" y="0" type="line"/>
    </contour>
  </outline>
</glyph>
<glyph name="Eng" format="1">
  <advance width="612"/>
  <unicode hex="014A"/>
  <outline>
    <contour>
      <point x="364" y="36" type="line"/>
      <point x="376" y="36" type="line"/>
      <point x="517" y="700" type="line"/>
      <point x="601" y="700" type="line"/>
      <point x="435" y="-80" type="line"/>
      <point x="421" y="-145"/>
      <point x="349" y="-200"/>
      <point x="290" y="-200" type="qcurve"/>
      <point x="128" y="-200" type="line"/>
      <point x="128" y="-122" type="line"/>
      <point x="288" y="-122" type="line"/>
      <point x="318" y="-122"/>
      <point x="348" y="-98"/>
      <point x="354" y="-68" type="qcurve"/>
      <point x="368" y="0" type="line"/>
      <point x="287" y="0" type="line"/>
      <point x="247" y="664" type="line"/>
      <point x="235" y="664" type="line"/>
      <point x="94" y="0" type="line"/>
      <point x="10" y="0" type="line"/>
      <point x="159" y="700" type="line"/>
      <point x="324" y="700" type="line"/>
    </contour>
  </outline>
</glyph>
<glyph name="OE" format="1">
  <advance width="612"/>
  <unicode hex="0152"/>
  <outline>
    <contour>
      <point x="233" y="0" type="line"/>
      <point x="136" y="0"/>
      <point x="34" y="105"/>
      <point x="34" y="199" type="qcurve"/>
      <point x="34" y="219"/>
      <point x="39" y="259"/>
      <point x="44" y="286" type="qcurve"/>
      <point x="73" y="424" type="line"/>
      <point x="101" y="558"/>
      <point x="250" y="700"/>
      <point x="375" y="700" type="qcurve"/>
      <point x="605" y="700" type="line"/>
      <point x="605" y="622" type="line"/>
      <point x="442" y="622" type="line"/>
      <point x="393" y="390" type="line"/>
      <point x="533" y="390" type="line"/>
      <point x="533" y="312" type="line"/>
      <point x="376" y="312" type="line"/>
      <point x="327" y="78" type="line"/>
      <point x="479" y="78" type="line"/>
      <point x="479" y="0" type="line"/>
    </contour>
    <contour>
      <point x="358" y="622" type="line"/>
      <point x="279" y="622"/>
      <point x="178" y="517"/>
      <point x="156" y="416" type="qcurve"/>
      <point x="127" y="282" type="line"/>
      <point x="122" y="259"/>
      <point x="117" y="220"/>
      <point x="117" y="203" type="qcurve"/>
      <point x="117" y="78"/>
      <point x="243" y="78" type="qcurve"/>
    </contour>
  </outline>
</glyph>
<glyph name="oe" format="1">
  <advance width="612"/>
  <unicode hex="0153"/>
  <outline>
    <contour>
      <point x="238" y="-14" type="qcurve"/>
      <point x="196" y="-14"/>
      <point x="122" y="13"/>
      <point x="66" y="64"/>
      <point x="34" y="139"/>
      <point x="34" y="188" type="qcurve"/>
      <point x="34" y="252"/>
      <point x="77" y="368"/>
      <point x="157" y="457"/>
      <point x="269" y="510"/>
      <point x="338" y="510" type="qcurve"/>
      <point x="389" y="510"/>
      <point x="464" y="478"/>
      <point x="514" y="425"/>
      <point x="538" y="359"/>
      <point x="538" y="325" type="qcurve"/>
      <point x="538" y="305"/>
      <point x="533" y="282" type="qcurve"/>
      <point x="520" y="224" type="line"/>
      <point x="320" y="224" type="line"/>
      <point x="286" y="62" type="line"/>
      <point x="340" y="71"/>
      <point x="402" y="127"/>
      <point x="422" y="163" type="qcurve"/>
      <point x="489" y="128" type="line"/>
      <point x="474" y="99"/>
      <point x="428" y="48"/>
      <point x="367" y="9"/>
      <point x="287" y="-14"/>
    </contour>
    <contour>
      <point x="286" y="430" type="line"/>
      <point x="247" y="420"/>
      <point x="184" y="374"/>
      <point x="139" y="310"/>
      <point x="115" y="233"/>
      <point x="115" y="192" type="qcurve"/>
      <point x="115" y="141"/>
      <point x="166" y="75"/>
      <point x="209" y="65" type="qcurve"/>
    </contour>
    <contour>
      <point x="457" y="296" type="line"/>
      <point x="460" y="311"/>
      <point x="460" y="325" type="qcurve"/>
      <point x="460" y="370"/>
      <point x="407" y="427"/>
      <point x="365" y="432" type="qcurve"/>
      <point x="336" y="296" type="line"/>
    </contour>
  </outline>
</glyph>
<glyph name="Scedilla" format="1">
  <advance width="612"/>
  <unicode hex="015E"/>
  <outline>
    <contour>
      <point x="497" y="488" type="line"/>
      <point x="501" y="508"/>
      <point x="501" y="522" type="qcurve"/>
      <point x="501" y="551"/>
      <point x="479" y="594"/>
      <point x="440" y="622"/>
      <point x="389" y="636"/>
      <point x="360" y="636" type="qcurve"/>
      <point x="327" y="636"/>
      <point x="263" y="620"/>
      <point x="213" y="588"/>
      <point x="182" y="543"/>
      <point x="182" y="513" type="qcurve"/>
      <point x="182" y="484"/>
      <point x="205" y="445"/>
      <point x="249" y="418"/>
      <point x="312" y="401"/>
      <point x="353" y="394" type="qcurve"/>
      <point x="445" y="379"/>
      <point x="531" y="290"/>
      <point x="531" y="217" type="qcurve"/>
      <point x="531" y="161"/>
      <point x="488" y="75"/>
      <point x="412" y="16"/>
      <point x="309" y="-14"/>
      <point x="249" y="-14" type="qcurve"/>
      <point x="241" y="-14" type="line"/>
      <point x="222" y="-68" type="line"/>
      <point x="228" y="-68" type="line"/>
      <point x="245" y="-36"/>
      <point x="282" y="-36" type="qcurve"/>
      <point x="315" y="-36"/>
      <point x="350" y="-80"/>
      <point x="350" y="-110" type="qcurve"/>
      <point x="350" y="-155"/>
      <point x="299" y="-212"/>
      <point x="246" y="-212" type="qcurve"/>
      <point x="205" y="-212"/>
      <point x="157" y="-173"/>
      <point x="152" y="-142" type="qcurve"/>
      <point x="202" y="-125" type="line"/>
      <point x="204" y="-141"/>
      <point x="225" y="-164"/>
      <point x="248" y="-164" type="qcurve"/>
      <point x="271" y="-164"/>
      <point x="296" y="-139"/>
      <point x="296" y="-118" type="qcurve"/>
      <point x="296" y="-100"/>
      <point x="277" y="-84"/>
      <point x="264" y="-84" type="qcurve"/>
      <point x="253" y="-84"/>
      <point x="241" y="-92"/>
      <point x="237" y="-98" type="qcurve"/>
      <point x="162" y="-98" type="line"/>
      <point x="162" y="-86" type="line"/>
      <point x="188" y="-9" type="line"/>
      <point x="103" y="5"/>
      <point x="19" y="106"/>
      <point x="19" y="181" type="qcurve"/>
      <point x="19" y="210"/>
      <point x="25" y="242" type="qcurve"/>
      <point x="31" y="272" type="line"/>
      <point x="115" y="272" type="line"/>
      <point x="110" y="248" type="line"/>
      <point x="104" y="218"/>
      <point x="104" y="193" type="qcurve"/>
      <point x="104" y="127"/>
      <point x="184" y="64"/>
      <point x="259" y="64" type="qcurve"/>
      <point x="295" y="64"/>
      <point x="362" y="84"/>
      <point x="413" y="121"/>
      <point x="444" y="174"/>
      <point x="444" y="207" type="qcurve"/>
      <point x="444" y="235"/>
      <point x="427" y="274"/>
      <point x="389" y="301"/>
      <point x="328" y="319"/>
      <point x="285" y="326" type="qcurve"/>
      <point x="243" y="333"/>
      <point x="174" y="359"/>
      <point x="124" y="401"/>
      <point x="96" y="460"/>
      <point x="96" y="500" type="qcurve"/>
      <point x="96" y="551"/>
      <point x="138" y="631"/>
      <point x="211" y="685"/>
      <point x="310" y="714"/>
      <point x="367" y="714" type="qcurve"/>
      <point x="419" y="714"/>
      <point x="501" y="686"/>
      <point x="557" y="638"/>
      <point x="587" y="574"/>
      <point x="587" y="538" type="qcurve"/>
      <point x="587" y="528"/>
      <point x="585" y="508"/>
      <point x="583" y="498" type="qcurve"/>
      <point x="575" y="462" type="line"/>
      <point x="491" y="462" type="line"/>
    </contour>
  </outline>
</glyph>
<glyph name="scedilla" format="1">
  <advance width="612"/>
  <unicode hex="015F"/>
  <outline>
    <contour>
      <point x="336" y="440" type="qcurve"/>
      <point x="316" y="440"/>
      <point x="273" y="430"/>
      <point x="238" y="410"/>
      <point x="216" y="379"/>
      <point x="216" y="358" type="qcurve"/>
      <point x="216" y="326"/>
      <point x="273" y="294"/>
      <point x="343" y="289" type="qcurve"/>
      <point x="415" y="284"/>
      <point x="494" y="222"/>
      <point x="494" y="162" type="qcurve"/>
      <point x="494" y="120"/>
      <point x="460" y="56"/>
      <point x="399" y="11"/>
      <point x="315" y="-13"/>
      <point x="265" y="-14" type="qcurve"/>
      <point x="246" y="-68" type="line"/>
      <point x="252" y="-68" type="line"/>
      <point x="269" y="-36"/>
      <point x="306" y="-36" type="qcurve"/>
      <point x="339" y="-36"/>
      <point x="374" y="-80"/>
      <point x="374" y="-110" type="qcurve"/>
      <point x="374" y="-155"/>
      <point x="323" y="-212"/>
      <point x="270" y="-212" type="qcurve"/>
      <point x="229" y="-212"/>
      <point x="181" y="-173"/>
      <point x="176" y="-142" type="qcurve"/>
      <point x="226" y="-125" type="line"/>
      <point x="228" y="-141"/>
      <point x="249" y="-164"/>
      <point x="272" y="-164" type="qcurve"/>
      <point x="295" y="-164"/>
      <point x="320" y="-139"/>
      <point x="320" y="-118" type="qcurve"/>
      <point x="320" y="-100"/>
      <point x="301" y="-84"/>
      <point x="288" y="-84" type="qcurve"/>
      <point x="277" y="-84"/>
      <point x="265" y="-92"/>
      <point x="261" y="-98" type="qcurve"/>
      <point x="186" y="-98" type="line"/>
      <point x="186" y="-86" type="line"/>
      <point x="212" y="-10" type="line"/>
      <point x="175" y="-4"/>
      <point x="122" y="27"/>
      <point x="88" y="69"/>
      <point x="72" y="119"/>
      <point x="72" y="145" type="qcurve"/>
      <point x="72" y="150"/>
      <point x="72" y="161"/>
      <point x="73" y="166" type="qcurve"/>
      <point x="151" y="176" type="line"/>
      <point x="150" y="168"/>
      <point x="150" y="164"/>
      <point x="150" y="160" type="qcurve"/>
      <point x="150" y="138"/>
      <point x="163" y="101"/>
      <point x="193" y="74"/>
      <point x="241" y="58"/>
      <point x="276" y="58" type="qcurve"/>
      <point x="299" y="58"/>
      <point x="348" y="69"/>
      <point x="388" y="92"/>
      <point x="414" y="127"/>
      <point x="414" y="152" type="qcurve"/>
      <point x="414" y="191"/>
      <point x="351" y="218"/>
      <point x="289" y="223" type="qcurve"/>
      <point x="218" y="228"/>
      <point x="137" y="286"/>
      <point x="137" y="348" type="qcurve"/>
      <point x="137" y="383"/>
      <point x="167" y="443"/>
      <point x="222" y="486"/>
      <point x="299" y="510"/>
      <point x="346" y="510" type="qcurve"/>
      <point x="392" y="510"/>
      <point x="459" y="485"/>
      <point x="502" y="445"/>
      <point x="523" y="394"/>
      <point x="523" y="367" type="qcurve"/>
      <point x="523" y="356" type="line"/>
      <point x="446" y="345" type="line"/>
      <point x="446" y="349" type="line"/>
      <point x="446" y="351"/>
      <point x="447" y="354"/>
      <point x="447" y="356" type="qcurve"/>
      <point x="447" y="394"/>
      <point x="390" y="440"/>
    </contour>
  </outline>
</glyph>
<glyph name="tbar" format="1">
  <advance width="612"/>
  <unicode hex="0167"/>
  <outline>
    <contour>
      <point x="85" y="496" type="line"/>
      <point x="257" y="496" type="line"/>
      <point x="303" y="714" type="line"/>
      <point x="381" y="714" type="line"/>
      <point x="335" y="496" type="line"/>
      <point x="511" y="496" type="line"/>
      <point x="511" y="424" type="line"/>
      <point x="319" y="424" type="line"/>
      <point x="303" y="350" type="line"/>
      <point x="453" y="350" type="line"/>
      <point x="453" y="278" type="line"/>
      <point x="288" y="278" type="line"/>
      <point x="248" y="87" type="line"/>
      <point x="245" y="75"/>
      <point x="256" y="61"/>
      <point x="265" y="61" type="qcurve"/>
      <point x="272" y="61"/>
      <point x="280" y="66" type="qcurve"/>
      <point x="413" y="156" type="line"/>
      <point x="453" y="97" type="line"/>
      <point x="320" y="7" type="line"/>
      <point x="288" y="-14"/>
      <point x="254" y="-14" type="qcurve"/>
      <point x="219" y="-14"/>
      <point x="169" y="28"/>
      <point x="169" y="70" type="qcurve"/>
      <point x="169" y="77"/>
      <point x="171" y="92"/>
      <point x="173" y="100" type="qcurve"/>
      <point x="210" y="278" type="line"/>
      <point x="99" y="278" type="line"/>
      <point x="99" y="350" type="line"/>
      <point x="225" y="350" type="line"/>
      <point x="241" y="424" type="line"/>
      <point x="85" y="424" type="line"/>
    </contour>
  </outline>
</glyph>
<glyph name="florin" format="1">
  <advance width="612"/>
  <unicode hex="0192"/>
  <outline>
    <contour>
      <point x="286" y="438" type="line"/>
      <point x="304" y="520" type="line"/>
      <point x="312" y="556"/>
      <point x="361" y="598"/>
      <point x="399" y="598" type="qcurve"/>
      <point x="512" y="598" type="line"/>
      <point x="512" y="526" type="line"/>
      <point x="410" y="526" type="line"/>
      <point x="383" y="526"/>
      <point x="377" y="496" type="qcurve"/>
      <point x="364" y="438" type="line"/>
      <point x="439" y="438" type="line"/>
      <point x="439" y="366" type="line"/>
      <point x="349" y="366" type="line"/>
      <point x="309" y="180" type="line"/>
      <point x="301" y="144"/>
      <point x="253" y="102"/>
      <point x="215" y="102" type="qcurve"/>
      <point x="101" y="102" type="line"/>
      <point x="101" y="174" type="line"/>
      <point x="203" y="174" type="line"/>
      <point x="230" y="174"/>
      <point x="236" y="204" type="qcurve"/>
      <point x="271" y="366" type="line"/>
      <point x="196" y="366" type="line"/>
      <point x="196" y="438" type="line"/>
    </contour>
  </outline>
</glyph>
<glyph name="uni01AF" format="1">
  <advance width="612"/>
  <unicode hex="01AF"/>
  <outline>
    <contour>
      <point x="531" y="630" type="qcurve"/>
      <point x="531" y="659"/>
      <point x="572" y="700"/>
      <point x="601" y="700" type="qcurve"/>
      <point x="630" y="700"/>
      <point x="671" y="659"/>
      <point x="671" y="630" type="qcurve"/>
      <point x="671" y="623"/>
      <point x="670" y="618" type="qcurve"/>
      <point x="652" y="532" type="line"/>
      <point x="644" y="494"/>
      <point x="598" y="454"/>
      <point x="559" y="454" type="qcurve"/>
      <point x="459" y="454" type="line"/>
      <point x="406" y="202" type="line"/>
      <point x="394" y="143"/>
      <point x="350" y="61"/>
      <point x="289" y="9"/>
      <point x="212" y="-14"/>
      <point x="167" y="-14" type="qcurve"/>
      <point x="132" y="-14"/>
      <point x="73" y="6"/>
      <point x="30" y="46"/>
      <point x="5" y="108"/>
      <point x="5" y="149" type="qcurve"/>
      <point x="5" y="165"/>
      <point x="9" y="198"/>
      <point x="13" y="217" type="qcurve"/>
      <point x="115" y="700" type="line"/>
      <point x="199" y="700" type="line"/>
      <point x="94" y="206" type="line"/>
      <point x="88" y="177"/>
      <point x="88" y="155" type="qcurve"/>
      <point x="88" y="106"/>
      <point x="137" y="62"/>
      <point x="178" y="62" type="qcurve"/>
      <point x="234" y="62"/>
      <point x="306" y="131"/>
      <point x="322" y="206" type="qcurve"/>
      <point x="427" y="700" type="line"/>
      <point x="511" y="700" type="line"/>
      <point x="471" y="508" type="line"/>
      <point x="566" y="508" type="line"/>
      <point x="594" y="508"/>
      <point x="600" y="538" type="qcurve"/>
      <point x="605" y="560" type="line"/>
      <point x="601" y="560" type="line"/>
      <point x="572" y="560"/>
      <point x="531" y="601"/>
    </contour>
  </outline>
</glyph>
<glyph name="uni01EA" format="1">
  <advance width="612"/>
  <unicode hex="01EA"/>
  <outline>
    <contour>
      <point x="77" y="428" type="line"/>
      <point x="106" y="568"/>
      <point x="253" y="714"/>
      <point x="377" y="714" type="qcurve"/>
      <point x="474" y="714"/>
      <point x="577" y="603"/>
      <point x="577" y="505" type="qcurve"/>
      <point x="577" y="485"/>
      <point x="572" y="440"/>
      <point x="567" y="417" type="qcurve"/>
      <point x="536" y="272" type="line"/>
      <point x="520" y="197"/>
      <point x="459" y="75"/>
      <point x="405" y="36" type="qcurve"/>
      <point x="265" y="-67" type="line"/>
      <point x="255" y="-74"/>
      <point x="255" y="-84" type="qcurve"/>
      <point x="255" y="-98"/>
      <point x="271" y="-98" type="qcurve"/>
      <point x="358" y="-98" type="line"/>
      <point x="358" y="-164" type="line"/>
      <point x="254" y="-164" type="line"/>
      <point x="221" y="-164"/>
      <point x="180" y="-121"/>
      <point x="180" y="-92" type="qcurve"/>
      <point x="180" y="-74"/>
      <point x="200" y="-36"/>
      <point x="221" y="-21" type="qcurve"/>
      <point x="231" y="-14" type="line"/>
      <point x="136" y="-12"/>
      <point x="36" y="98"/>
      <point x="36" y="195" type="qcurve"/>
      <point x="36" y="215"/>
      <point x="41" y="260"/>
      <point x="46" y="283" type="qcurve"/>
    </contour>
    <contour>
      <point x="248" y="62" type="qcurve"/>
      <point x="289" y="62"/>
      <point x="356" y="93"/>
      <point x="407" y="150"/>
      <point x="442" y="229"/>
      <point x="453" y="278" type="qcurve"/>
      <point x="485" y="428" type="line"/>
      <point x="493" y="468"/>
      <point x="493" y="498" type="qcurve"/>
      <point x="493" y="563"/>
      <point x="429" y="638"/>
      <point x="365" y="638" type="qcurve"/>
      <point x="282" y="638"/>
      <point x="181" y="520"/>
      <point x="160" y="422" type="qcurve"/>
      <point x="128" y="272" type="line"/>
      <point x="120" y="232"/>
      <point x="120" y="202" type="qcurve"/>
      <point x="120" y="137"/>
      <point x="184" y="62"/>
    </contour>
  </outline>
</glyph>
<glyph name="uni0265" format="1">
  <advance width="612"/>
  <unicode hex="0265"/>
  <outline>
    <contour>
      <point x="341" y="-200" type="line"/>
      <point x="397" y="74" type="line"/>
      <point x="385" y="74" type="line"/>
      <point x="360" y="27"/>
      <point x="280" y="-14"/>
      <point x="230" y="-14" type="qcurve"/>
      <point x="164" y="-14"/>
      <point x="77" y="69"/>
      <point x="77" y="144" type="qcurve"/>
      <point x="77" y="176"/>
      <point x="84" y="208" type="qcurve"/>
      <point x="128" y="417" type="line"/>
      <point x="130" y="424"/>
      <point x="122" y="432"/>
      <point x="116" y="432" type="qcurve"/>
      <point x="109" y="432"/>
      <point x="103" y="427" type="qcurve"/>
      <point x="64" y="399" type="line"/>
      <point x="22" y="458" type="line"/>
      <point x="68" y="491" type="line"/>
      <point x="95" y="510"/>
      <point x="129" y="510" type="qcurve"/>
      <point x="160" y="510"/>
      <point x="207" y="474"/>
      <point x="207" y="436" type="qcurve"/>
      <point x="207" y="425"/>
      <point x="204" y="410" type="qcurve"/>
      <point x="158" y="202" type="line"/>
      <point x="155" y="187"/>
      <point x="152" y="167"/>
      <point x="152" y="156" type="qcurve"/>
      <point x="152" y="104"/>
      <point x="213" y="60"/>
      <point x="258" y="60" type="qcurve"/>
      <point x="326" y="60"/>
      <point x="415" y="157"/>
      <point x="432" y="238" type="qcurve"/>
      <point x="487" y="496" type="line"/>
      <point x="564" y="496" type="line"/>
      <point x="416" y="-200" type="line"/>
    </contour>
  </outline>
</glyph>
<glyph name="uni026F" format="1">
  <advance width="612"/>
  <unicode hex="026F"/>
  <outline>
    <contour>
      <point x="210" y="496" type="line"/>
      <point x="132" y="124" type="line"/>
      <point x="131" y="119"/>
      <point x="130" y="111"/>
      <point x="130" y="106" type="qcurve"/>
      <point x="130" y="86"/>
      <point x="152" y="60"/>
      <point x="175" y="60" type="qcurve"/>
      <point x="204" y="60"/>
      <point x="237" y="100"/>
      <point x="245" y="136" type="qcurve"/>
      <point x="322" y="496" type="line"/>
      <point x="400" y="496" type="line"/>
      <point x="321" y="124" type="line"/>
      <point x="319" y="116"/>
      <point x="319" y="108"/>
      <point x="319" y="103" type="qcurve"/>
      <point x="319" y="85"/>
      <point x="338" y="60"/>
      <point x="363" y="60" type="qcurve"/>
      <point x="395" y="60"/>
      <point x="427" y="106"/>
      <point x="434" y="136" type="qcurve"/>
      <point x="511" y="496" type="line"/>
      <point x="588" y="496" type="line"/>
      <point x="500" y="80" type="line"/>
      <point x="498" y="69"/>
      <point x="506" y="58"/>
      <point x="514" y="58" type="qcurve"/>
      <point x="522" y="58"/>
      <point x="527" y="62" type="qcurve"/>
      <point x="578" y="97" type="line"/>
      <point x="618" y="38" type="line"/>
      <point x="576" y="10" type="line"/>
      <point x="557" y="-3"/>
      <point x="521" y="-14"/>
      <point x="504" y="-14" type="qcurve"/>
      <point x="474" y="-14"/>
      <point x="430" y="19"/>
      <point x="424" y="48" type="qcurve"/>
      <point x="412" y="48" type="line"/>
      <point x="397" y="15"/>
      <point x="350" y="-14"/>
      <point x="317" y="-14" type="qcurve"/>
      <point x="287" y="-14"/>
      <point x="246" y="19"/>
      <point x="244" y="48" type="qcurve"/>
      <point x="232" y="48" type="line"/>
      <point x="215" y="16"/>
      <point x="172" y="-14"/>
      <point x="139" y="-14" type="qcurve"/>
      <point x="94" y="-14"/>
      <point x="48" y="37"/>
      <point x="48" y="79" type="qcurve"/>
      <point x="48" y="97"/>
      <point x="53" y="120" type="qcurve"/>
      <point x="133" y="496" type="line"/>
    </contour>
  </outline>
</glyph>
<glyph name="uni0279" format="1">
  <advance width="612"/>
  <unicode hex="0279"/>
  <outline>
    <contour>
      <point x="421" y="86" type="line"/>
      <point x="418" y="73"/>
      <point x="430" y="61"/>
      <point x="439" y="61" type="qcurve"/>
      <point x="447" y="61"/>
      <point x="454" y="66" type="qcurve"/>
      <point x="545" y="128" type="line"/>
      <point x="585" y="69" type="line"/>
      <point x="496" y="9" type="line"/>
      <point x="462" y="-14"/>
      <point x="427" y="-14" type="qcurve"/>
      <point x="396" y="-14"/>
      <point x="350" y="23"/>
      <point x="347" y="60" type="qcurve"/>
      <point x="335" y="60" type="line"/>
      <point x="306" y="19"/>
      <point x="234" y="-14"/>
      <point x="195" y="-14" type="qcurve"/>
      <point x="123" y="-14"/>
      <point x="41" y="69"/>
      <point x="41" y="137" type="qcurve"/>
      <point x="41" y="163"/>
      <point x="47" y="190" type="qcurve"/>
      <point x="132" y="196" type="line"/>
      <point x="127" y="171"/>
      <point x="127" y="154" type="qcurve"/>
      <point x="127" y="106"/>
      <point x="180" y="60"/>
      <point x="222" y="60" type="qcurve"/>
      <point x="252" y="60"/>
      <point x="301" y="83"/>
      <point x="337" y="122"/>
      <point x="362" y="173"/>
      <point x="368" y="202" type="qcurve"/>
      <point x="415" y="424" type="line"/>
      <point x="297" y="424" type="line"/>
      <point x="297" y="496" type="line"/>
      <point x="615" y="496" type="line"/>
      <point x="615" y="424" type="line"/>
      <point x="493" y="424" type="line"/>
    </contour>
  </outline>
</glyph>
<glyph name="uni0287" format="1">
  <advance width="612"/>
  <unicode hex="0287"/>
  <outline>
    <contour>
      <point x="511" y="0" type="line"/>
      <point x="339" y="0" type="line"/>
      <point x="297" y="-200" type="line"/>
      <point x="219" y="-200" type="line"/>
      <point x="261" y="0" type="line"/>
      <point x="85" y="0" type="line"/>
      <point x="85" y="72" type="line"/>
      <point x="277" y="72" type="line"/>
      <point x="348" y="409" type="line"/>
      <point x="351" y="421"/>
      <point x="340" y="435"/>
      <point x="331" y="435" type="qcurve"/>
      <point x="324" y="435"/>
      <point x="316" y="430" type="qcurve"/>
      <point x="183" y="340" type="line"/>
      <point x="143" y="399" type="line"/>
      <point x="276" y="489" type="line"/>
      <point x="307" y="510"/>
      <point x="342" y="510" type="qcurve"/>
      <point x="376" y="510"/>
      <point x="426" y="468"/>
      <point x="426" y="426" type="qcurve"/>
      <point x="426" y="412"/>
      <point x="423" y="396" type="qcurve"/>
      <point x="355" y="72" type="line"/>
      <point x="511" y="72" type="line"/>
    </contour>
  </outline>
</glyph>
<glyph name="uni028C" format="1">
  <advance width="612"/>
  <unicode hex="028C"/>
  <outline>
    <contour>
      <point x="280" y="496" type="line"/>
      <point x="434" y="496" type="line"/>
      <point x="502" y="0" type="line"/>
      <point x="414" y="0" type="line"/>
      <point x="360" y="460" type="line"/>
      <point x="348" y="460" type="line"/>
      <point x="98" y="0" type="line"/>
      <point x="2" y="0" type="line"/>
    </contour>
  </outline>
</glyph>
<glyph name="uni028E" format="1">
  <advance width="612"/>
  <unicode hex="028E"/>
  <outline>
    <contour>
      <point x="333" y="436" type="line"/>
      <point x="321" y="436" type="line"/>
      <point x="78" y="0" type="line"/>
      <point x="-19" y="0" type="line"/>
      <point x="267" y="496" type="line"/>
      <point x="297" y="496" type="line"/>
      <point x="324" y="622" type="line"/>
      <point x="332" y="656"/>
      <point x="384" y="700"/>
      <point x="418" y="700" type="qcurve"/>
      <point x="584" y="700" type="line"/>
      <point x="584" y="628" type="line"/>
      <point x="431" y="628" type="line"/>
      <point x="403" y="628"/>
      <point x="397" y="598" type="qcurve"/>
      <point x="375" y="496" type="line"/>
      <point x="405" y="496" type="line"/>
      <point x="469" y="78" type="line"/>
      <point x="472" y="62"/>
      <point x="487" y="62" type="qcurve"/>
      <point x="496" y="62"/>
      <point x="504" y="71" type="qcurve"/>
      <point x="553" y="133" type="line"/>
      <point x="609" y="88" type="line"/>
      <point x="561" y="26" type="line"/>
      <point x="545" y="6"/>
      <point x="500" y="-14"/>
      <point x="477" y="-14" type="qcurve"/>
      <point x="442" y="-14"/>
      <point x="386" y="28"/>
      <point x="382" y="70" type="qcurve"/>
    </contour>
  </outline>
</glyph>
<glyph name="uni029E" format="1">
  <advance width="612"/>
  <unicode hex="029E"/>
  <outline>
    <contour>
      <point x="534" y="496" type="line"/>
      <point x="405" y="-112" type="line"/>
      <point x="403" y="-124"/>
      <point x="413" y="-135"/>
      <point x="421" y="-135" type="qcurve"/>
      <point x="426" y="-135"/>
      <point x="431" y="-132" type="qcurve"/>
      <point x="482" y="-97" type="line"/>
      <point x="522" y="-156" type="line"/>
      <point x="470" y="-191" type="line"/>
      <point x="438" y="-212"/>
      <point x="407" y="-212" type="qcurve"/>
      <point x="374" y="-212"/>
      <point x="326" y="-168"/>
      <point x="326" y="-129" type="qcurve"/>
      <point x="326" y="-118"/>
      <point x="329" y="-103" type="qcurve"/>
      <point x="394" y="206" type="line"/>
      <point x="382" y="206" type="line"/>
      <point x="147" y="0" type="line"/>
      <point x="41" y="0" type="line"/>
      <point x="307" y="233" type="line"/>
      <point x="307" y="251" type="line"/>
      <point x="178" y="427" type="line"/>
      <point x="172" y="434"/>
      <point x="165" y="434" type="qcurve"/>
      <point x="159" y="434"/>
      <point x="152" y="429" type="qcurve"/>
      <point x="104" y="394" type="line"/>
      <point x="62" y="453" type="line"/>
      <point x="107" y="487" type="line"/>
      <point x="121" y="498"/>
      <point x="151" y="510"/>
      <point x="168" y="510" type="qcurve"/>
      <point x="188" y="510"/>
      <point x="225" y="490"/>
      <point x="242" y="467" type="qcurve"/>
      <point x="380" y="278" type="line"/>
      <point x="410" y="278" type="line"/>
      <point x="456" y="496" type="line"/>
    </contour>
  </outline>
</glyph>
<glyph name="caron" format="1">
  <advance width="612"/>
  <unicode hex="02C7"/>
  <outline>
    <contour>
      <point x="513" y="688" type="line"/>
      <point x="513" y="682" type="line"/>
      <point x="413" y="570" type="line"/>
      <point x="289" y="570" type="line"/>
      <point x="234" y="688" type="line"/>
      <point x="315" y="688" type="line"/>
      <point x="349" y="600" type="line"/>
      <point x="361" y="600" type="line"/>
      <point x="430" y="688" type="line"/>
    </contour>
  </outline>
</glyph>
<glyph name="ring" format="1">
  <advance width="612"/>
  <unicode hex="02DA"/>
  <outline>
    <contour>
      <point x="204" y="672" type="qcurve"/>
      <point x="204" y="715"/>
      <point x="263" y="774"/>
      <point x="306" y="774" type="qcurve"/>
      <point x="349" y="774"/>
      <point x="408" y="715"/>
      <point x="408" y="672" type="qcurve"/>
      <point x="408" y="629"/>
      <point x="349" y="570"/>
      <point x="306" y="570" type="qcurve"/>
      <point x="263" y="570"/>
      <point x="204" y="629"/>
    </contour>
    <contour>
      <point x="264" y="672" type="qcurve"/>
      <point x="264" y="654"/>
      <point x="288" y="630"/>
      <point x="306" y="630" type="qcurve"/>
      <point x="324" y="630"/>
      <point x="348" y="654"/>
      <point x="348" y="672" type="qcurve"/>
      <point x="348" y="690"/>
      <point x="324" y="714"/>
      <point x="306" y="714" type="qcurve"/>
      <point x="288" y="714"/>
      <point x="264" y="690"/>
    </contour>
  </outline>
</glyph>
<glyph name="hungarumlaut" format="1">
  <advance width="612"/>
  <unicode hex="02DD"/>
  <outline>
    <contour>
      <point x="371" y="688" type="line"/>
      <point x="371" y="682" type="line"/>
      <point x="268" y="570" type="line"/>
      <point x="188" y="570" type="line"/>
      <point x="279" y="688" type="line"/>
    </contour>
    <contour>
      <point x="530" y="688" type="line"/>
      <point x="530" y="682" type="line"/>
      <point x="427" y="570" type="line"/>
      <point x="347" y="570" type="line"/>
      <point x="438" y="688" type="line"/>
    </contour>
  </outline>
</glyph>
<glyph name="uni1E9E" format="1">
  <advance width="612"/>
  <unicode hex="1E9E"/>
  <outline>
    <contour>
      <point x="262" y="348" type="line"/>
      <point x="262" y="468" type="line"/>
      <point x="504" y="611" type="line"/>
      <point x="504" y="622" type="line"/>
      <point x="360" y="622" type="line"/>
      <point x="300" y="622"/>
      <point x="225" y="562"/>
      <point x="211" y="496" type="qcurve"/>
      <point x="105" y="0" type="line"/>
      <point x="21" y="0" type="line"/>
      <point x="110" y="418" type="line"/>
      <point x="50" y="418" type="line"/>
      <point x="50" y="496" type="line"/>
      <point x="127" y="496" type="line"/>
      <point x="130" y="510" type="line"/>
      <point x="171" y="700"/>
      <point x="366" y="700" type="qcurve"/>
      <point x="576" y="700" type="line"/>
      <point x="576" y="576" type="line"/>
      <point x="328" y="426" type="line"/>
      <point x="328" y="414" type="line"/>
      <point x="374" y="414" type="line"/>
      <point x="410" y="414"/>
      <point x="472" y="393"/>
      <point x="518" y="349"/>
      <point x="544" y="282"/>
      <point x="544" y="236" type="qcurve"/>
      <point x="544" y="183"/>
      <point x="504" y="97"/>
      <point x="429" y="34"/>
      <point x="321" y="0"/>
      <point x="254" y="0" type="qcurve"/>
      <point x="183" y="0" type="line"/>
      <point x="183" y="78" type="line"/>
      <point x="269" y="78" type="line"/>
      <point x="311" y="78"/>
      <point x="382" y="100"/>
      <point x="432" y="140"/>
      <point x="460" y="198"/>
      <point x="460" y="234" type="qcurve"/>
      <point x="460" y="293"/>
      <point x="397" y="348"/>
      <point x="340" y="348" type="qcurve"/>
    </contour>
  </outline>
</glyph>
<glyph name="uni1EA2" format="1">
  <advance width="612"/>
  <unicode hex="1EA2"/>
  <outline>
    <contour>
      <point x="360" y="750" type="line"/>
      <point x="360" y="842" type="line"/>
      <point x="365" y="848" type="line"/>
      <point x="437" y="848" type="line"/>
      <point x="446" y="833"/>
      <point x="465" y="833" type="qcurve"/>
      <point x="503" y="833"/>
      <point x="503" y="874" type="qcurve"/>
      <point x="503" y="892"/>
      <point x="481" y="914"/>
      <point x="461" y="914" type="qcurve"/>
      <point x="443" y="914"/>
      <point x="419" y="892"/>
      <point x="414" y="874" type="qcurve"/>
      <point x="369" y="892" type="line"/>
      <point x="381" y="922"/>
      <point x="426" y="962"/>
      <point x="467" y="962" type="qcurve"/>
      <point x="506" y="962"/>
      <point x="557" y="914"/>
      <point x="557" y="878" type="qcurve"/>
      <point x="557" y="840"/>
      <point x="509" y="786"/>
      <point x="473" y="786" type="qcurve"/>
      <point x="452" y="786"/>
      <point x="421" y="803"/>
      <point x="415" y="818" type="qcurve"/>
      <point x="409" y="818" type="line"/>
      <point x="409" y="750" type="line"/>
    </contour>
    <component base="A"/>
  </outline>
</glyph>
<glyph name="uni1EA3" format="1">
  <advance width="612"/>
  <unicode hex="1EA3"/>
  <outline>
    <contour>
      <point x="262" y="546" type="line"/>
      <point x="262" y="638" type="line"/>
      <point x="267" y="644" type="line"/>
      <point x="339" y="644" type="line"/>
      <point x="348" y="629"/>
      <point x="367" y="629" type="qcurve"/>
      <point x="405" y="629"/>
      <point x="405" y="670" type="qcurve"/>
      <point x="405" y="688"/>
      <point x="383" y="710"/>
      <point x="363" y="710" type="qcurve"/>
      <point x="345" y="710"/>
      <point x="321" y="688"/>
      <point x="316" y="670" type="qcurve"/>
      <point x="271" y="688" type="line"/>
      <point x="283" y="718"/>
      <point x="328" y="758"/>
      <point x="369" y="758" type="qcurve"/>
      <point x="408" y="758"/>
      <point x="459" y="710"/>
      <point x="459" y="674" type="qcurve"/>
      <point x="459" y="636"/>
      <point x="411" y="582"/>
      <point x="375" y="582" type="qcurve"/>
      <point x="354" y="582"/>
      <point x="323" y="599"/>
      <point x="317" y="614" type="qcurve"/>
      <point x="311" y="614" type="line"/>
      <point x="311" y="546" type="line"/>
    </contour>
    <component base="a"/>
  </outline>
</glyph>
<glyph name="uni1EA9" format="1">
  <advance width="612"/>
  <unicode hex="1EA9"/>
  <outline>
    <contour>
      <point x="434" y="658" type="line"/>
      <point x="434" y="750" type="line"/>
      <point x="439" y="756" type="line"/>
      <point x="511" y="756" type="line"/>
      <point x="520" y="741"/>
      <point x="539" y="741" type="qcurve"/>
      <point x="577" y="741"/>
      <point x="577" y="782" type="qcurve"/>
      <point x="577" y="800"/>
      <point x="555" y="822"/>
      <point x="535" y="822" type="qcurve"/>
      <point x="517" y="822"/>
      <point x="493" y="800"/>
      <point x="488" y="782" type="qcurve"/>
      <point x="443" y="800" type="line"/>
      <point x="455" y="830"/>
      <point x="500" y="870"/>
      <point x="541" y="870" type="qcurve"/>
      <point x="580" y="870"/>
      <point x="631" y="822"/>
      <point x="631" y="786" type="qcurve"/>
      <point x="631" y="748"/>
      <point x="583" y="694"/>
      <point x="547" y="694" type="qcurve"/>
      <point x="526" y="694"/>
      <point x="495" y="711"/>
      <point x="489" y="726" type="qcurve"/>
      <point x="483" y="726" type="line"/>
      <point x="483" y="658" type="line"/>
    </contour>
    <component base="a"/>
    <component base="circumflex" xOffset="-50"/>
  </outline>
</glyph>
<glyph name="uni1EB2" format="1">
  <advance width="612"/>
  <unicode hex="1EB2"/>
  <outline>
    <contour>
      <point x="393" y="878" type="line"/>
      <point x="393" y="970" type="line"/>
      <point x="398" y="976" type="line"/>
      <point x="470" y="976" type="line"/>
      <point x="479" y="961"/>
      <point x="498" y="961" type="qcurve"/>
      <point x="536" y="961"/>
      <point x="536" y="1002" type="qcurve"/>
      <point x="536" y="1020"/>
      <point x="514" y="1042"/>
      <point x="494" y="1042" type="qcurve"/>
      <point x="476" y="1042"/>
      <point x="452" y="1020"/>
      <point x="447" y="1002" type="qcurve"/>
      <point x="402" y="1020" type="line"/>
      <point x="414" y="1050"/>
      <point x="459" y="1090"/>
      <point x="500" y="1090" type="qcurve"/>
      <point x="539" y="1090"/>
      <point x="590" y="1042"/>
      <point x="590" y="1006" type="qcurve"/>
      <point x="590" y="968"/>
      <point x="542" y="914"/>
      <point x="506" y="914" type="qcurve"/>
      <point x="485" y="914"/>
      <point x="454" y="931"/>
      <point x="448" y="946" type="qcurve"/>
      <point x="442" y="946" type="line"/>
      <point x="442" y="878" type="line"/>
    </contour>
    <component base="A"/>
    <component base="breve" xOffset="39" yOffset="160"/>
  </outline>
</glyph>
<glyph name="uni1EB3" format="1">
  <advance width="612"/>
  <unicode hex="1EB3"/>
  <outline>
    <contour>
      <point x="312" y="718" type="line"/>
      <point x="312" y="810" type="line"/>
      <point x="317" y="816" type="line"/>
      <point x="389" y="816" type="line"/>
      <point x="396" y="802"/>
      <point x="415" y="802" type="qcurve"/>
      <point x="433" y="802"/>
      <point x="455" y="827"/>
      <point x="455" y="844" type="qcurve"/>
      <point x="455" y="861"/>
      <point x="436" y="882"/>
      <point x="419" y="882" type="qcurve"/>
      <point x="397" y="882"/>
      <point x="373" y="857"/>
      <point x="366" y="842" type="qcurve"/>
      <point x="322" y="860" type="line"/>
      <point x="335" y="890"/>
      <point x="385" y="930"/>
      <point x="424" y="930" type="qcurve"/>
      <point x="462" y="930"/>
      <point x="510" y="882"/>
      <point x="510" y="846" type="qcurve"/>
      <point x="510" y="827"/>
      <point x="496" y="794"/>
      <point x="471" y="769"/>
      <point x="438" y="754"/>
      <point x="419" y="754" type="qcurve"/>
      <point x="380" y="754"/>
      <point x="367" y="786" type="qcurve"/>
      <point x="361" y="786" type="line"/>
      <point x="361" y="718" type="line"/>
    </contour>
    <component base="breve" xOffset="-37"/>
    <component base="a"/>
  </outline>
</glyph>
<glyph name="uni1EBB" format="1">
  <advance width="612"/>
  <unicode hex="1EBB"/>
  <outline>
    <contour>
      <point x="308" y="546" type="line"/>
      <point x="308" y="638" type="line"/>
      <point x="313" y="644" type="line"/>
      <point x="385" y="644" type="line"/>
      <point x="394" y="629"/>
      <point x="413" y="629" type="qcurve"/>
      <point x="451" y="629"/>
      <point x="451" y="670" type="qcurve"/>
      <point x="451" y="688"/>
      <point x="429" y="710"/>
      <point x="409" y="710" type="qcurve"/>
      <point x="391" y="710"/>
      <point x="367" y="688"/>
      <point x="362" y="670" type="qcurve"/>
      <point x="317" y="688" type="line"/>
      <point x="329" y="718"/>
      <point x="374" y="758"/>
      <point x="415" y="758" type="qcurve"/>
      <point x="454" y="758"/>
      <point x="505" y="710"/>
      <point x="505" y="674" type="qcurve"/>
      <point x="505" y="636"/>
      <point x="457" y="582"/>
      <point x="421" y="582" type="qcurve"/>
      <point x="400" y="582"/>
      <point x="369" y="599"/>
      <point x="363" y="614" type="qcurve"/>
      <point x="357" y="614" type="line"/>
      <point x="357" y="546" type="line"/>
    </contour>
    <component base="e"/>
  </outline>
</glyph>
<glyph name="uni1EC9" format="1">
  <advance width="612"/>
  <unicode hex="1EC9"/>
  <outline>
    <contour>
      <point x="310" y="546" type="line"/>
      <point x="310" y="638" type="line"/>
      <point x="315" y="644" type="line"/>
      <point x="387" y="644" type="line"/>
      <point x="394" y="630"/>
      <point x="413" y="630" type="qcurve"/>
      <point x="431" y="630"/>
      <point x="453" y="655"/>
      <point x="453" y="672" type="qcurve"/>
      <point x="453" y="689"/>
      <point x="434" y="710"/>
      <point x="417" y="710" type="qcurve"/>
      <point x="395" y="710"/>
      <point x="371" y="685"/>
      <point x="364" y="670" type="qcurve"/>
      <point x="320" y="688" type="line"/>
      <point x="333" y="718"/>
      <point x="383" y="758"/>
      <point x="422" y="758" type="qcurve"/>
      <point x="460" y="758"/>
      <point x="508" y="710"/>
      <point x="508" y="674" type="qcurve"/>
      <point x="508" y="655"/>
      <point x="494" y="622"/>
      <point x="469" y="597"/>
      <point x="436" y="582"/>
      <point x="417" y="582" type="qcurve"/>
      <point x="378" y="582"/>
      <point x="365" y="614" type="qcurve"/>
      <point x="359" y="614" type="line"/>
      <point x="359" y="546" type="line"/>
    </contour>
    <component base="dotlessi"/>
  </outline>
</glyph>
<glyph name="uni1ECF" format="1">
  <advance width="612"/>
  <unicode hex="1ECF"/>
  <outline>
    <contour>
      <point x="312" y="546" type="line"/>
      <point x="312" y="638" type="line"/>
      <point x="317" y="644" type="line"/>
      <point x="389" y="644" type="line"/>
      <point x="396" y="630"/>
      <point x="415" y="630" type="qcurve"/>
      <point x="433" y="630"/>
      <point x="455" y="655"/>
      <point x="455" y="672" type="qcurve"/>
      <point x="455" y="689"/>
      <point x="436" y="710"/>
      <point x="419" y="710" type="qcurve"/>
      <point x="397" y="710"/>
      <point x="373" y="685"/>
      <point x="366" y="670" type="qcurve"/>
      <point x="322" y="688" type="line"/>
      <point x="335" y="718"/>
      <point x="385" y="758"/>
      <point x="424" y="758" type="qcurve"/>
      <point x="462" y="758"/>
      <point x="510" y="710"/>
      <point x="510" y="674" type="qcurve"/>
      <point x="510" y="655"/>
      <point x="496" y="622"/>
      <point x="471" y="597"/>
      <point x="438" y="582"/>
      <point x="419" y="582" type="qcurve"/>
      <point x="380" y="582"/>
      <point x="367" y="614" type="qcurve"/>
      <point x="361" y="614" type="line"/>
      <point x="361" y="546" type="line"/>
    </contour>
    <component base="o"/>
  </outline>
</glyph>
<glyph name="uni1ED4" format="1">
  <advance width="612"/>
  <unicode hex="1ED4"/>
  <outline>
    <contour>
      <point x="538" y="858" type="line"/>
      <point x="538" y="950" type="line"/>
      <point x="543" y="956" type="line"/>
      <point x="615" y="956" type="line"/>
      <point x="624" y="941"/>
      <point x="643" y="941" type="qcurve"/>
      <point x="681" y="941"/>
      <point x="681" y="982" type="qcurve"/>
      <point x="681" y="1000"/>
      <point x="659" y="1022"/>
      <point x="639" y="1022" type="qcurve"/>
      <point x="621" y="1022"/>
      <point x="597" y="1000"/>
      <point x="592" y="982" type="qcurve"/>
      <point x="547" y="1000" type="line"/>
      <point x="559" y="1030"/>
      <point x="604" y="1070"/>
      <point x="645" y="1070" type="qcurve"/>
      <point x="684" y="1070"/>
      <point x="735" y="1022"/>
      <point x="735" y="986" type="qcurve"/>
      <point x="735" y="948"/>
      <point x="687" y="894"/>
      <point x="651" y="894" type="qcurve"/>
      <point x="630" y="894"/>
      <point x="599" y="911"/>
      <point x="593" y="926" type="qcurve"/>
      <point x="587" y="926" type="line"/>
      <point x="587" y="858" type="line"/>
    </contour>
    <component base="O"/>
    <component base="circumflex" xOffset="52" yOffset="204"/>
  </outline>
</glyph>
<glyph name="uni1ED5" format="1">
  <advance width="612"/>
  <unicode hex="1ED5"/>
  <outline>
    <contour>
      <point x="495" y="658" type="line"/>
      <point x="495" y="750" type="line"/>
      <point x="500" y="756" type="line"/>
      <point x="572" y="756" type="line"/>
      <point x="579" y="742"/>
      <point x="598" y="742" type="qcurve"/>
      <point x="616" y="742"/>
      <point x="638" y="767"/>
      <point x="638" y="784" type="qcurve"/>
      <point x="638" y="801"/>
      <point x="619" y="822"/>
      <point x="602" y="822" type="qcurve"/>
      <point x="580" y="822"/>
      <point x="556" y="797"/>
      <point x="549" y="782" type="qcurve"/>
      <point x="505" y="800" type="line"/>
      <point x="518" y="830"/>
      <point x="568" y="870"/>
      <point x="607" y="870" type="qcurve"/>
      <point x="645" y="870"/>
      <point x="693" y="822"/>
      <point x="693" y="786" type="qcurve"/>
      <point x="693" y="767"/>
      <point x="679" y="734"/>
      <point x="654" y="709"/>
      <point x="621" y="694"/>
      <point x="602" y="694" type="qcurve"/>
      <point x="563" y="694"/>
      <point x="550" y="726" type="qcurve"/>
      <point x="544" y="726" type="line"/>
      <point x="544" y="658" type="line"/>
    </contour>
    <component base="o"/>
    <component base="circumflex" xOffset="7"/>
  </outline>
</glyph>
<glyph name="uni1EE7" format="1">
  <advance width="612"/>
  <unicode hex="1EE7"/>
  <outline>
    <contour>
      <point x="294" y="546" type="line"/>
      <point x="294" y="638" type="line"/>
      <point x="299" y="644" type="line"/>
      <point x="371" y="644" type="line"/>
      <point x="378" y="630"/>
      <point x="397" y="630" type="qcurve"/>
      <point x="415" y="630"/>
      <point x="437" y="655"/>
      <point x="437" y="672" type="qcurve"/>
      <point x="437" y="689"/>
      <point x="418" y="710"/>
      <point x="401" y="710" type="qcurve"/>
      <point x="379" y="710"/>
      <point x="355" y="685"/>
      <point x="348" y="670" type="qcurve"/>
      <point x="304" y="688" type="line"/>
      <point x="317" y="718"/>
      <point x="367" y="758"/>
      <point x="406" y="758" type="qcurve"/>
      <point x="444" y="758"/>
      <point x="492" y="710"/>
      <point x="492" y="674" type="qcurve"/>
      <point x="492" y="655"/>
      <point x="478" y="622"/>
      <point x="453" y="597"/>
      <point x="420" y="582"/>
      <point x="401" y="582" type="qcurve"/>
      <point x="362" y="582"/>
      <point x="349" y="614" type="qcurve"/>
      <point x="343" y="614" type="line"/>
      <point x="343" y="546" type="line"/>
    </contour>
    <component base="u"/>
  </outline>
</glyph>
<glyph name="uni1EEC" format="1">
  <advance width="612"/>
  <unicode hex="1EEC"/>
  <outline>
    <contour>
      <point x="286" y="750" type="line"/>
      <point x="286" y="842" type="line"/>
      <point x="291" y="848" type="line"/>
      <point x="363" y="848" type="line"/>
      <point x="370" y="834"/>
      <point x="389" y="834" type="qcurve"/>
      <point x="407" y="834"/>
      <point x="429" y="859"/>
      <point x="429" y="876" type="qcurve"/>
      <point x="429" y="893"/>
      <point x="410" y="914"/>
      <point x="393" y="914" type="qcurve"/>
      <point x="371" y="914"/>
      <point x="347" y="889"/>
      <point x="340" y="874" type="qcurve"/>
      <point x="296" y="892" type="line"/>
      <point x="309" y="922"/>
      <point x="359" y="962"/>
      <point x="398" y="962" type="qcurve"/>
      <point x="436" y="962"/>
      <point x="484" y="914"/>
      <point x="484" y="878" type="qcurve"/>
      <point x="484" y="859"/>
      <point x="470" y="826"/>
      <point x="445" y="801"/>
      <point x="412" y="786"/>
      <point x="393" y="786" type="qcurve"/>
      <point x="354" y="786"/>
      <point x="341" y="818" type="qcurve"/>
      <point x="335" y="818" type="line"/>
      <point x="335" y="750" type="line"/>
    </contour>
    <component base="uni01AF"/>
  </outline>
</glyph>
<glyph name="uni1EF5" format="1">
  <advance width="612"/>
  <unicode hex="1EF5"/>
  <outline>
    <contour>
      <point x="190" y="210" type="line"/>
      <point x="183" y="179"/>
      <point x="183" y="152" type="qcurve"/>
      <point x="183" y="60"/>
      <point x="282" y="60" type="qcurve"/>
      <point x="351" y="60"/>
      <point x="449" y="157"/>
      <point x="466" y="238" type="qcurve"/>
      <point x="520" y="496" type="line"/>
      <point x="598" y="496" type="line"/>
      <point x="474" y="-92" type="line"/>
      <point x="467" y="-126"/>
      <point x="415" y="-170"/>
      <point x="381" y="-170" type="qcurve"/>
      <point x="230" y="-170" type="line"/>
      <point x="230" y="-98" type="line"/>
      <point x="368" y="-98" type="line"/>
      <point x="395" y="-98"/>
      <point x="401" y="-68" type="qcurve"/>
      <point x="432" y="78" type="line"/>
      <point x="420" y="78" type="line"/>
      <point x="390" y="33"/>
      <point x="307" y="-14"/>
      <point x="250" y="-14" type="qcurve"/>
      <point x="183" y="-14"/>
      <point x="103" y="66"/>
      <point x="103" y="139" type="qcurve"/>
      <point x="103" y="169"/>
      <point x="110" y="200" type="qcurve"/>
      <point x="155" y="414" type="line"/>
      <point x="157" y="424"/>
      <point x="148" y="435"/>
      <point x="141" y="435" type="qcurve"/>
      <point x="135" y="435"/>
      <point x="128" y="430" type="qcurve"/>
      <point x="77" y="395" type="line"/>
      <point x="37" y="454" type="line"/>
      <point x="89" y="489" type="line"/>
      <point x="120" y="510"/>
      <point x="152" y="510" type="qcurve"/>
      <point x="185" y="510"/>
      <point x="233" y="466"/>
      <point x="233" y="427" type="qcurve"/>
      <point x="233" y="421"/>
      <point x="232" y="410"/>
      <point x="230" y="401" type="qcurve"/>
    </contour>
    <component base="period" xOffset="-140" yOffset="-190"/>
  </outline>
</glyph>
<glyph name="uni1EF6" format="1">
  <advance width="612"/>
  <unicode hex="1EF6"/>
  <outline>
    <contour>
      <point x="338" y="750" type="line"/>
      <point x="338" y="842" type="line"/>
      <point x="343" y="848" type="line"/>
      <point x="415" y="848" type="line"/>
      <point x="424" y="833"/>
      <point x="443" y="833" type="qcurve"/>
      <point x="481" y="833"/>
      <point x="481" y="874" type="qcurve"/>
      <point x="481" y="892"/>
      <point x="459" y="914"/>
      <point x="439" y="914" type="qcurve"/>
      <point x="421" y="914"/>
      <point x="397" y="892"/>
      <point x="392" y="874" type="qcurve"/>
      <point x="347" y="892" type="line"/>
      <point x="359" y="922"/>
      <point x="404" y="962"/>
      <point x="445" y="962" type="qcurve"/>
      <point x="484" y="962"/>
      <point x="535" y="914"/>
      <point x="535" y="878" type="qcurve"/>
      <point x="535" y="840"/>
      <point x="487" y="786"/>
      <point x="451" y="786" type="qcurve"/>
      <point x="430" y="786"/>
      <point x="399" y="803"/>
      <point x="393" y="818" type="qcurve"/>
      <point x="387" y="818" type="line"/>
      <point x="387" y="750" type="line"/>
    </contour>
    <component base="Y"/>
  </outline>
</glyph>
<glyph name="uni1EF7" format="1">
  <advance width="612"/>
  <unicode hex="1EF7"/>
  <outline>
    <contour>
      <point x="336" y="546" type="line"/>
      <point x="336" y="638" type="line"/>
      <point x="341" y="644" type="line"/>
      <point x="413" y="644" type="line"/>
      <point x="420" y="630"/>
      <point x="439" y="630" type="qcurve"/>
      <point x="457" y="630"/>
      <point x="479" y="655"/>
      <point x="479" y="672" type="qcurve"/>
      <point x="479" y="689"/>
      <point x="460" y="710"/>
      <point x="443" y="710" type="qcurve"/>
      <point x="421" y="710"/>
      <point x="397" y="685"/>
      <point x="390" y="670" type="qcurve"/>
      <point x="346" y="688" type="line"/>
      <point x="359" y="718"/>
      <point x="409" y="758"/>
      <point x="448" y="758" type="qcurve"/>
      <point x="486" y="758"/>
      <point x="534" y="710"/>
      <point x="534" y="674" type="qcurve"/>
      <point x="534" y="655"/>
      <point x="520" y="622"/>
      <point x="495" y="597"/>
      <point x="462" y="582"/>
      <point x="443" y="582" type="qcurve"/>
      <point x="404" y="582"/>
      <point x="391" y="614" type="qcurve"/>
      <point x="385" y="614" type="line"/>
      <point x="385" y="546" type="line"/>
    </contour>
    <component base="y"/>
  </outline>
</glyph>
<glyph name="quotedblbase" format="1">
  <advance width="612"/>
  <unicode hex="201E"/>
  <outline>
    <contour>
      <point x="90" y="70" type="qcurve"/>
      <point x="90" y="99"/>
      <point x="131" y="140"/>
      <point x="160" y="140" type="qcurve"/>
      <point x="189" y="140"/>
      <point x="230" y="99"/>
      <point x="230" y="70" type="qcurve"/>
      <point x="230" y="63"/>
      <point x="229" y="58" type="qcurve"/>
      <point x="211" y="-28" type="line"/>
      <point x="203" y="-66"/>
      <point x="157" y="-106"/>
      <point x="118" y="-106" type="qcurve"/>
      <point x="66" y="-106" type="line"/>
      <point x="66" y="-52" type="line"/>
      <point x="125" y="-52" type="line"/>
      <point x="153" y="-52"/>
      <point x="159" y="-22" type="qcurve"/>
      <point x="164" y="0" type="line"/>
      <point x="160" y="0" type="line"/>
      <point x="131" y="0"/>
      <point x="90" y="41"/>
    </contour>
    <contour>
      <point x="272" y="70" type="qcurve"/>
      <point x="272" y="99"/>
      <point x="313" y="140"/>
      <point x="342" y="140" type="qcurve"/>
      <point x="371" y="140"/>
      <point x="412" y="99"/>
      <point x="412" y="70" type="qcurve"/>
      <point x="412" y="63"/>
      <point x="411" y="58" type="qcurve"/>
      <point x="393" y="-28" type="line"/>
      <point x="385" y="-66"/>
      <point x="339" y="-106"/>
      <point x="300" y="-106" type="qcurve"/>
      <point x="248" y="-106" type="line"/>
      <point x="248" y="-52" type="line"/>
      <point x="307" y="-52" type="line"/>
      <point x="335" y="-52"/>
      <point x="341" y="-22" type="qcurve"/>
      <point x="346" y="0" type="line"/>
      <point x="342" y="0" type="line"/>
      <point x="313" y="0"/>
      <point x="272" y="41"/>
    </contour>
  </outline>
</glyph>
<glyph name="perthousand" format="1">
  <advance width="612"/>
  <unicode hex="2030"/>
  <outline>
    <contour>
      <point x="281" y="202" type="line"/>
      <point x="290" y="243"/>
      <point x="337" y="294"/>
      <point x="385" y="294" type="qcurve"/>
      <point x="406" y="294"/>
      <point x="438" y="275"/>
      <point x="443" y="262" type="qcurve"/>
      <point x="449" y="262" type="line"/>
      <point x="460" y="276"/>
      <point x="493" y="294"/>
      <point x="516" y="294" type="qcurve"/>
      <point x="549" y="294"/>
      <point x="587" y="257"/>
      <point x="587" y="224" type="qcurve"/>
      <point x="587" y="211"/>
      <point x="584" y="196" type="qcurve"/>
      <point x="559" y="81" type="line"/>
      <point x="551" y="41"/>
      <point x="502" y="-6"/>
      <point x="457" y="-6" type="qcurve"/>
      <point x="434" y="-6"/>
      <point x="405" y="12"/>
      <point x="398" y="26" type="qcurve"/>
      <point x="392" y="26" type="line"/>
      <point x="382" y="12"/>
      <point x="349" y="-6"/>
      <point x="325" y="-6" type="qcurve"/>
      <point x="293" y="-6"/>
      <point x="254" y="34"/>
      <point x="254" y="66" type="qcurve"/>
      <point x="254" y="72"/>
      <point x="255" y="82"/>
      <point x="257" y="90" type="qcurve"/>
    </contour>
    <contour>
      <point x="379" y="240" type="qcurve"/>
      <point x="363" y="240"/>
      <point x="345" y="219"/>
      <point x="341" y="202" type="qcurve"/>
      <point x="315" y="86" type="line"/>
      <point x="314" y="82"/>
      <point x="313" y="76"/>
      <point x="313" y="73" type="qcurve"/>
      <point x="313" y="48"/>
      <point x="337" y="48" type="qcurve"/>
      <point x="354" y="48"/>
      <point x="374" y="69"/>
      <point x="378" y="86" type="qcurve"/>
      <point x="403" y="202" type="line"/>
      <point x="404" y="206"/>
      <point x="404" y="213" type="qcurve"/>
      <point x="404" y="225"/>
      <point x="391" y="240"/>
    </contour>
    <contour>
      <point x="345" y="579" type="qcurve"/>
      <point x="345" y="545"/>
      <point x="321" y="482"/>
      <point x="276" y="434"/>
      <point x="211" y="406"/>
      <point x="171" y="406" type="qcurve"/>
      <point x="145" y="406"/>
      <point x="99" y="423"/>
      <point x="65" y="454"/>
      <point x="45" y="500"/>
      <point x="45" y="530" type="qcurve"/>
      <point x="45" y="568"/>
      <point x="70" y="633"/>
      <point x="115" y="680"/>
      <point x="177" y="706"/>
      <point x="215" y="706" type="qcurve"/>
      <point x="274" y="706"/>
      <point x="345" y="639"/>
    </contour>
    <contour>
      <point x="173" y="460" type="qcurve"/>
      <point x="198" y="460"/>
      <point x="239" y="478"/>
      <point x="269" y="508"/>
      <point x="285" y="547"/>
      <point x="285" y="568" type="qcurve"/>
      <point x="285" y="604"/>
      <point x="249" y="652"/>
      <point x="212" y="652" type="qcurve"/>
      <point x="188" y="652"/>
      <point x="149" y="634"/>
      <point x="120" y="603"/>
      <point x="105" y="562"/>
      <point x="105" y="539" type="qcurve"/>
      <point x="105" y="497"/>
      <point x="143" y="460"/>
    </contour>
    <contour>
      <point x="501" y="240" type="qcurve"/>
      <point x="485" y="240"/>
      <point x="467" y="219"/>
      <point x="463" y="202" type="qcurve"/>
      <point x="437" y="86" type="line"/>
      <point x="436" y="81"/>
      <point x="436" y="75" type="qcurve"/>
      <point x="436" y="63"/>
      <point x="449" y="48"/>
      <point x="461" y="48" type="qcurve"/>
      <point x="478" y="48"/>
      <point x="496" y="69"/>
      <point x="500" y="86" type="qcurve"/>
      <point x="525" y="202" type="line"/>
      <point x="526" y="207"/>
      <point x="526" y="210"/>
      <point x="526" y="213" type="qcurve"/>
      <point x="526" y="225"/>
      <point x="513" y="240"/>
    </contour>
    <component base="fraction" xOffset="-5"/>
  </outline>
</glyph>
<glyph name="uni2033" format="1">
  <advance width="612"/>
  <unicode hex="2033"/>
  <outline>
    <contour>
      <point x="150" y="644" type="qcurve"/>
      <point x="150" y="673"/>
      <point x="191" y="714"/>
      <point x="220" y="714" type="qcurve"/>
      <point x="249" y="714"/>
      <point x="290" y="673"/>
      <point x="290" y="644" type="qcurve"/>
      <point x="290" y="615"/>
      <point x="250" y="575"/>
      <point x="221" y="574" type="qcurve"/>
      <point x="179" y="472" type="line"/>
      <point x="129" y="492" type="line"/>
      <point x="172" y="593" type="line"/>
      <point x="150" y="612"/>
    </contour>
    <contour>
      <point x="332" y="644" type="qcurve"/>
      <point x="332" y="673"/>
      <point x="373" y="714"/>
      <point x="402" y="714" type="qcurve"/>
      <point x="431" y="714"/>
      <point x="472" y="673"/>
      <point x="472" y="644" type="qcurve"/>
      <point x="472" y="615"/>
      <point x="432" y="575"/>
      <point x="403" y="574" type="qcurve"/>
      <point x="361" y="472" type="line"/>
      <point x="311" y="492" type="line"/>
      <point x="354" y="593" type="line"/>
      <point x="332" y="612"/>
    </contour>
  </outline>
</glyph>
<glyph name="guilsinglleft" format="1">
  <advance width="612"/>
  <unicode hex="2039"/>
  <outline>
    <contour>
      <point x="339" y="12" type="line"/>
      <point x="154" y="168" type="line"/>
      <point x="154" y="324" type="line"/>
      <point x="440" y="484" type="line"/>
      <point x="446" y="484" type="line"/>
      <point x="446" y="396" type="line"/>
      <point x="184" y="252" type="line"/>
      <point x="184" y="242" type="line"/>
      <point x="345" y="108" type="line"/>
      <point x="345" y="12" type="line"/>
    </contour>
  </outline>
</glyph>
<glyph name="uni2070" format="1">
  <advance width="612"/>
  <unicode hex="2070"/>
  <outline>
    <contour>
      <point x="399" y="506" type="line"/>
      <point x="389" y="458"/>
      <point x="330" y="406"/>
      <point x="279" y="406" type="qcurve"/>
      <point x="237" y="406"/>
      <point x="190" y="451"/>
      <point x="190" y="489" type="qcurve"/>
      <point x="190" y="502"/>
      <point x="193" y="517" type="qcurve"/>
      <point x="212" y="606" type="line"/>
      <point x="222" y="654"/>
      <point x="281" y="706"/>
      <point x="332" y="706" type="qcurve"/>
      <point x="374" y="706"/>
      <point x="421" y="661"/>
      <point x="421" y="623" type="qcurve"/>
      <point x="421" y="610"/>
      <point x="418" y="595" type="qcurve"/>
    </contour>
    <contour>
      <point x="286" y="454" type="qcurve"/>
      <point x="307" y="454"/>
      <point x="340" y="479"/>
      <point x="345" y="505" type="qcurve"/>
      <point x="366" y="607" type="line"/>
      <point x="367" y="611"/>
      <point x="367" y="618" type="qcurve"/>
      <point x="367" y="635"/>
      <point x="345" y="658"/>
      <point x="325" y="658" type="qcurve"/>
      <point x="304" y="658"/>
      <point x="271" y="633"/>
      <point x="266" y="607" type="qcurve"/>
      <point x="245" y="505" type="line"/>
      <point x="244" y="501"/>
      <point x="244" y="494" type="qcurve"/>
      <point x="244" y="477"/>
      <point x="266" y="454"/>
    </contour>
    <contour>
      <point x="274" y="556" type="qcurve"/>
      <point x="274" y="570"/>
      <point x="293" y="588"/>
      <point x="306" y="588" type="qcurve"/>
      <point x="320" y="588"/>
      <point x="337" y="570"/>
      <point x="337" y="556" type="qcurve"/>
      <point x="337" y="542"/>
      <point x="320" y="525"/>
      <point x="306" y="525" type="qcurve"/>
      <point x="293" y="525"/>
      <point x="274" y="542"/>
    </contour>
  </outline>
</glyph>
<glyph name="uni2071" format="1">
  <advance width="612"/>
  <unicode hex="2071"/>
  <outline>
    <contour>
      <point x="220" y="460" type="line"/>
      <point x="321" y="460" type="line"/>
      <point x="362" y="652" type="line"/>
      <point x="279" y="652" type="line"/>
      <point x="279" y="700" type="line"/>
      <point x="426" y="700" type="line"/>
      <point x="375" y="460" type="line"/>
      <point x="460" y="460" type="line"/>
      <point x="460" y="412" type="line"/>
      <point x="220" y="412" type="line"/>
    </contour>
    <contour>
      <point x="462" y="785" type="qcurve"/>
      <point x="462" y="766"/>
      <point x="436" y="740"/>
      <point x="417" y="740" type="qcurve"/>
      <point x="398" y="740"/>
      <point x="372" y="766"/>
      <point x="372" y="785" type="qcurve"/>
      <point x="372" y="804"/>
      <point x="398" y="830"/>
      <point x="417" y="830" type="qcurve"/>
      <point x="436" y="830"/>
      <point x="462" y="804"/>
    </contour>
  </outline>
</glyph>
<glyph name="uni2078" format="1">
  <advance width="612"/>
  <unicode hex="2078"/>
  <outline>
    <contour>
      <point x="279" y="406" type="qcurve"/>
      <point x="241" y="406"/>
      <point x="189" y="443"/>
      <point x="189" y="477" type="qcurve"/>
      <point x="189" y="507"/>
      <point x="227" y="549"/>
      <point x="260" y="558" type="qcurve"/>
      <point x="260" y="564" type="line"/>
      <point x="247" y="569"/>
      <point x="225" y="595"/>
      <point x="225" y="617" type="qcurve"/>
      <point x="225" y="654"/>
      <point x="285" y="706"/>
      <point x="332" y="706" type="qcurve"/>
      <point x="368" y="706"/>
      <point x="417" y="666"/>
      <point x="417" y="634" type="qcurve"/>
      <point x="417" y="607"/>
      <point x="383" y="568"/>
      <point x="354" y="559" type="qcurve"/>
      <point x="354" y="553" type="line"/>
      <point x="369" y="547"/>
      <point x="393" y="525"/>
      <point x="393" y="501" type="qcurve"/>
      <point x="393" y="477"/>
      <point x="374" y="442"/>
      <point x="342" y="418"/>
      <point x="301" y="406"/>
    </contour>
    <contour>
      <point x="286" y="454" type="qcurve"/>
      <point x="309" y="454"/>
      <point x="340" y="480"/>
      <point x="340" y="503" type="qcurve"/>
      <point x="340" y="518"/>
      <point x="319" y="538"/>
      <point x="302" y="538" type="qcurve"/>
      <point x="279" y="538"/>
      <point x="246" y="512"/>
      <point x="246" y="489" type="qcurve"/>
      <point x="246" y="472"/>
      <point x="268" y="454"/>
    </contour>
    <contour>
      <point x="312" y="586" type="qcurve"/>
      <point x="333" y="586"/>
      <point x="367" y="606"/>
      <point x="367" y="626" type="qcurve"/>
      <point x="367" y="643"/>
      <point x="342" y="658"/>
      <point x="327" y="658" type="qcurve"/>
      <point x="307" y="658"/>
      <point x="273" y="638"/>
      <point x="273" y="618" type="qcurve"/>
      <point x="273" y="601"/>
      <point x="298" y="586"/>
    </contour>
  </outline>
</glyph>
<glyph name="uni207E" format="1">
  <advance width="612"/>
  <unicode hex="207E"/>
  <outline>
    <contour>
      <point x="300" y="761" type="line"/>
      <point x="300" y="809" type="line"/>
      <point x="323" y="809" type="line"/>
      <point x="354" y="809"/>
      <point x="407" y="788"/>
      <point x="445" y="749"/>
      <point x="466" y="695"/>
      <point x="466" y="662" type="qcurve"/>
      <point x="466" y="651"/>
      <point x="463" y="630"/>
      <point x="461" y="619" type="qcurve"/>
      <point x="430" y="472" type="line"/>
      <point x="421" y="427"/>
      <point x="379" y="363"/>
      <point x="322" y="322"/>
      <point x="253" y="303"/>
      <point x="216" y="303" type="qcurve"/>
      <point x="203" y="303" type="line"/>
      <point x="203" y="351" type="line"/>
      <point x="226" y="351" type="line"/>
      <point x="260" y="351"/>
      <point x="314" y="372"/>
      <point x="354" y="407"/>
      <point x="379" y="454"/>
      <point x="385" y="481" type="qcurve"/>
      <point x="413" y="621" type="line"/>
      <point x="417" y="640"/>
      <point x="417" y="660" type="qcurve"/>
      <point x="417" y="711"/>
      <point x="359" y="761"/>
      <point x="313" y="761" type="qcurve"/>
    </contour>
  </outline>
</glyph>
<glyph name="uni2080" format="1">
  <advance width="612"/>
  <unicode hex="2080"/>
  <outline>
    <contour>
      <point x="340" y="-106" type="line"/>
      <point x="330" y="-154"/>
      <point x="271" y="-206"/>
      <point x="220" y="-206" type="qcurve"/>
      <point x="178" y="-206"/>
      <point x="131" y="-161"/>
      <point x="131" y="-123" type="qcurve"/>
      <point x="131" y="-110"/>
      <point x="134" y="-95" type="qcurve"/>
      <point x="153" y="-6" type="line"/>
      <point x="163" y="42"/>
      <point x="222" y="94"/>
      <point x="273" y="94" type="qcurve"/>
      <point x="315" y="94"/>
      <point x="362" y="49"/>
      <point x="362" y="11" type="qcurve"/>
      <point x="362" y="-2"/>
      <point x="359" y="-17" type="qcurve"/>
    </contour>
    <contour>
      <point x="227" y="-158" type="qcurve"/>
      <point x="248" y="-158"/>
      <point x="281" y="-133"/>
      <point x="286" y="-107" type="qcurve"/>
      <point x="307" y="-5" type="line"/>
      <point x="308" y="-1"/>
      <point x="308" y="6" type="qcurve"/>
      <point x="308" y="23"/>
      <point x="286" y="46"/>
      <point x="266" y="46" type="qcurve"/>
      <point x="245" y="46"/>
      <point x="212" y="21"/>
      <point x="207" y="-5" type="qcurve"/>
      <point x="186" y="-107" type="line"/>
      <point x="185" y="-111"/>
      <point x="185" y="-118" type="qcurve"/>
      <point x="185" y="-135"/>
      <point x="207" y="-158"/>
    </contour>
    <contour>
      <point x="215" y="-56" type="qcurve"/>
      <point x="215" y="-42"/>
      <point x="234" y="-24"/>
      <point x="247" y="-24" type="qcurve"/>
      <point x="261" y="-24"/>
      <point x="278" y="-42"/>
      <point x="278" y="-56" type="qcurve"/>
      <point x="278" y="-70"/>
      <point x="261" y="-87"/>
      <point x="247" y="-87" type="qcurve"/>
      <point x="234" y="-87"/>
      <point x="215" y="-70"/>
    </contour>
  </outline>
</glyph>
<glyph name="uni2081" format="1">
  <advance width="612"/>
  <unicode hex="2081"/>
  <outline>
    <contour>
      <point x="222" y="-152" type="line"/>
      <point x="267" y="58" type="line"/>
      <point x="258" y="58" type="line"/>
      <point x="213" y="-35" type="line"/>
      <point x="156" y="-35" type="line"/>
      <point x="220" y="88" type="line"/>
      <point x="327" y="88" type="line"/>
      <point x="276" y="-152" type="line"/>
      <point x="347" y="-152" type="line"/>
      <point x="347" y="-200" type="line"/>
      <point x="144" y="-200" type="line"/>
      <point x="144" y="-152" type="line"/>
    </contour>
  </outline>
</glyph>
<glyph name="uni2082" format="1">
  <advance width="612"/>
  <unicode hex="2082"/>
  <outline>
    <contour>
      <point x="332" y="-152" type="line"/>
      <point x="322" y="-200" type="line"/>
      <point x="127" y="-200" type="line"/>
      <point x="139" y="-146" type="line"/>
      <point x="144" y="-123"/>
      <point x="160" y="-91"/>
      <point x="186" y="-69"/>
      <point x="226" y="-54"/>
      <point x="256" y="-48" type="qcurve"/>
      <point x="278" y="-44"/>
      <point x="315" y="-17"/>
      <point x="315" y="7" type="qcurve"/>
      <point x="315" y="25"/>
      <point x="293" y="46"/>
      <point x="273" y="46" type="qcurve"/>
      <point x="251" y="46"/>
      <point x="221" y="18"/>
      <point x="216" y="-8" type="qcurve"/>
      <point x="212" y="-26" type="line"/>
      <point x="158" y="-26" type="line"/>
      <point x="163" y="-4" type="line"/>
      <point x="173" y="39"/>
      <point x="230" y="94"/>
      <point x="281" y="94" type="qcurve"/>
      <point x="323" y="94"/>
      <point x="371" y="47"/>
      <point x="371" y="11" type="qcurve"/>
      <point x="371" y="-34"/>
      <point x="310" y="-85"/>
      <point x="264" y="-94" type="qcurve"/>
      <point x="226" y="-102"/>
      <point x="197" y="-126"/>
      <point x="193" y="-146" type="qcurve"/>
      <point x="191" y="-152" type="line"/>
    </contour>
  </outline>
</glyph>
<glyph name="uni2083" format="1">
  <advance width="612"/>
  <unicode hex="2083"/>
  <outline>
    <contour>
      <point x="227" y="-70" type="line"/>
      <point x="227" y="4" type="line"/>
      <point x="322" y="34" type="line"/>
      <point x="322" y="40" type="line"/>
      <point x="179" y="40" type="line"/>
      <point x="179" y="88" type="line"/>
      <point x="364" y="88" type="line"/>
      <point x="364" y="6" type="line"/>
      <point x="269" y="-24" type="line"/>
      <point x="269" y="-30" type="line"/>
      <point x="277" y="-30" type="line"/>
      <point x="303" y="-30"/>
      <point x="344" y="-63"/>
      <point x="344" y="-98" type="qcurve"/>
      <point x="344" y="-146"/>
      <point x="281" y="-206"/>
      <point x="225" y="-206" type="qcurve"/>
      <point x="180" y="-206"/>
      <point x="136" y="-159"/>
      <point x="136" y="-128" type="qcurve"/>
      <point x="136" y="-123"/>
      <point x="137" y="-115"/>
      <point x="138" y="-110" type="qcurve"/>
      <point x="141" y="-94" type="line"/>
      <point x="195" y="-94" type="line"/>
      <point x="192" y="-108" type="line"/>
      <point x="191" y="-113"/>
      <point x="191" y="-118"/>
      <point x="191" y="-121" type="qcurve"/>
      <point x="191" y="-138"/>
      <point x="211" y="-158"/>
      <point x="231" y="-158" type="qcurve"/>
      <point x="255" y="-158"/>
      <point x="288" y="-128"/>
      <point x="288" y="-103" type="qcurve"/>
      <point x="288" y="-86"/>
      <point x="268" y="-70"/>
      <point x="251" y="-70" type="qcurve"/>
    </contour>
  </outline>
</glyph>
<glyph name="uni2084" format="1">
  <advance width="612"/>
  <unicode hex="2084"/>
  <outline>
    <contour>
      <point x="263" y="88" type="line"/>
      <point x="366" y="88" type="line"/>
      <point x="327" y="-98" type="line"/>
      <point x="361" y="-98" type="line"/>
      <point x="361" y="-146" type="line"/>
      <point x="316" y="-146" type="line"/>
      <point x="305" y="-200" type="line"/>
      <point x="251" y="-200" type="line"/>
      <point x="262" y="-146" type="line"/>
      <point x="139" y="-146" type="line"/>
      <point x="139" y="-82" type="line"/>
    </contour>
    <contour>
      <point x="192" y="-92" type="line"/>
      <point x="192" y="-98" type="line"/>
      <point x="273" y="-98" type="line"/>
      <point x="306" y="58" type="line"/>
      <point x="300" y="58" type="line"/>
    </contour>
  </outline>
</glyph>
<glyph name="uni2085" format="1">
  <advance width="612"/>
  <unicode hex="2085"/>
  <outline>
    <contour>
      <point x="150" y="-73" type="line"/>
      <point x="184" y="88" type="line"/>
      <point x="367" y="88" type="line"/>
      <point x="367" y="40" type="line"/>
      <point x="228" y="40" type="line"/>
      <point x="211" y="-40" type="line"/>
      <point x="217" y="-40" type="line"/>
      <point x="241" y="-5"/>
      <point x="282" y="-5" type="qcurve"/>
      <point x="314" y="-5"/>
      <point x="353" y="-45"/>
      <point x="353" y="-80" type="qcurve"/>
      <point x="353" y="-137"/>
      <point x="287" y="-206"/>
      <point x="232" y="-206" type="qcurve"/>
      <point x="181" y="-206"/>
      <point x="135" y="-158"/>
      <point x="135" y="-121" type="qcurve"/>
      <point x="135" y="-117"/>
      <point x="135" y="-113"/>
      <point x="136" y="-107" type="qcurve"/>
      <point x="190" y="-107" type="line"/>
      <point x="189" y="-112"/>
      <point x="189" y="-116"/>
      <point x="189" y="-119" type="qcurve"/>
      <point x="189" y="-136"/>
      <point x="212" y="-158"/>
      <point x="236" y="-158" type="qcurve"/>
      <point x="264" y="-158"/>
      <point x="298" y="-118"/>
      <point x="298" y="-91" type="qcurve"/>
      <point x="298" y="-73"/>
      <point x="281" y="-53"/>
      <point x="268" y="-53" type="qcurve"/>
      <point x="255" y="-53"/>
      <point x="238" y="-65"/>
      <point x="234" y="-73" type="qcurve"/>
    </contour>
  </outline>
</glyph>
<glyph name="uni20A1" format="1">
  <advance width="612"/>
  <unicode hex="20A1"/>
  <outline>
    <contour>
      <point x="530" y="278" type="line"/>
      <point x="501" y="197"/>
      <point x="375" y="95"/>
      <point x="279" y="89" type="qcurve"/>
      <point x="251" y="23" type="line"/>
      <point x="188" y="48" type="line"/>
      <point x="207" y="92" type="line"/>
      <point x="199" y="94"/>
      <point x="183" y="97"/>
      <point x="175" y="100" type="qcurve"/>
      <point x="142" y="23" type="line"/>
      <point x="79" y="48" type="line"/>
      <point x="114" y="131" type="line"/>
      <point x="82" y="156"/>
      <point x="45" y="232"/>
      <point x="45" y="284" type="qcurve"/>
      <point x="45" y="342"/>
      <point x="82" y="452"/>
      <point x="152" y="540"/>
      <point x="253" y="600"/>
      <point x="318" y="609" type="qcurve"/>
      <point x="347" y="677" type="line"/>
      <point x="410" y="652" type="line"/>
      <point x="392" y="610" type="line"/>
      <point x="408" y="609"/>
      <point x="425" y="604" type="qcurve"/>
      <point x="456" y="677" type="line"/>
      <point x="519" y="652" type="line"/>
      <point x="486" y="575" type="line"/>
      <point x="520" y="550"/>
      <point x="559" y="473"/>
      <point x="559" y="422" type="qcurve"/>
      <point x="477" y="404" type="line"/>
      <point x="478" y="412"/>
      <point x="478" y="418"/>
      <point x="478" y="419" type="qcurve"/>
      <point x="478" y="441"/>
      <point x="466" y="480"/>
      <point x="452" y="496" type="qcurve"/>
      <point x="312" y="166" type="line"/>
      <point x="341" y="172"/>
      <point x="389" y="198"/>
      <point x="425" y="233"/>
      <point x="450" y="275"/>
      <point x="456" y="296" type="qcurve"/>
    </contour>
    <contour>
      <point x="127" y="297" type="qcurve"/>
      <point x="127" y="247"/>
      <point x="150" y="215" type="qcurve"/>
      <point x="283" y="528" type="line"/>
      <point x="246" y="516"/>
      <point x="188" y="469"/>
      <point x="148" y="407"/>
      <point x="127" y="334"/>
    </contour>
    <contour>
      <point x="206" y="172" type="line"/>
      <point x="214" y="170"/>
      <point x="229" y="166"/>
      <point x="238" y="164" type="qcurve"/>
      <point x="394" y="532" type="line"/>
      <point x="386" y="534"/>
      <point x="370" y="536"/>
      <point x="361" y="537" type="qcurve"/>
    </contour>
  </outline>
</glyph>
<glyph name="uni20A7" format="1">
  <advance width="612"/>
  <unicode hex="20A7"/>
  <outline>
    <contour>
      <point x="105" y="479" type="line"/>
      <point x="173" y="479" type="line"/>
      <point x="198" y="598" type="line"/>
      <point x="360" y="598" type="line"/>
      <point x="417" y="598"/>
      <point x="493" y="534"/>
      <point x="498" y="479" type="qcurve"/>
      <point x="553" y="479" type="line"/>
      <point x="553" y="407" type="line"/>
      <point x="490" y="407" type="line"/>
      <point x="472" y="356"/>
      <point x="376" y="288"/>
      <point x="304" y="288" type="qcurve"/>
      <point x="210" y="288" type="line"/>
      <point x="171" y="102" type="line"/>
      <point x="93" y="102" type="line"/>
      <point x="157" y="407" type="line"/>
      <point x="105" y="407" type="line"/>
    </contour>
    <contour>
      <point x="314" y="360" type="line"/>
      <point x="347" y="360"/>
      <point x="394" y="385"/>
      <point x="406" y="407" type="qcurve"/>
      <point x="236" y="407" type="line"/>
      <point x="226" y="360" type="line"/>
    </contour>
    <contour>
      <point x="251" y="479" type="line"/>
      <point x="415" y="479" type="line"/>
      <point x="403" y="526"/>
      <point x="341" y="526" type="qcurve"/>
      <point x="261" y="526" type="line"/>
    </contour>
  </outline>
</glyph>
<glyph name="uni20AB" format="1">
  <advance width="612"/>
  <unicode hex="20AB"/>
  <outline>
    <contour>
      <point x="326" y="562" type="line"/>
      <point x="441" y="562" type="line"/>
      <point x="449" y="598" type="line"/>
      <point x="527" y="598" type="line"/>
      <point x="519" y="562" type="line"/>
      <point x="566" y="562" type="line"/>
      <point x="566" y="496" type="line"/>
      <point x="505" y="496" type="line"/>
      <point x="422" y="102" type="line"/>
      <point x="344" y="102" type="line"/>
      <point x="353" y="146" type="line"/>
      <point x="344" y="146" type="line"/>
      <point x="307" y="90"/>
      <point x="236" y="90" type="qcurve"/>
      <point x="208" y="90"/>
      <point x="158" y="111"/>
      <point x="120" y="152"/>
      <point x="98" y="210"/>
      <point x="98" y="246" type="qcurve"/>
      <point x="98" y="287"/>
      <point x="127" y="365"/>
      <point x="181" y="427"/>
      <point x="259" y="464"/>
      <point x="308" y="464" type="qcurve"/>
      <point x="346" y="464"/>
      <point x="391" y="432"/>
      <point x="401" y="412" type="qcurve"/>
      <point x="410" y="412" type="line"/>
      <point x="427" y="496" type="line"/>
      <point x="326" y="496" type="line"/>
    </contour>
    <contour>
      <point x="306" y="392" type="qcurve"/>
      <point x="278" y="392"/>
      <point x="231" y="369"/>
      <point x="198" y="331"/>
      <point x="179" y="281"/>
      <point x="179" y="253" type="qcurve"/>
      <point x="179" y="211"/>
      <point x="223" y="162"/>
      <point x="261" y="162" type="qcurve"/>
      <point x="288" y="162"/>
      <point x="333" y="187"/>
      <point x="366" y="228"/>
      <point x="385" y="278"/>
      <point x="385" y="304" type="qcurve"/>
      <point x="385" y="346"/>
      <point x="344" y="392"/>
    </contour>
    <contour>
      <point x="131" y="66" type="line"/>
      <point x="407" y="66" type="line"/>
      <point x="407" y="0" type="line"/>
      <point x="131" y="0" type="line"/>
    </contour>
  </outline>
</glyph>
<glyph name="uni20B1" format="1">
  <advance width="612"/>
  <unicode hex="20B1"/>
  <outline>
    <contour>
      <point x="105" y="479" type="line"/>
      <point x="173" y="479" type="line"/>
      <point x="198" y="598" type="line"/>
      <point x="359" y="598" type="line"/>
      <point x="425" y="598"/>
      <point x="496" y="528"/>
      <point x="498" y="479" type="qcurve"/>
      <point x="553" y="479" type="line"/>
      <point x="553" y="407" type="line"/>
      <point x="483" y="407" type="line"/>
      <point x="476" y="393"/>
      <point x="457" y="371"/>
      <point x="444" y="366" type="qcurve"/>
      <point x="444" y="360" type="line"/>
      <point x="527" y="360" type="line"/>
      <point x="527" y="288" type="line"/>
      <point x="210" y="288" type="line"/>
      <point x="171" y="102" type="line"/>
      <point x="93" y="102" type="line"/>
      <point x="132" y="288" type="line"/>
      <point x="79" y="288" type="line"/>
      <point x="79" y="360" type="line"/>
      <point x="148" y="360" type="line"/>
      <point x="158" y="407" type="line"/>
      <point x="105" y="407" type="line"/>
    </contour>
    <contour>
      <point x="314" y="360" type="line"/>
      <point x="344" y="360"/>
      <point x="388" y="385"/>
      <point x="402" y="407" type="qcurve"/>
      <point x="236" y="407" type="line"/>
      <point x="226" y="360" type="line"/>
    </contour>
    <contour>
      <point x="251" y="479" type="line"/>
      <point x="417" y="479" type="line"/>
      <point x="409" y="526"/>
      <point x="349" y="526" type="qcurve"/>
      <point x="261" y="526" type="line"/>
    </contour>
  </outline>
</glyph>
<glyph name="uni2113" format="1">
  <advance width="612"/>
  <unicode hex="2113"/>
  <outline>
    <contour>
      <point x="554" y="563" type="qcurve"/>
      <point x="554" y="504"/>
      <point x="515" y="397"/>
      <point x="444" y="308"/>
      <point x="342" y="242"/>
      <point x="279" y="224" type="qcurve"/>
      <point x="253" y="102" type="line"/>
      <point x="252" y="97"/>
      <point x="252" y="92" type="qcurve"/>
      <point x="252" y="72"/>
      <point x="274" y="72" type="qcurve"/>
      <point x="419" y="72" type="line"/>
      <point x="419" y="0" type="line"/>
      <point x="231" y="0" type="line"/>
      <point x="202" y="0"/>
      <point x="168" y="33"/>
      <point x="168" y="60" type="qcurve"/>
      <point x="168" y="65"/>
      <point x="169" y="73"/>
      <point x="170" y="78" type="qcurve"/>
      <point x="198" y="208" type="line"/>
      <point x="184" y="206"/>
      <point x="157" y="206"/>
      <point x="143" y="206" type="qcurve"/>
      <point x="41" y="206" type="line"/>
      <point x="57" y="278" type="line"/>
      <point x="141" y="278" type="line"/>
      <point x="160" y="278"/>
      <point x="197" y="281"/>
      <point x="214" y="283" type="qcurve"/>
      <point x="276" y="576" type="line"/>
      <point x="289" y="637"/>
      <point x="365" y="714"/>
      <point x="427" y="714" type="qcurve"/>
      <point x="493" y="714"/>
      <point x="554" y="632"/>
    </contour>
    <contour>
      <point x="296" y="305" type="line"/>
      <point x="380" y="337"/>
      <point x="476" y="465"/>
      <point x="476" y="553" type="qcurve"/>
      <point x="476" y="642"/>
      <point x="422" y="642" type="qcurve"/>
      <point x="397" y="642"/>
      <point x="361" y="606"/>
      <point x="353" y="570" type="qcurve"/>
    </contour>
  </outline>
</glyph>
<glyph name="uni2197" format="1">
  <advance width="612"/>
  <unicode hex="2197"/>
  <outline>
    <contour>
      <point x="522" y="291" type="line"/>
      <point x="450" y="291" type="line"/>
      <point x="450" y="415" type="line"/>
      <point x="465" y="470" type="line"/>
      <point x="453" y="475" type="line"/>
      <point x="431" y="433" type="line"/>
      <point x="132" y="134" type="line"/>
      <point x="81" y="185" type="line"/>
      <point x="380" y="484" type="line"/>
      <point x="422" y="506" type="line"/>
      <point x="417" y="518" type="line"/>
      <point x="362" y="503" type="line"/>
      <point x="238" y="503" type="line"/>
      <point x="238" y="575" type="line"/>
      <point x="454" y="575" type="line"/>
      <point x="522" y="507" type="line"/>
    </contour>
  </outline>
</glyph>
<glyph name="partialdiff" format="1">
  <advance width="612"/>
  <unicode hex="2202"/>
  <outline>
    <contour>
      <point x="460" y="438" type="line"/>
      <point x="457" y="485"/>
      <point x="419" y="556"/>
      <point x="358" y="605"/>
      <point x="274" y="633"/>
      <point x="225" y="639" type="qcurve"/>
      <point x="240" y="714" type="line"/>
      <point x="392" y="696"/>
      <point x="545" y="527"/>
      <point x="545" y="390" type="qcurve"/>
      <point x="545" y="313"/>
      <point x="509" y="168"/>
      <point x="431" y="55"/>
      <point x="311" y="-14"/>
      <point x="227" y="-14" type="qcurve"/>
      <point x="183" y="-14"/>
      <point x="108" y="11"/>
      <point x="52" y="62"/>
      <point x="20" y="136"/>
      <point x="20" y="186" type="qcurve"/>
      <point x="20" y="250"/>
      <point x="63" y="368"/>
      <point x="141" y="457"/>
      <point x="250" y="510"/>
      <point x="315" y="510" type="qcurve"/>
      <point x="372" y="510"/>
      <point x="435" y="468"/>
      <point x="448" y="438" type="qcurve"/>
    </contour>
    <contour>
      <point x="237" y="60" type="qcurve"/>
      <point x="283" y="60"/>
      <point x="361" y="101"/>
      <point x="419" y="168"/>
      <point x="452" y="254"/>
      <point x="452" y="299" type="qcurve"/>
      <point x="452" y="362"/>
      <point x="377" y="436"/>
      <point x="317" y="436" type="qcurve"/>
      <point x="270" y="436"/>
      <point x="192" y="395"/>
      <point x="134" y="327"/>
      <point x="102" y="240"/>
      <point x="102" y="195" type="qcurve"/>
      <point x="102" y="129"/>
      <point x="177" y="60"/>
    </contour>
  </outline>
</glyph>
<glyph name="uni2219" format="1">
  <advance width="612"/>
  <unicode hex="2219"/>
  <outline>
    <contour>
      <point x="212" y="350" type="qcurve"/>
      <point x="212" y="369"/>
      <point x="227" y="403"/>
      <point x="253" y="429"/>
      <point x="287" y="444"/>
      <point x="306" y="444" type="qcurve"/>
      <point x="325" y="444"/>
      <point x="359" y="429"/>
      <point x="385" y="403"/>
      <point x="400" y="369"/>
      <point x="400" y="350" type="qcurve"/>
      <point x="400" y="331"/>
      <point x="385" y="297"/>
      <point x="359" y="271"/>
      <point x="325" y="256"/>
      <point x="306" y="256" type="qcurve"/>
      <point x="287" y="256"/>
      <point x="253" y="271"/>
      <point x="227" y="297"/>
      <point x="212" y="331"/>
    </contour>
  </outline>
</glyph>
<glyph name="infinity" format="1">
  <advance width="612"/>
  <unicode hex="221E"/>
  <outline>
    <contour>
      <point x="52" y="350" type="qcurve"/>
      <point x="52" y="380"/>
      <point x="75" y="433"/>
      <point x="114" y="472"/>
      <point x="165" y="495"/>
      <point x="194" y="495" type="qcurve"/>
      <point x="229" y="495"/>
      <point x="282" y="464"/>
      <point x="297" y="441" type="qcurve"/>
      <point x="315" y="441" type="line"/>
      <point x="330" y="464"/>
      <point x="383" y="495"/>
      <point x="418" y="495" type="qcurve"/>
      <point x="446" y="495"/>
      <point x="498" y="472"/>
      <point x="537" y="433"/>
      <point x="560" y="380"/>
      <point x="560" y="350" type="qcurve"/>
      <point x="560" y="320"/>
      <point x="537" y="267"/>
      <point x="498" y="228"/>
      <point x="446" y="205"/>
      <point x="418" y="205" type="qcurve"/>
      <point x="383" y="205"/>
      <point x="330" y="236"/>
      <point x="315" y="259" type="qcurve"/>
      <point x="297" y="259" type="line"/>
      <point x="282" y="236"/>
      <point x="229" y="205"/>
      <point x="194" y="205" type="qcurve"/>
      <point x="165" y="205"/>
      <point x="114" y="228"/>
      <point x="75" y="267"/>
      <point x="52" y="320"/>
    </contour>
    <contour>
      <point x="270" y="350" type="qcurve"/>
      <point x="270" y="380"/>
      <point x="227" y="423"/>
      <point x="197" y="423" type="qcurve"/>
      <point x="167" y="423"/>
      <point x="124" y="380"/>
      <point x="124" y="350" type="qcurve"/>
      <point x="124" y="320"/>
      <point x="167" y="277"/>
      <point x="197" y="277" type="qcurve"/>
      <point x="227" y="277"/>
      <point x="270" y="320"/>
    </contour>
    <contour>
      <point x="342" y="350" type="qcurve"/>
      <point x="342" y="320"/>
      <point x="385" y="277"/>
      <point x="415" y="277" type="qcurve"/>
      <point x="445" y="277"/>
      <point x="488" y="320"/>
      <point x="488" y="350" type="qcurve"/>
      <point x="488" y="380"/>
      <point x="445" y="423"/>
      <point x="415" y="423" type="qcurve"/>
      <point x="385" y="423"/>
      <point x="342" y="380"/>
    </contour>
  </outline>
</glyph>
<glyph name="lozenge" format="1">
  <advance width="612"/>
  <unicode hex="25CA"/>
  <outline>
    <contour>
      <point x="53" y="357" type="line"/>
      <point x="298" y="700" type="line"/>
      <point x="454" y="700" type="line"/>
      <point x="558" y="345" type="line"/>
      <point x="309" y="0" type="line"/>
      <point x="160" y="0" type="line"/>
    </contour>
    <contour>
      <point x="245" y="36" type="line"/>
      <point x="468" y="350" type="line"/>
      <point x="378" y="664" type="line"/>
      <point x="366" y="664" type="line"/>
      <point x="144" y="350" type="line"/>
      <point x="233" y="36" type="line"/>
    </contour>
  </outline>
</glyph>
<glyph name="fi" format="1">
  <advance width="612"/>
  <unicode hex="FB01"/>
  <outline>
    <contour>
      <point x="378" y="384" type="line"/>
      <point x="380" y="392"/>
      <point x="380" y="396" type="qcurve"/>
      <point x="380" y="424"/>
      <point x="349" y="424" type="qcurve"/>
      <point x="207" y="424" type="line"/>
      <point x="117" y="0" type="line"/>
      <point x="39" y="0" type="line"/>
      <point x="129" y="424" type="line"/>
      <point x="17" y="424" type="line"/>
      <point x="17" y="496" type="line"/>
      <point x="145" y="496" type="line"/>
      <point x="167" y="602" type="line"/>
      <point x="175" y="636"/>
      <point x="227" y="680"/>
      <point x="261" y="680" type="qcurve"/>
      <point x="352" y="680" type="line"/>
      <point x="352" y="608" type="line"/>
      <point x="274" y="608" type="line"/>
      <point x="246" y="608"/>
      <point x="240" y="578" type="qcurve"/>
      <point x="223" y="496" type="line"/>
      <point x="348" y="496" type="line"/>
      <point x="399" y="496"/>
      <point x="457" y="455"/>
      <point x="457" y="407" type="qcurve"/>
      <point x="457" y="391"/>
      <point x="452" y="366" type="qcurve"/>
      <point x="391" y="87" type="line"/>
      <point x="388" y="75"/>
      <point x="399" y="61"/>
      <point x="408" y="61" type="qcurve"/>
      <point x="415" y="61"/>
      <point x="423" y="66" type="qcurve"/>
      <point x="538" y="144" type="line"/>
      <point x="578" y="85" type="line"/>
      <point x="463" y="7" type="line"/>
      <point x="431" y="-14"/>
      <point x="396" y="-14" type="qcurve"/>
      <point x="363" y="-14"/>
      <point x="312" y="27"/>
      <point x="312" y="69" type="qcurve"/>
      <point x="312" y="83"/>
      <point x="316" y="100" type="qcurve"/>
    </contour>
    <contour>
      <point x="394" y="644" type="qcurve"/>
      <point x="394" y="673"/>
      <point x="435" y="714"/>
      <point x="464" y="714" type="qcurve"/>
      <point x="493" y="714"/>
      <point x="534" y="673"/>
      <point x="534" y="644" type="qcurve"/>
      <point x="534" y="615"/>
      <point x="493" y="574"/>
      <point x="464" y="574" type="qcurve"/>
      <point x="435" y="574"/>
      <point x="394" y="615"/>
    </contour>
  </outline>
</glyph>
<glyph name="fl" format="1">
  <advance width="612"/>
  <unicode hex="FB02"/>
  <outline>
    <contour>
      <point x="344" y="496" type="line"/>
      <point x="344" y="424" type="line"/>
      <point x="207" y="424" type="line"/>
      <point x="117" y="0" type="line"/>
      <point x="39" y="0" type="line"/>
      <point x="129" y="424" type="line"/>
      <point x="17" y="424" type="line"/>
      <point x="17" y="496" type="line"/>
      <point x="145" y="496" type="line"/>
      <point x="171" y="622" type="line"/>
      <point x="179" y="656"/>
      <point x="231" y="700"/>
      <point x="265" y="700" type="qcurve"/>
      <point x="392" y="700" type="line"/>
      <point x="443" y="700"/>
      <point x="501" y="659"/>
      <point x="501" y="611" type="qcurve"/>
      <point x="501" y="595"/>
      <point x="496" y="570" type="qcurve"/>
      <point x="391" y="87" type="line"/>
      <point x="388" y="75"/>
      <point x="399" y="61"/>
      <point x="408" y="61" type="qcurve"/>
      <point x="415" y="61"/>
      <point x="423" y="66" type="qcurve"/>
      <point x="538" y="144" type="line"/>
      <point x="578" y="85" type="line"/>
      <point x="463" y="7" type="line"/>
      <point x="431" y="-14"/>
      <point x="396" y="-14" type="qcurve"/>
      <point x="363" y="-14"/>
      <point x="312" y="27"/>
      <point x="312" y="69" type="qcurve"/>
      <point x="312" y="77"/>
      <point x="314" y="89"/>
      <point x="316" y="100" type="qcurve"/>
      <point x="422" y="588" type="line"/>
      <point x="423" y="592"/>
      <point x="424" y="597"/>
      <point x="424" y="600" type="qcurve"/>
      <point x="424" y="628"/>
      <point x="393" y="628" type="qcurve"/>
      <point x="278" y="628" type="line"/>
      <point x="250" y="628"/>
      <point x="244" y="598" type="qcurve"/>
      <point x="223" y="496" type="line"/>
    </contour>
  </outline>
</glyph>
<glyph name="Eth.alt" format="1">
  <advance width="612"/>
  <outline>
    <contour>
      <point x="34" y="6" type="line"/>
      <point x="98" y="311" type="line"/>
      <point x="47" y="311" type="line"/>
      <point x="47" y="389" type="line"/>
      <point x="115" y="389" type="line"/>
      <point x="181" y="700" type="line"/>
      <point x="353" y="700" type="line"/>
      <point x="459" y="700"/>
      <point x="567" y="605"/>
      <point x="567" y="515" type="qcurve"/>
      <point x="567" y="496"/>
      <point x="562" y="456"/>
      <point x="557" y="434" type="qcurve"/>
      <point x="519" y="260" type="line"/>
      <point x="504" y="189"/>
      <point x="460" y="90"/>
      <point x="392" y="28"/>
      <point x="293" y="0"/>
      <point x="222" y="0" type="qcurve"/>
      <point x="34" y="0" type="line"/>
    </contour>
    <contour>
      <point x="221" y="78" type="line"/>
      <point x="267" y="78"/>
      <point x="338" y="96"/>
      <point x="390" y="139"/>
      <point x="426" y="211"/>
      <point x="437" y="266" type="qcurve"/>
      <point x="472" y="434" type="line"/>
      <point x="477" y="460"/>
      <point x="481" y="494"/>
      <point x="481" y="510" type="qcurve"/>
      <point x="481" y="574"/>
      <point x="409" y="622"/>
      <point x="336" y="622" type="qcurve"/>
      <point x="248" y="622" type="line"/>
      <point x="199" y="389" type="line"/>
      <point x="299" y="389" type="line"/>
      <point x="299" y="311" type="line"/>
      <point x="182" y="311" type="line"/>
      <point x="133" y="78" type="line"/>
    </contour>
  </outline>
</glyph>
<glyph name="Euro.cap" format="1">
  <advance width="612"/>
  <outline>
    <contour>
      <point x="263" y="64" type="qcurve"/>
      <point x="306" y="64"/>
      <point x="373" y="90"/>
      <point x="422" y="136"/>
      <point x="454" y="201"/>
      <point x="464" y="240" type="qcurve"/>
      <point x="467" y="252" type="line"/>
      <point x="548" y="240" type="line"/>
      <point x="533" y="183"/>
      <point x="486" y="90"/>
      <point x="415" y="23"/>
      <point x="316" y="-14"/>
      <point x="248" y="-14" type="qcurve"/>
      <point x="201" y="-14"/>
      <point x="128" y="14"/>
      <point x="79" y="65"/>
      <point x="53" y="135"/>
      <point x="53" y="178" type="qcurve"/>
      <point x="53" y="195"/>
      <point x="55" y="232"/>
      <point x="59" y="252" type="qcurve"/>
      <point x="7" y="252" type="line"/>
      <point x="7" y="330" type="line"/>
      <point x="75" y="330" type="line"/>
      <point x="83" y="366" type="line"/>
      <point x="31" y="366" type="line"/>
      <point x="31" y="444" type="line"/>
      <point x="99" y="444" type="line"/>
      <point x="131" y="578"/>
      <point x="282" y="714"/>
      <point x="397" y="714" type="qcurve"/>
      <point x="445" y="714"/>
      <point x="522" y="686"/>
      <point x="576" y="635"/>
      <point x="604" y="566"/>
      <point x="604" y="525" type="qcurve"/>
      <point x="604" y="494"/>
      <point x="595" y="460" type="qcurve"/>
      <point x="508" y="448" type="line"/>
      <point x="511" y="460" type="line"/>
      <point x="515" y="476"/>
      <point x="519" y="504"/>
      <point x="519" y="518" type="qcurve"/>
      <point x="519" y="572"/>
      <point x="453" y="638"/>
      <point x="384" y="638" type="qcurve"/>
      <point x="302" y="638"/>
      <point x="206" y="531"/>
      <point x="184" y="444" type="qcurve"/>
      <point x="333" y="444" type="line"/>
      <point x="333" y="366" type="line"/>
      <point x="167" y="366" type="line"/>
      <point x="159" y="330" type="line"/>
      <point x="309" y="330" type="line"/>
      <point x="309" y="252" type="line"/>
      <point x="143" y="252" type="line"/>
      <point x="141" y="237"/>
      <point x="138" y="210"/>
      <point x="138" y="197" type="qcurve"/>
      <point x="138" y="130"/>
      <point x="198" y="64"/>
    </contour>
  </outline>
</glyph>
<glyph name="IJ.alt" format="1">
  <advance width="612"/>
  <outline>
    <contour>
      <point x="165" y="700" type="line"/>
      <point x="249" y="700" type="line"/>
      <point x="173" y="342" type="line"/>
      <point x="89" y="342" type="line"/>
    </contour>
    <contour>
      <point x="597" y="700" type="line"/>
      <point x="492" y="206" type="line"/>
      <point x="481" y="154"/>
      <point x="442" y="73"/>
      <point x="382" y="16"/>
      <point x="297" y="-14"/>
      <point x="241" y="-14" type="qcurve"/>
      <point x="153" y="-14"/>
      <point x="55" y="78"/>
      <point x="55" y="155" type="qcurve"/>
      <point x="55" y="181"/>
      <point x="61" y="210" type="qcurve"/>
      <point x="73" y="264" type="line"/>
      <point x="157" y="264" type="line"/>
      <point x="145" y="210" type="line"/>
      <point x="139" y="183"/>
      <point x="139" y="160" type="qcurve"/>
      <point x="139" y="64"/>
      <point x="252" y="64" type="qcurve"/>
      <point x="322" y="64"/>
      <point x="395" y="145"/>
      <point x="409" y="210" type="qcurve"/>
      <point x="514" y="700" type="line"/>
    </contour>
  </outline>
</glyph>
<glyph name="J.alt" format="1">
  <advance width="612"/>
  <outline>
    <contour>
      <point x="591" y="700" type="line"/>
      <point x="486" y="206" type="line"/>
      <point x="475" y="154"/>
      <point x="436" y="73"/>
      <point x="376" y="16"/>
      <point x="291" y="-14"/>
      <point x="235" y="-14" type="qcurve"/>
      <point x="147" y="-14"/>
      <point x="49" y="78"/>
      <point x="49" y="155" type="qcurve"/>
      <point x="49" y="181"/>
      <point x="55" y="210" type="qcurve"/>
      <point x="67" y="264" type="line"/>
      <point x="151" y="264" type="line"/>
      <point x="139" y="210" type="line"/>
      <point x="133" y="183"/>
      <point x="133" y="160" type="qcurve"/>
      <point x="133" y="64"/>
      <point x="246" y="64" type="qcurve"/>
      <point x="316" y="64"/>
      <point x="389" y="145"/>
      <point x="403" y="210" type="qcurve"/>
      <point x="508" y="700" type="line"/>
    </contour>
  </outline>
</glyph>
